<svg width="378" height="136" viewBox="0 0 378 136" fill="none" xmlns="http://www.w3.org/2000/svg">
<g filter="url(#filter0_d_91_47)">
<path d="M11.1519 112.557L11.0155 19.5422C11.0069 13.7224 15.7224 9 21.5422 9H27.569C30.0543 9 32.069 11.0147 32.069 13.5C32.069 15.9853 34.0838 18 36.569 18L45.5 18C47.9853 18 50 15.9853 50 13.5C50 11.0147 52.0147 9 54.5 9H351.855C360.13 9 366.843 15.7023 366.855 23.978L366.978 107.978C366.99 116.271 360.271 123 351.978 123L54.5 123C52.0147 123 50 120.985 50 118.5C50 116.015 47.9853 114 45.5 114H36.5691C34.0838 114 32.069 116.015 32.069 118.5C32.069 120.985 30.0543 123 27.569 123H21.6105C15.8403 123 11.1604 118.327 11.1519 112.557Z" fill="#FDFFF5"/>
<path d="M11.1519 112.557L11.0155 19.5422C11.0069 13.7224 15.7224 9 21.5422 9H27.569C30.0543 9 32.069 11.0147 32.069 13.5C32.069 15.9853 34.0838 18 36.569 18L45.5 18C47.9853 18 50 15.9853 50 13.5C50 11.0147 52.0147 9 54.5 9H351.855C360.13 9 366.843 15.7023 366.855 23.978L366.978 107.978C366.99 116.271 360.271 123 351.978 123L54.5 123C52.0147 123 50 120.985 50 118.5C50 116.015 47.9853 114 45.5 114H36.5691C34.0838 114 32.069 116.015 32.069 118.5C32.069 120.985 30.0543 123 27.569 123H21.6105C15.8403 123 11.1604 118.327 11.1519 112.557Z" stroke="#E5A224" stroke-width="0.5"/>
</g>
<mask id="mask0_91_47" style="mask-type:alpha" maskUnits="userSpaceOnUse" x="11" y="9" width="356" height="114">
<path d="M11.1519 112.557L11.0155 19.5422C11.0069 13.7224 15.7224 9 21.5422 9H27.569C30.0543 9 32.069 11.0147 32.069 13.5C32.069 15.9853 34.0838 18 36.569 18L45.5 18C47.9853 18 50 15.9853 50 13.5C50 11.0147 52.0147 9 54.5 9H351.855C360.13 9 366.843 15.7023 366.855 23.978L366.978 107.978C366.99 116.271 360.271 123 351.978 123L54.5 123C52.0147 123 50 120.985 50 118.5C50 116.015 47.9853 114 45.5 114H36.5691C34.0838 114 32.069 116.015 32.069 118.5C32.069 120.985 30.0543 123 27.569 123H21.6105C15.8403 123 11.1604 118.327 11.1519 112.557Z" fill="#FDFFF5"/>
</mask>
<g mask="url(#mask0_91_47)">
<g filter="url(#filter1_f_91_47)">
<circle cx="123.5" cy="9.5" r="22.5" fill="#E5A224"/>
</g>
<g filter="url(#filter2_f_91_47)">
<circle cx="272.5" cy="117.5" r="22.5" fill="#E5A224"/>
</g>
</g>
<path d="M335.693 20.0239L335.543 20.0295H335.843L335.693 20.0239ZM335.84 16.0876L335.99 16.0932L335.84 16.0876ZM335.546 16.0876L335.396 16.0932L335.546 16.0876ZM331.082 11.66L331.088 11.5101L331.082 11.66ZM327 11.512L326.995 11.3621V11.6619L327 11.512ZM331.082 11.3639L331.088 11.5138L331.082 11.3639ZM334.967 9L335.098 9.07334L335.223 8.85H334.967V9ZM58.7093 9V8.85H58.5536L58.5594 9.00557L58.7093 9ZM58.7114 9.05719L58.5615 9.06276V9.06276L58.7114 9.05719ZM65.13 15.4517L65.1354 15.3018L65.13 15.4517ZM71 15.6656L71.0055 15.8155V15.5157L71 15.6656ZM65.13 15.8794L65.1245 15.7295L65.13 15.8794ZM58.7114 22.274L58.5615 22.2684L58.7114 22.274ZM58.5 27.959L58.3501 27.9645H58.6499L58.5 27.959ZM58.2886 22.274L58.1387 22.2795L58.2886 22.274ZM51.87 15.8794L51.8646 16.0293L51.87 15.8794ZM49.3754 15.7885L49.3809 15.6386L49.2917 15.6354L49.2463 15.7121L49.3754 15.7885ZM45.5 18V17.85V18ZM36.569 18V18.15V18ZM11.0155 19.5422L11.1655 19.542L11.0155 19.5422ZM11.1519 112.557L11.0019 112.557L11.1519 112.557ZM21.6104 123V123.15V123ZM27.569 123V122.85V123ZM36.569 114V113.85V114ZM170.381 123V123.15H170.559L170.529 122.975L170.381 123ZM159.291 113.345L159.285 113.494L159.291 113.345ZM149 112.97L148.995 112.82V113.12L149 112.97ZM159.291 112.595L159.285 112.445L159.291 112.595ZM170.543 101.384L170.393 101.379L170.543 101.384ZM170.914 91.418L171.064 91.4124H170.764L170.914 91.418ZM171.284 101.384L171.434 101.379L171.284 101.384ZM182.537 112.595L182.542 112.445L182.537 112.595ZM192.828 112.97L192.833 113.12V112.82L192.828 112.97ZM182.537 113.345L182.542 113.494L182.537 113.345ZM171.446 123L171.299 122.975L171.268 123.15H171.446V123ZM351.978 123V122.85V123ZM366.978 107.978L366.828 107.978L366.978 107.978ZM366.87 34.1138L367.02 34.1136L367.019 33.9583L366.864 33.9639L366.87 34.1138ZM360.537 34.3445L360.542 34.4944L360.537 34.3445ZM349.284 45.5548L349.434 45.5604L349.284 45.5548ZM348.914 55.5212L348.764 55.5268H349.064L348.914 55.5212ZM348.543 45.5548L348.393 45.5604L348.543 45.5548ZM337.291 34.3445L337.285 34.4944L337.291 34.3445ZM327 33.9696L326.995 33.8197V34.1195L327 33.9696ZM337.291 33.5947L337.285 33.4448L337.291 33.5947ZM348.543 22.3844L348.393 22.3788L348.543 22.3844ZM348.914 12.418L349.064 12.4124H348.764L348.914 12.418ZM349.284 22.3844L349.434 22.3788L349.284 22.3844ZM360.537 33.5947L360.531 33.7446L360.537 33.5947ZM366.869 33.8254L366.864 33.9753L367.019 33.981L367.019 33.8252L366.869 33.8254ZM366.855 23.978L367.005 23.9778L366.855 23.978ZM336.419 9V8.85H336.163L336.289 9.07334L336.419 9ZM340.304 11.3639L340.309 11.214L340.304 11.3639ZM344.386 11.512L344.392 11.6619V11.3621L344.386 11.512ZM340.304 11.66L340.309 11.8099L340.304 11.66ZM49.5133 15.5376L49.3796 15.4696L49.2641 15.6968L49.5188 15.6875L49.5133 15.5376ZM51.87 15.4517L51.8646 15.3018L51.87 15.4517ZM58.2907 9L58.4406 9.00557L58.4464 8.85H58.2907V9ZM58.2886 9.05719L58.4385 9.06276V9.06276L58.2886 9.05719ZM184.135 99.0239L183.985 99.0295H184.284L184.135 99.0239ZM183.988 95.0876L183.838 95.0932L183.988 95.0876ZM184.282 95.0876L184.431 95.0932L184.282 95.0876ZM188.745 90.66L188.74 90.5101L188.745 90.66ZM192.828 90.512L192.833 90.6619V90.3621L192.828 90.512ZM188.745 90.3639L188.751 90.214L188.745 90.3639ZM184.282 85.9363L184.431 85.9307L184.282 85.9363ZM184.135 82L184.284 81.9944H183.985L184.135 82ZM183.988 85.9363L183.838 85.9307L183.988 85.9363ZM179.524 90.3639L179.518 90.214L179.524 90.3639ZM175.441 90.512L175.436 90.3621V90.6619L175.441 90.512ZM179.524 90.66L179.529 90.5101L179.524 90.66ZM335.843 20.0295L335.99 16.0932L335.69 16.082L335.543 20.0183L335.843 20.0295ZM335.396 16.0932L335.543 20.0295L335.843 20.0183L335.696 16.082L335.396 16.0932ZM331.077 11.8099C333.426 11.8952 335.309 13.7645 335.396 16.0932L335.696 16.082C335.603 13.5943 333.592 11.601 331.088 11.5101L331.077 11.8099ZM326.995 11.6619L331.077 11.8099L331.088 11.5101L327.005 11.3621L326.995 11.6619ZM331.077 11.214L326.995 11.3621L327.005 11.6619L331.088 11.5138L331.077 11.214ZM334.836 8.92666C334.095 10.2482 332.697 11.1552 331.077 11.214L331.088 11.5138C332.815 11.4511 334.307 10.4835 335.098 9.07334L334.836 8.92666ZM58.7093 9.15H334.967V8.85H58.7093V9.15ZM58.8613 9.05162L58.8591 8.99443L58.5594 9.00557L58.5615 9.06276L58.8613 9.05162ZM65.1354 15.3018C61.7241 15.1775 58.9877 12.4508 58.8613 9.05162L58.5615 9.06276C58.6937 12.6197 61.557 15.4717 65.1245 15.6016L65.1354 15.3018ZM71.0055 15.5157L65.1354 15.3018L65.1245 15.6016L70.9945 15.8155L71.0055 15.5157ZM65.1354 16.0293L71.0055 15.8155L70.9945 15.5157L65.1245 15.7295L65.1354 16.0293ZM58.8613 22.2795C58.9877 18.8804 61.7241 16.1536 65.1354 16.0293L65.1245 15.7295C61.557 15.8595 58.6937 18.7114 58.5615 22.2684L58.8613 22.2795ZM58.6499 27.9645L58.8613 22.2795L58.5615 22.2684L58.3501 27.9534L58.6499 27.9645ZM58.1387 22.2795L58.3501 27.9645L58.6499 27.9534L58.4385 22.2684L58.1387 22.2795ZM51.8646 16.0293C55.2759 16.1536 58.0123 18.8804 58.1387 22.2795L58.4385 22.2684C58.3062 18.7114 55.443 15.8595 51.8755 15.7295L51.8646 16.0293ZM49.37 15.9384L51.8646 16.0293L51.8755 15.7295L49.3809 15.6386L49.37 15.9384ZM45.5 18.15C47.2048 18.15 48.6952 17.2324 49.5045 15.8649L49.2463 15.7121C48.4888 16.9922 47.0945 17.85 45.5 17.85V18.15ZM36.569 18.15L45.5 18.15V17.85L36.569 17.85V18.15ZM31.919 13.5C31.919 16.0681 34.0009 18.15 36.569 18.15V17.85C34.1666 17.85 32.219 15.9024 32.219 13.5H31.919ZM27.569 9.15C29.9715 9.15 31.919 11.0976 31.919 13.5H32.219C32.219 10.9319 30.1372 8.85 27.569 8.85V9.15ZM21.5422 9.15H27.569V8.85H21.5422V9.15ZM11.1655 19.542C11.157 13.8051 15.8053 9.15 21.5422 9.15V8.85C15.6395 8.85 10.8568 13.6397 10.8655 19.5425L11.1655 19.542ZM11.3019 112.557L11.1655 19.542L10.8655 19.5425L11.0019 112.557L11.3019 112.557ZM21.6104 122.85C15.9231 122.85 11.3102 118.244 11.3019 112.557L11.0019 112.557C11.0105 118.41 15.7576 123.15 21.6104 123.15V122.85ZM27.569 122.85H21.6104V123.15H27.569V122.85ZM31.919 118.5C31.919 120.902 29.9715 122.85 27.569 122.85V123.15C30.1372 123.15 32.219 121.068 32.219 118.5H31.919ZM36.569 113.85C34.0009 113.85 31.919 115.932 31.919 118.5H32.219C32.219 116.098 34.1666 114.15 36.569 114.15V113.85ZM45.5 113.85H36.569V114.15H45.5V113.85ZM50.15 118.5C50.15 115.932 48.0681 113.85 45.5 113.85V114.15C47.9024 114.15 49.85 116.098 49.85 118.5H50.15ZM54.5 122.85C52.0976 122.85 50.15 120.902 50.15 118.5H49.85C49.85 121.068 51.9319 123.15 54.5 123.15V122.85ZM170.381 122.85H54.5V123.15H170.381V122.85ZM159.285 113.494C164.801 113.695 169.321 117.74 170.233 123.026L170.529 122.975C169.593 117.551 164.955 113.401 159.296 113.195L159.285 113.494ZM148.995 113.12L159.285 113.494L159.296 113.195L149.005 112.82L148.995 113.12ZM159.285 112.445L148.995 112.82L149.005 113.12L159.296 112.745L159.285 112.445ZM170.393 101.379C170.17 107.397 165.325 112.225 159.285 112.445L159.296 112.745C165.492 112.519 170.463 107.566 170.693 101.39L170.393 101.379ZM170.764 91.4124L170.393 101.379L170.693 101.39L171.064 91.4236L170.764 91.4124ZM171.434 101.379L171.064 91.4124L170.764 91.4236L171.134 101.39L171.434 101.379ZM182.542 112.445C176.503 112.225 171.658 107.397 171.434 101.379L171.134 101.39C171.364 107.566 176.336 112.519 182.531 112.745L182.542 112.445ZM192.833 112.82L182.542 112.445L182.531 112.745L192.822 113.12L192.833 112.82ZM182.542 113.494L192.833 113.12L192.822 112.82L182.531 113.195L182.542 113.494ZM171.594 123.026C172.506 117.74 177.026 113.695 182.542 113.494L182.531 113.195C176.872 113.401 172.235 117.551 171.299 122.975L171.594 123.026ZM351.978 122.85L171.446 122.85V123.15L351.978 123.15V122.85ZM366.828 107.978C366.84 116.188 360.188 122.85 351.978 122.85V123.15C360.354 123.15 367.14 116.354 367.128 107.978L366.828 107.978ZM366.72 34.114L366.828 107.978L367.128 107.978L367.02 34.1136L366.72 34.114ZM360.542 34.4944L366.875 34.2637L366.864 33.9639L360.531 34.1946L360.542 34.4944ZM349.434 45.5604C349.658 39.5419 354.503 34.7144 360.542 34.4944L360.531 34.1946C354.336 34.4203 349.364 39.3729 349.135 45.5492L349.434 45.5604ZM349.064 55.5268L349.434 45.5604L349.135 45.5492L348.764 55.5156L349.064 55.5268ZM348.393 45.5604L348.764 55.5268L349.064 55.5156L348.693 45.5492L348.393 45.5604ZM337.285 34.4944C343.325 34.7144 348.17 39.5419 348.393 45.5604L348.693 45.5492C348.464 39.3729 343.492 34.4203 337.296 34.1946L337.285 34.4944ZM326.995 34.1195L337.285 34.4944L337.296 34.1946L327.005 33.8197L326.995 34.1195ZM337.285 33.4448L326.995 33.8197L327.005 34.1195L337.296 33.7446L337.285 33.4448ZM348.393 22.3788C348.17 28.3973 343.325 33.2248 337.285 33.4448L337.296 33.7446C343.492 33.5189 348.464 28.5663 348.693 22.39L348.393 22.3788ZM348.764 12.4124L348.393 22.3788L348.693 22.39L349.064 12.4236L348.764 12.4124ZM349.434 22.3788L349.064 12.4124L348.764 12.4236L349.135 22.39L349.434 22.3788ZM360.542 33.4448C354.503 33.2248 349.658 28.3973 349.434 22.3788L349.135 22.39C349.364 28.5663 354.336 33.5189 360.531 33.7446L360.542 33.4448ZM366.875 33.6755L360.542 33.4448L360.531 33.7446L366.864 33.9753L366.875 33.6755ZM366.705 23.9782L366.719 33.8256L367.019 33.8252L367.005 23.9778L366.705 23.9782ZM351.855 9.15C360.048 9.15 366.693 15.7853 366.705 23.9782L367.005 23.9778C366.992 15.6193 360.213 8.85 351.855 8.85V9.15ZM336.419 9.15H351.855V8.85H336.419V9.15ZM340.309 11.214C338.69 11.1552 337.291 10.2482 336.55 8.92666L336.289 9.07334C337.079 10.4835 338.571 11.4511 340.298 11.5138L340.309 11.214ZM344.392 11.3621L340.309 11.214L340.298 11.5138L344.381 11.6619L344.392 11.3621ZM340.309 11.8099L344.392 11.6619L344.381 11.3621L340.298 11.5101L340.309 11.8099ZM335.99 16.0932C336.077 13.7645 337.96 11.8952 340.309 11.8099L340.298 11.5101C337.794 11.601 335.783 13.5943 335.69 16.082L335.99 16.0932ZM49.5188 15.6875L51.8755 15.6016L51.8646 15.3018L49.5079 15.3877L49.5188 15.6875ZM49.85 13.5C49.85 14.2092 49.6804 14.8784 49.3796 15.4696L49.647 15.6056C49.9687 14.9732 50.15 14.2576 50.15 13.5H49.85ZM54.5 8.85C51.9319 8.85 49.85 10.9319 49.85 13.5H50.15C50.15 11.0976 52.0975 9.15 54.5 9.15V8.85ZM58.2907 8.85H54.5V9.15H58.2907V8.85ZM58.4385 9.06276L58.4406 9.00557L58.1408 8.99443L58.1387 9.05162L58.4385 9.06276ZM51.8755 15.6016C55.443 15.4716 58.3062 12.6198 58.4385 9.06276L58.1387 9.05162C58.0123 12.4508 55.2759 15.1775 51.8646 15.3018L51.8755 15.6016ZM184.284 99.0183L184.137 95.082L183.838 95.0932L183.985 99.0295L184.284 99.0183ZM184.132 95.082L183.985 99.0183L184.284 99.0295L184.431 95.0932L184.132 95.082ZM188.74 90.5101C186.236 90.601 184.225 92.5943 184.132 95.082L184.431 95.0932C184.518 92.7645 186.402 90.8952 188.751 90.8099L188.74 90.5101ZM192.822 90.3621L188.74 90.5101L188.751 90.8099L192.833 90.6619L192.822 90.3621ZM188.74 90.5138L192.822 90.6619L192.833 90.3621L188.751 90.214L188.74 90.5138ZM184.132 85.9419C184.225 88.4296 186.236 90.423 188.74 90.5138L188.751 90.214C186.402 90.1288 184.518 88.2595 184.431 85.9307L184.132 85.9419ZM183.985 82.0056L184.132 85.9419L184.431 85.9307L184.284 81.9944L183.985 82.0056ZM184.137 85.9419L184.284 82.0056L183.985 81.9944L183.838 85.9307L184.137 85.9419ZM179.529 90.5138C182.033 90.423 184.045 88.4296 184.137 85.9419L183.838 85.9307C183.751 88.2595 181.867 90.1288 179.518 90.214L179.529 90.5138ZM175.447 90.6619L179.529 90.5138L179.518 90.214L175.436 90.3621L175.447 90.6619ZM179.529 90.5101L175.447 90.3621L175.436 90.6619L179.518 90.8099L179.529 90.5101ZM184.137 95.082C184.045 92.5943 182.033 90.601 179.529 90.5101L179.518 90.8099C181.867 90.8952 183.751 92.7645 183.838 95.0932L184.137 95.082Z" fill="black"/>
<defs>
<filter id="filter0_d_91_47" x="0.765442" y="0.75" width="376.463" height="134.5" filterUnits="userSpaceOnUse" color-interpolation-filters="sRGB">
<feFlood flood-opacity="0" result="BackgroundImageFix"/>
<feColorMatrix in="SourceAlpha" type="matrix" values="0 0 0 0 0 0 0 0 0 0 0 0 0 0 0 0 0 0 127 0" result="hardAlpha"/>
<feOffset dy="2"/>
<feGaussianBlur stdDeviation="5"/>
<feComposite in2="hardAlpha" operator="out"/>
<feColorMatrix type="matrix" values="0 0 0 0 0.898039 0 0 0 0 0.635294 0 0 0 0 0.141176 0 0 0 0.25 0"/>
<feBlend mode="normal" in2="BackgroundImageFix" result="effect1_dropShadow_91_47"/>
<feBlend mode="normal" in="SourceGraphic" in2="effect1_dropShadow_91_47" result="shape"/>
</filter>
<filter id="filter1_f_91_47" x="26" y="-88" width="195" height="195" filterUnits="userSpaceOnUse" color-interpolation-filters="sRGB">
<feFlood flood-opacity="0" result="BackgroundImageFix"/>
<feBlend mode="normal" in="SourceGraphic" in2="BackgroundImageFix" result="shape"/>
<feGaussianBlur stdDeviation="37.5" result="effect1_foregroundBlur_91_47"/>
</filter>
<filter id="filter2_f_91_47" x="175" y="20" width="195" height="195" filterUnits="userSpaceOnUse" color-interpolation-filters="sRGB">
<feFlood flood-opacity="0" result="BackgroundImageFix"/>
<feBlend mode="normal" in="SourceGraphic" in2="BackgroundImageFix" result="shape"/>
<feGaussianBlur stdDeviation="37.5" result="effect1_foregroundBlur_91_47"/>
</filter>
</defs>
</svg>
