<svg width="338" height="90" viewBox="0 0 338 90" fill="none" xmlns="http://www.w3.org/2000/svg">
<g filter="url(#filter0_d_291_3052)">
<path d="M11.1283 68.0818L11.0203 18.361C11.0091 13.1944 15.1944 9 20.361 9H27.0038C28.4938 9 29.7017 10.2079 29.7017 11.698C29.7017 13.188 30.9097 14.3959 32.3997 14.3959H42.92C44.4101 14.3959 45.618 13.188 45.618 11.698C45.618 10.2079 46.8259 9 48.316 9H311.884C320.156 9 326.866 15.6959 326.884 23.9674L326.967 62.3157C326.985 70.6127 320.264 77.3483 311.967 77.3483H48.3159C46.8259 77.3483 45.618 76.1404 45.618 74.6504C45.618 73.1603 44.4101 71.9524 42.92 71.9524L32.3997 71.9524C30.9097 71.9524 29.7017 73.1603 29.7017 74.6504C29.7017 76.1404 28.4938 77.3483 27.0038 77.3483L20.415 77.3483C15.294 77.3483 11.1394 73.2028 11.1283 68.0818Z" fill="#FDFFF5"/>
<path d="M11.1283 68.0818L11.0203 18.361C11.0091 13.1944 15.1944 9 20.361 9H27.0038C28.4938 9 29.7017 10.2079 29.7017 11.698C29.7017 13.188 30.9097 14.3959 32.3997 14.3959H42.92C44.4101 14.3959 45.618 13.188 45.618 11.698C45.618 10.2079 46.8259 9 48.316 9H311.884C320.156 9 326.866 15.6959 326.884 23.9674L326.967 62.3157C326.985 70.6127 320.264 77.3483 311.967 77.3483H48.3159C46.8259 77.3483 45.618 76.1404 45.618 74.6504C45.618 73.1603 44.4101 71.9524 42.92 71.9524L32.3997 71.9524C30.9097 71.9524 29.7017 73.1603 29.7017 74.6504C29.7017 76.1404 28.4938 77.3483 27.0038 77.3483L20.415 77.3483C15.294 77.3483 11.1394 73.2028 11.1283 68.0818Z" stroke="#E5A224" stroke-width="0.5"/>
</g>
<mask id="mask0_291_3052" style="mask-type:alpha" maskUnits="userSpaceOnUse" x="11" y="9" width="316" height="69">
<path d="M11.1283 68.0818L11.0203 18.361C11.0091 13.1944 15.1944 9 20.361 9H27.0038C28.4938 9 29.7017 10.2079 29.7017 11.698C29.7017 13.188 30.9097 14.3959 32.3997 14.3959H42.92C44.4101 14.3959 45.618 13.188 45.618 11.698C45.618 10.2079 46.8259 9 48.316 9H311.884C320.156 9 326.866 15.6959 326.884 23.9674L326.967 62.3157C326.985 70.6127 320.264 77.3483 311.967 77.3483H48.3159C46.8259 77.3483 45.618 76.1404 45.618 74.6504C45.618 73.1603 44.4101 71.9524 42.92 71.9524L32.3997 71.9524C30.9097 71.9524 29.7017 73.1603 29.7017 74.6504C29.7017 76.1404 28.4938 77.3483 27.0038 77.3483L20.415 77.3483C15.294 77.3483 11.1394 73.2028 11.1283 68.0818Z" fill="#FDFFF5"/>
</mask>
<g mask="url(#mask0_291_3052)">
<g filter="url(#filter1_f_291_3052)">
<circle cx="110.86" cy="9.44383" r="19.9719" fill="#E5A224"/>
</g>
<g filter="url(#filter2_f_291_3052)">
<circle cx="243.118" cy="64.4775" r="19.9719" fill="#E5A224"/>
</g>
</g>
<path d="M306.688 16.0458L306.538 16.0514L306.838 16.0514L306.688 16.0458ZM306.795 13.1852L306.645 13.1796L306.795 13.1852ZM306.582 13.1852L306.731 13.1796V13.1796L306.582 13.1852ZM303.338 9.96756L303.343 9.81766L303.338 9.96756ZM300.371 9.85995L300.365 9.71005V10.0099L300.371 9.85995ZM303.338 9.75234L303.343 9.90224L303.338 9.75234ZM305.347 9L305.441 9.11646L305.769 8.85H305.347V9ZM68.7664 9V8.85H68.6107L68.6165 9.0056L68.7664 9ZM68.8077 10.1054L68.9576 10.0998V10.0998L68.8077 10.1054ZM71.0678 12.3472L71.0624 12.4971L71.0678 12.3472ZM73.1348 12.4222L73.1402 12.5721V12.2723L73.1348 12.4222ZM71.0678 12.4972L71.0624 12.3473L71.0678 12.4972ZM68.8077 14.739L68.9576 14.7446V14.7446L68.8077 14.739ZM68.7333 16.732L68.5834 16.7376H68.8832L68.7333 16.732ZM68.6588 14.739L68.8087 14.7334L68.6588 14.739ZM66.3987 12.4972L66.4042 12.3473L66.3987 12.4972ZM64.3317 12.4222L64.3263 12.2723V12.5721L64.3317 12.4222ZM66.3987 12.3472L66.3933 12.1973L66.3987 12.3472ZM68.6588 10.1054L68.8087 10.111V10.111L68.6588 10.1054ZM68.7001 9L68.85 9.0056L68.8558 8.85H68.7001V9ZM42.92 14.3959V14.5459V14.3959ZM11.0203 18.361L10.8703 18.3613L11.0203 18.361ZM11.1283 68.0818L10.9783 68.0821L11.1283 68.0818ZM20.415 77.3483V77.1983V77.3483ZM27.0038 77.3483V77.4983V77.3483ZM32.3997 71.9524V72.1024V71.9524ZM42.92 71.9524V71.8024V71.9524ZM161.994 77.3483V77.4983H162.198L162.137 77.3039L161.994 77.3483ZM155.002 72.0131L155.008 71.8632L155.002 72.0131ZM148.303 71.769L148.297 71.6191V71.9189L148.303 71.769ZM155.002 71.5249L155.008 71.6749L155.002 71.5249ZM162.328 64.2267L162.178 64.2211L162.328 64.2267ZM162.569 57.7382L162.719 57.7327H162.419L162.569 57.7382ZM162.81 64.2267L162.96 64.2211L162.81 64.2267ZM170.136 71.5249L170.142 71.375L170.136 71.5249ZM176.836 71.769L176.841 71.9189V71.6191L176.836 71.769ZM170.136 72.0131L170.131 71.8632L170.136 72.0131ZM163.144 77.3483L163.001 77.3039L162.941 77.4983H163.144V77.3483ZM326.967 62.3157L327.117 62.3154L326.967 62.3157ZM326.889 26.3748L327.039 26.3745L327.039 26.2193L326.884 26.2249L326.889 26.3748ZM324.743 26.453L324.737 26.3031L324.743 26.453ZM316.565 34.5998L316.715 34.6054L316.565 34.5998ZM316.296 41.8427L316.146 41.8482H316.446L316.296 41.8427ZM316.027 34.5998L316.177 34.5942L316.027 34.5998ZM307.849 26.453L307.855 26.3031L307.849 26.453ZM300.371 26.1805L300.365 26.0306V26.3305L300.371 26.1805ZM307.849 25.9081L307.855 26.058L307.849 25.9081ZM316.027 17.7613L316.177 17.7669L316.027 17.7613ZM316.296 10.5184L316.446 10.5129L316.146 10.5129L316.296 10.5184ZM316.565 17.7613L316.715 17.7557L316.565 17.7613ZM324.743 25.9081L324.737 26.058L324.743 25.9081ZM326.888 25.9863L326.883 26.1362L327.039 26.1418L327.038 25.9859L326.888 25.9863ZM326.884 23.9674L326.734 23.9677L326.884 23.9674ZM308.03 9V8.85H307.607L307.935 9.11646L308.03 9ZM310.039 9.75234L310.034 9.90224L310.039 9.75234ZM313.006 9.85995L313.011 10.0099V9.71005L313.006 9.85995ZM310.039 9.96756L310.034 9.81766L310.039 9.96756ZM171.176 62.6899L171.026 62.6955H171.326L171.176 62.6899ZM171.081 60.1273L170.931 60.1329L171.081 60.1273ZM171.272 60.1273L171.422 60.1329L171.272 60.1273ZM174.178 57.2448L174.173 57.0949L174.178 57.2448ZM176.836 57.1484L176.841 57.2983V56.9985L176.836 57.1484ZM174.178 57.052L174.183 56.9021L174.178 57.052ZM171.272 54.1695L171.422 54.1639L171.272 54.1695ZM171.176 51.6068L171.326 51.6012H171.026L171.176 51.6068ZM171.081 54.1695L170.931 54.1639L171.081 54.1695ZM168.174 57.052L168.169 56.9021L168.174 57.052ZM165.517 57.1484L165.511 56.9985V57.2983L165.517 57.1484ZM168.174 57.2448L168.18 57.0949L168.174 57.2448ZM61.8517 29.659L62.0016 29.6534L61.8517 29.659ZM62.0393 34.7052L61.8894 34.7108H62.1892L62.0393 34.7052ZM56.1543 23.9829L56.1488 24.1328L56.1543 23.9829ZM50.9438 23.7931L50.9383 23.6432V23.943L50.9438 23.7931ZM56.1543 23.6033L56.1488 23.4534L56.1543 23.6033ZM61.8517 17.9272L61.7018 17.9217L61.8517 17.9272ZM62.0393 12.881L62.1892 12.8754H61.8894L62.0393 12.881ZM62.2269 17.9272L62.077 17.9328L62.2269 17.9272ZM67.9243 23.6033L67.9298 23.4534L67.9243 23.6033ZM73.1348 23.7931L73.1403 23.943V23.6432L73.1348 23.7931ZM67.9243 23.9829L67.9298 24.1328L67.9243 23.9829ZM62.2269 29.659L62.3768 29.6646L62.2269 29.659ZM306.838 16.0514L306.945 13.1908L306.645 13.1796L306.538 16.0402L306.838 16.0514ZM306.432 13.1908L306.538 16.0514L306.838 16.0402L306.731 13.1796L306.432 13.1908ZM303.332 10.1175C305.018 10.1786 306.369 11.5202 306.432 13.1908L306.731 13.1796C306.663 11.35 305.184 9.88444 303.343 9.81766L303.332 10.1175ZM300.365 10.0099L303.332 10.1175L303.343 9.81766L300.376 9.71005L300.365 10.0099ZM303.332 9.60244L300.365 9.71005L300.376 10.0099L303.343 9.90224L303.332 9.60244ZM305.252 8.88354C304.726 9.31091 304.06 9.57603 303.332 9.60244L303.343 9.90224C304.138 9.8734 304.866 9.58365 305.441 9.11646L305.252 8.88354ZM305.347 8.85H68.7664V9.15H305.347V8.85ZM68.6165 9.0056L68.6578 10.111L68.9576 10.0998L68.9163 8.9944L68.6165 9.0056ZM68.6578 10.111C68.7063 11.4098 69.7561 12.4497 71.0624 12.4971L71.0733 12.1973C69.9221 12.1556 69.0002 11.2397 68.9576 10.0998L68.6578 10.111ZM71.0624 12.4971L73.1294 12.5721L73.1402 12.2723L71.0733 12.1973L71.0624 12.4971ZM73.1294 12.2723L71.0624 12.3473L71.0733 12.6471L73.1402 12.5721L73.1294 12.2723ZM71.0624 12.3473C69.7561 12.3946 68.7063 13.4346 68.6578 14.7334L68.9576 14.7446C69.0002 13.6047 69.9221 12.6888 71.0733 12.6471L71.0624 12.3473ZM68.6578 14.7334L68.5834 16.7264L68.8832 16.7376L68.9576 14.7446L68.6578 14.7334ZM68.8832 16.7264L68.8087 14.7334L68.5089 14.7446L68.5834 16.7376L68.8832 16.7264ZM68.8087 14.7334C68.7602 13.4346 67.7104 12.3946 66.4042 12.3473L66.3933 12.6471C67.5444 12.6888 68.4664 13.6047 68.5089 14.7446L68.8087 14.7334ZM66.4042 12.3473L64.3372 12.2723L64.3263 12.5721L66.3933 12.6471L66.4042 12.3473ZM64.3372 12.5721L66.4041 12.4971L66.3933 12.1973L64.3263 12.2723L64.3372 12.5721ZM66.4041 12.4971C67.7104 12.4497 68.7602 11.4098 68.8087 10.111L68.5089 10.0998C68.4664 11.2397 67.5444 12.1556 66.3933 12.1973L66.4041 12.4971ZM68.8087 10.111L68.85 9.0056L68.5502 8.9944L68.5089 10.0998L68.8087 10.111ZM68.7001 8.85H48.3159V9.15H68.7001V8.85ZM48.3159 8.85C46.7431 8.85 45.468 10.1251 45.468 11.698H45.768C45.768 10.2908 46.9087 9.15 48.3159 9.15V8.85ZM45.468 11.698C45.468 13.1052 44.3272 14.2459 42.92 14.2459V14.5459C44.4929 14.5459 45.768 13.2708 45.768 11.698H45.468ZM42.92 14.2459H32.3997V14.5459H42.92V14.2459ZM32.3997 14.2459C30.9925 14.2459 29.8517 13.1052 29.8517 11.698H29.5517C29.5517 13.2708 30.8268 14.5459 32.3997 14.5459V14.2459ZM29.8517 11.698C29.8517 10.1251 28.5767 8.85 27.0038 8.85V9.15C28.411 9.15 29.5517 10.2908 29.5517 11.698H29.8517ZM27.0038 8.85H20.361V9.15H27.0038V8.85ZM20.361 8.85C15.1114 8.85 10.8589 13.1117 10.8703 18.3613L11.1703 18.3607C11.1593 13.277 15.2773 9.15 20.361 9.15V8.85ZM10.8703 18.3613L10.9783 68.0821L11.2783 68.0814L11.1703 18.3607L10.8703 18.3613ZM10.9783 68.0821C10.9896 73.2858 15.2112 77.4983 20.415 77.4983V77.1983C15.3767 77.1983 11.2892 73.1197 11.2783 68.0814L10.9783 68.0821ZM20.415 77.4983L27.0038 77.4983V77.1983L20.415 77.1983V77.4983ZM27.0038 77.4983C28.5766 77.4983 29.8517 76.2232 29.8517 74.6504H29.5517C29.5517 76.0576 28.411 77.1983 27.0038 77.1983V77.4983ZM29.8517 74.6504C29.8517 73.2431 30.9925 72.1024 32.3997 72.1024V71.8024C30.8268 71.8024 29.5517 73.0775 29.5517 74.6504H29.8517ZM32.3997 72.1024L42.92 72.1024V71.8024L32.3997 71.8024V72.1024ZM42.92 72.1024C44.3272 72.1024 45.468 73.2431 45.468 74.6504H45.768C45.768 73.0775 44.4929 71.8024 42.92 71.8024V72.1024ZM45.468 74.6504C45.468 76.2232 46.743 77.4983 48.3159 77.4983V77.1983C46.9087 77.1983 45.768 76.0576 45.768 74.6504H45.468ZM48.3159 77.4983H161.994V77.1983H48.3159V77.4983ZM162.137 77.3039C161.185 74.2344 158.372 71.9858 155.008 71.8632L154.997 72.163C158.231 72.2808 160.935 74.4426 161.851 77.3928L162.137 77.3039ZM155.008 71.8632L148.308 71.6191L148.297 71.9189L154.997 72.163L155.008 71.8632ZM148.308 71.9189L155.008 71.6749L154.997 71.375L148.297 71.6191L148.308 71.9189ZM155.008 71.6749C159.068 71.5269 162.327 68.2808 162.478 64.2323L162.178 64.2211C162.033 68.1118 158.901 71.2328 154.997 71.375L155.008 71.6749ZM162.478 64.2323L162.719 57.7438L162.419 57.7327L162.178 64.2211L162.478 64.2323ZM162.419 57.7438L162.66 64.2323L162.96 64.2211L162.719 57.7327L162.419 57.7438ZM162.66 64.2323C162.811 68.2808 166.07 71.5269 170.131 71.6749L170.142 71.375C166.237 71.2328 163.105 68.1118 162.96 64.2211L162.66 64.2323ZM170.131 71.6749L176.83 71.9189L176.841 71.6191L170.142 71.375L170.131 71.6749ZM176.83 71.6191L170.131 71.8632L170.142 72.163L176.841 71.9189L176.83 71.6191ZM170.131 71.8632C166.767 71.9858 163.953 74.2344 163.001 77.3039L163.288 77.3928C164.203 74.4426 166.907 72.2808 170.142 72.163L170.131 71.8632ZM163.144 77.4983H311.967V77.1983H163.144V77.4983ZM311.967 77.4983C320.347 77.4983 327.136 70.6954 327.117 62.3154L326.817 62.3161C326.835 70.5301 320.181 77.1983 311.967 77.1983V77.4983ZM327.117 62.3154L327.039 26.3745L326.739 26.3751L326.817 62.3161L327.117 62.3154ZM326.884 26.2249L324.737 26.3031L324.748 26.6029L326.895 26.5247L326.884 26.2249ZM324.737 26.3031C320.214 26.4679 316.583 30.0842 316.416 34.5942L316.715 34.6054C316.877 30.2532 320.381 26.762 324.748 26.6029L324.737 26.3031ZM316.416 34.5942L316.146 41.8371L316.446 41.8482L316.715 34.6054L316.416 34.5942ZM316.446 41.8371L316.177 34.5942L315.877 34.6054L316.146 41.8482L316.446 41.8371ZM316.177 34.5942C316.009 30.0842 312.379 26.4679 307.855 26.3031L307.844 26.6029C312.211 26.762 315.715 30.2532 315.877 34.6054L316.177 34.5942ZM307.855 26.3031L300.376 26.0306L300.365 26.3305L307.844 26.6029L307.855 26.3031ZM300.376 26.3305L307.855 26.058L307.844 25.7582L300.365 26.0306L300.376 26.3305ZM307.855 26.058C312.379 25.8932 316.009 22.2769 316.177 17.7669L315.877 17.7557C315.715 22.1079 312.211 25.5991 307.844 25.7582L307.855 26.058ZM316.177 17.7669L316.446 10.524L316.146 10.5129L315.877 17.7557L316.177 17.7669ZM316.146 10.524L316.416 17.7669L316.715 17.7557L316.446 10.5129L316.146 10.524ZM316.416 17.7669C316.583 22.2769 320.214 25.8932 324.737 26.058L324.748 25.7582C320.381 25.5991 316.877 22.1079 316.715 17.7557L316.416 17.7669ZM324.737 26.058L326.883 26.1362L326.894 25.8364L324.748 25.7582L324.737 26.058ZM327.038 25.9859L327.034 23.9671L326.734 23.9677L326.738 25.9866L327.038 25.9859ZM327.034 23.9671C327.016 15.6128 320.238 8.85 311.884 8.85V9.15C320.073 9.15 326.716 15.7789 326.734 23.9677L327.034 23.9671ZM311.884 8.85H308.03V9.15H311.884V8.85ZM310.045 9.60244C309.316 9.57603 308.651 9.31091 308.125 8.88354L307.935 9.11646C308.511 9.58365 309.239 9.8734 310.034 9.90224L310.045 9.60244ZM313.011 9.71005L310.045 9.60244L310.034 9.90224L313 10.0099L313.011 9.71005ZM310.045 10.1175L313.011 10.0099L313 9.71005L310.034 9.81766L310.045 10.1175ZM306.945 13.1908C307.007 11.5202 308.359 10.1786 310.045 10.1175L310.034 9.81766C308.193 9.88444 306.714 11.35 306.645 13.1796L306.945 13.1908ZM171.326 62.6844L171.23 60.1217L170.931 60.1329L171.026 62.6955L171.326 62.6844ZM171.122 60.1217L171.026 62.6844L171.326 62.6955L171.422 60.1329L171.122 60.1217ZM174.173 57.0949C172.515 57.155 171.184 58.4744 171.122 60.1217L171.422 60.1329C171.477 58.6445 172.681 57.4492 174.183 57.3947L174.173 57.0949ZM176.83 56.9985L174.173 57.0949L174.183 57.3947L176.841 57.2983L176.83 56.9985ZM174.173 57.2019L176.83 57.2983L176.841 56.9985L174.183 56.9021L174.173 57.2019ZM171.122 54.1751C171.184 55.8224 172.515 57.1418 174.173 57.2019L174.183 56.9021C172.681 56.8476 171.477 55.6522 171.422 54.1639L171.122 54.1751ZM171.026 51.6124L171.122 54.1751L171.422 54.1639L171.326 51.6012L171.026 51.6124ZM171.23 54.1751L171.326 51.6124L171.026 51.6012L170.931 54.1639L171.23 54.1751ZM168.18 57.2019C169.837 57.1418 171.169 55.8224 171.23 54.1751L170.931 54.1639C170.875 55.6522 169.671 56.8476 168.169 56.9021L168.18 57.2019ZM165.522 57.2983L168.18 57.2019L168.169 56.9021L165.511 56.9985L165.522 57.2983ZM168.18 57.0949L165.522 56.9985L165.511 57.2983L168.169 57.3947L168.18 57.0949ZM171.23 60.1217C171.169 58.4744 169.837 57.155 168.18 57.0949L168.169 57.3947C169.671 57.4492 170.875 58.6445 170.931 60.1329L171.23 60.1217ZM61.7018 29.6646L61.8894 34.7108L62.1892 34.6996L62.0016 29.6534L61.7018 29.6646ZM56.1488 24.1328C59.1681 24.2428 61.5899 26.6562 61.7018 29.6646L62.0016 29.6534C61.8838 26.4872 59.3352 23.9487 56.1597 23.833L56.1488 24.1328ZM50.9383 23.943L56.1488 24.1328L56.1597 23.833L50.9492 23.6432L50.9383 23.943ZM56.1488 23.4534L50.9383 23.6432L50.9492 23.943L56.1597 23.7532L56.1488 23.4534ZM61.7018 17.9217C61.5899 20.93 59.1681 23.3434 56.1488 23.4534L56.1597 23.7532C59.3352 23.6375 61.8838 21.099 62.0016 17.9328L61.7018 17.9217ZM61.8894 12.8754L61.7018 17.9217L62.0016 17.9328L62.1892 12.8866L61.8894 12.8754ZM62.3768 17.9217L62.1892 12.8754L61.8894 12.8866L62.077 17.9328L62.3768 17.9217ZM67.9298 23.4534C64.9105 23.3434 62.4887 20.93 62.3768 17.9217L62.077 17.9328C62.1948 21.099 64.7434 23.6375 67.9189 23.7532L67.9298 23.4534ZM73.1403 23.6432L67.9298 23.4534L67.9189 23.7532L73.1293 23.943L73.1403 23.6432ZM67.9298 24.1328L73.1403 23.943L73.1293 23.6432L67.9189 23.833L67.9298 24.1328ZM62.3768 29.6646C62.4887 26.6562 64.9105 24.2428 67.9298 24.1328L67.9189 23.833C64.7434 23.9487 62.1948 26.4872 62.077 29.6534L62.3768 29.6646ZM62.1892 34.7108L62.3768 29.6646L62.077 29.6534L61.8894 34.6996L62.1892 34.7108Z" fill="black"/>
<defs>
<filter id="filter0_d_291_3052" x="0.770309" y="0.75" width="336.447" height="88.8483" filterUnits="userSpaceOnUse" color-interpolation-filters="sRGB">
<feFlood flood-opacity="0" result="BackgroundImageFix"/>
<feColorMatrix in="SourceAlpha" type="matrix" values="0 0 0 0 0 0 0 0 0 0 0 0 0 0 0 0 0 0 127 0" result="hardAlpha"/>
<feOffset dy="2"/>
<feGaussianBlur stdDeviation="5"/>
<feComposite in2="hardAlpha" operator="out"/>
<feColorMatrix type="matrix" values="0 0 0 0 0.898039 0 0 0 0 0.635294 0 0 0 0 0.141176 0 0 0 0.25 0"/>
<feBlend mode="normal" in2="BackgroundImageFix" result="effect1_dropShadow_291_3052"/>
<feBlend mode="normal" in="SourceGraphic" in2="effect1_dropShadow_291_3052" result="shape"/>
</filter>
<filter id="filter1_f_291_3052" x="15.8876" y="-85.5281" width="189.944" height="189.944" filterUnits="userSpaceOnUse" color-interpolation-filters="sRGB">
<feFlood flood-opacity="0" result="BackgroundImageFix"/>
<feBlend mode="normal" in="SourceGraphic" in2="BackgroundImageFix" result="shape"/>
<feGaussianBlur stdDeviation="37.5" result="effect1_foregroundBlur_291_3052"/>
</filter>
<filter id="filter2_f_291_3052" x="148.146" y="-30.4944" width="189.944" height="189.944" filterUnits="userSpaceOnUse" color-interpolation-filters="sRGB">
<feFlood flood-opacity="0" result="BackgroundImageFix"/>
<feBlend mode="normal" in="SourceGraphic" in2="BackgroundImageFix" result="shape"/>
<feGaussianBlur stdDeviation="37.5" result="effect1_foregroundBlur_291_3052"/>
</filter>
</defs>
</svg>
