<svg width="338" height="84" viewBox="0 0 338 84" fill="none" xmlns="http://www.w3.org/2000/svg">
<g filter="url(#filter0_d_291_3079)">
<path d="M11.1262 61.7345L11.0224 18.362C11.01 13.1952 15.1952 9 20.3621 9H27.2544C28.606 9 29.7017 10.0957 29.7017 11.4474C29.7017 12.799 30.7975 13.8947 32.1491 13.8947H43.1706C44.5223 13.8947 45.618 12.799 45.618 11.4474C45.618 10.0957 46.7137 9 48.0653 9H311.887C320.158 9 326.868 15.6939 326.887 23.9641L326.964 55.9641C326.984 64.2624 320.262 71 311.964 71L48.0653 71C46.7137 71 45.618 69.9043 45.618 68.5526C45.618 67.201 44.5223 66.1053 43.1706 66.1053H32.1491C30.7975 66.1053 29.7017 67.201 29.7017 68.5526C29.7017 69.9043 28.606 71 27.2544 71L20.414 71C15.2932 71 11.1385 66.8553 11.1262 61.7345Z" fill="#FDFFF5"/>
<path d="M11.1262 61.7345L11.0224 18.362C11.01 13.1952 15.1952 9 20.3621 9H27.2544C28.606 9 29.7017 10.0957 29.7017 11.4474C29.7017 12.799 30.7975 13.8947 32.1491 13.8947H43.1706C44.5223 13.8947 45.618 12.799 45.618 11.4474C45.618 10.0957 46.7137 9 48.0653 9H311.887C320.158 9 326.868 15.6939 326.887 23.9641L326.964 55.9641C326.984 64.2624 320.262 71 311.964 71L48.0653 71C46.7137 71 45.618 69.9043 45.618 68.5526C45.618 67.201 44.5223 66.1053 43.1706 66.1053H32.1491C30.7975 66.1053 29.7017 67.201 29.7017 68.5526C29.7017 69.9043 28.606 71 27.2544 71L20.414 71C15.2932 71 11.1385 66.8553 11.1262 61.7345Z" stroke="#535353" stroke-width="0.5"/>
</g>
<mask id="mask0_291_3079" style="mask-type:alpha" maskUnits="userSpaceOnUse" x="11" y="9" width="316" height="62">
<path d="M11.1262 61.7345L11.0224 18.362C11.01 13.1952 15.1952 9 20.3621 9H27.2544C28.606 9 29.7017 10.0957 29.7017 11.4474C29.7017 12.799 30.7975 13.8947 32.1491 13.8947H43.1706C44.5223 13.8947 45.618 12.799 45.618 11.4474C45.618 10.0957 46.7137 9 48.0653 9H311.887C320.158 9 326.868 15.6939 326.887 23.9641L326.964 55.9641C326.984 64.2624 320.262 71 311.964 71L48.0653 71C46.7137 71 45.618 69.9043 45.618 68.5526C45.618 67.201 44.5223 66.1053 43.1706 66.1053H32.1491C30.7975 66.1053 29.7017 67.201 29.7017 68.5526C29.7017 69.9043 28.606 71 27.2544 71L20.414 71C15.2932 71 11.1385 66.8553 11.1262 61.7345Z" fill="#FDFFF5"/>
</mask>
<g mask="url(#mask0_291_3079)">
<g filter="url(#filter1_f_291_3079)">
<circle cx="110.86" cy="9.44383" r="19.9719" fill="#535353"/>
</g>
<g filter="url(#filter2_f_291_3079)">
<circle cx="243.118" cy="64.4775" r="19.9719" fill="#535353"/>
</g>
</g>
<path d="M306.688 16.0458L306.538 16.0514L306.838 16.0514L306.688 16.0458ZM306.795 13.1852L306.645 13.1796L306.795 13.1852ZM306.582 13.1852L306.731 13.1796V13.1796L306.582 13.1852ZM303.338 9.96756L303.343 9.81766L303.338 9.96756ZM300.371 9.85995L300.365 9.71005V10.0099L300.371 9.85995ZM303.338 9.75234L303.343 9.90224L303.338 9.75234ZM305.347 9L305.441 9.11646L305.769 8.85H305.347V9ZM68.7664 9V8.85H68.6107L68.6165 9.0056L68.7664 9ZM68.8077 10.1054L68.9576 10.0998V10.0998L68.8077 10.1054ZM71.0678 12.3472L71.0624 12.4971L71.0678 12.3472ZM73.1348 12.4222L73.1402 12.5721V12.2723L73.1348 12.4222ZM71.0678 12.4972L71.0624 12.3473L71.0678 12.4972ZM68.8077 14.739L68.9576 14.7446V14.7446L68.8077 14.739ZM68.7333 16.732L68.5834 16.7376H68.8832L68.7333 16.732ZM68.6588 14.739L68.8087 14.7334L68.6588 14.739ZM66.3987 12.4972L66.4042 12.3473L66.3987 12.4972ZM64.3318 12.4222L64.3263 12.2723V12.5721L64.3318 12.4222ZM66.3987 12.3472L66.3933 12.1973L66.3987 12.3472ZM68.6588 10.1054L68.8087 10.111V10.111L68.6588 10.1054ZM68.7001 9L68.85 9.0056L68.8558 8.85H68.7001V9ZM43.1706 13.8947V14.0447V13.8947ZM11.0224 18.362L11.1724 18.3617L11.0224 18.362ZM11.1262 61.7345L10.9762 61.7348L11.1262 61.7345ZM20.414 71V70.85V71ZM27.2544 71V71.15V71ZM43.1706 66.1053V66.2553V66.1053ZM162.391 71V71.15H162.546L162.541 70.9944L162.391 71ZM162.328 69.3113L162.178 69.3169L162.328 69.3113ZM155.002 62.013L155.008 61.8631L155.002 62.013ZM148.303 61.769L148.297 61.6191V61.9189L148.303 61.769ZM155.002 61.5249L155.008 61.6748L155.002 61.5249ZM162.328 54.2266L162.178 54.2211L162.328 54.2266ZM162.569 47.7382L162.719 47.7326H162.419L162.569 47.7382ZM162.81 54.2266L162.96 54.2211L162.81 54.2266ZM170.136 61.5249L170.142 61.375L170.136 61.5249ZM176.836 61.769L176.841 61.9189V61.6191L176.836 61.769ZM170.136 62.0131L170.131 61.8631L170.136 62.0131ZM162.81 69.3113L162.96 69.3169L162.81 69.3113ZM162.748 71L162.598 70.9944L162.592 71.15H162.748V71ZM311.964 71V70.85V71ZM326.964 55.9641L326.814 55.9644L326.964 55.9641ZM326.893 26.3747L327.043 26.3743L327.043 26.2191L326.888 26.2248L326.893 26.3747ZM324.743 26.453L324.737 26.3031L324.743 26.453ZM316.565 34.5998L316.715 34.6054L316.565 34.5998ZM316.296 41.8427L316.146 41.8482H316.446L316.296 41.8427ZM316.027 34.5998L316.177 34.5942L316.027 34.5998ZM307.849 26.453L307.855 26.3031L307.849 26.453ZM300.371 26.1805L300.365 26.0306V26.3305L300.371 26.1805ZM307.849 25.9081L307.855 26.058L307.849 25.9081ZM316.027 17.7613L316.177 17.7669L316.027 17.7613ZM316.296 10.5184L316.446 10.5129L316.146 10.5129L316.296 10.5184ZM316.565 17.7613L316.715 17.7557L316.565 17.7613ZM324.743 25.9081L324.737 26.058L324.743 25.9081ZM326.892 25.9864L326.887 26.1363L327.043 26.142L327.042 25.986L326.892 25.9864ZM326.887 23.9641L326.737 23.9645L326.887 23.9641ZM308.03 9V8.85H307.607L307.935 9.11646L308.03 9ZM310.039 9.75234L310.034 9.90224L310.039 9.75234ZM313.006 9.85995L313.011 10.0099V9.71005L313.006 9.85995ZM310.039 9.96756L310.034 9.81766L310.039 9.96756ZM171.176 52.6899L171.026 52.6955H171.326L171.176 52.6899ZM171.081 50.1272L170.931 50.1328L171.081 50.1272ZM171.272 50.1272L171.422 50.1328L171.272 50.1272ZM174.178 47.2447L174.173 47.0948L174.178 47.2447ZM176.836 47.1483L176.841 47.2982V46.9984L176.836 47.1483ZM174.178 47.0519L174.183 46.902L174.178 47.0519ZM171.272 44.1694L171.422 44.1638L171.272 44.1694ZM171.176 41.6068L171.326 41.6012H171.026L171.176 41.6068ZM171.081 44.1694L170.931 44.1638L171.081 44.1694ZM168.174 47.0519L168.169 46.902L168.174 47.0519ZM165.517 47.1483L165.511 46.9984V47.2982L165.517 47.1483ZM168.174 47.2447L168.18 47.0948L168.174 47.2447ZM61.8517 29.659L62.0016 29.6534L61.8517 29.659ZM62.0393 34.7052L61.8894 34.7108H62.1892L62.0393 34.7052ZM56.1543 23.9829L56.1488 24.1328L56.1543 23.9829ZM50.9438 23.7931L50.9383 23.6432V23.943L50.9438 23.7931ZM56.1543 23.6033L56.1488 23.4534L56.1543 23.6033ZM61.8517 17.9272L61.7018 17.9217L61.8517 17.9272ZM62.0393 12.881L62.1892 12.8754H61.8894L62.0393 12.881ZM62.2269 17.9272L62.077 17.9328L62.2269 17.9272ZM67.9243 23.6033L67.9298 23.4534L67.9243 23.6033ZM73.1348 23.7931L73.1403 23.943V23.6432L73.1348 23.7931ZM67.9243 23.9829L67.9298 24.1328L67.9243 23.9829ZM62.2269 29.659L62.3768 29.6646L62.2269 29.659ZM306.838 16.0514L306.945 13.1908L306.645 13.1796L306.538 16.0402L306.838 16.0514ZM306.432 13.1908L306.538 16.0514L306.838 16.0402L306.731 13.1796L306.432 13.1908ZM303.332 10.1175C305.018 10.1786 306.369 11.5202 306.432 13.1908L306.731 13.1796C306.663 11.35 305.184 9.88444 303.343 9.81766L303.332 10.1175ZM300.365 10.0099L303.332 10.1175L303.343 9.81766L300.376 9.71005L300.365 10.0099ZM303.332 9.60244L300.365 9.71005L300.376 10.0099L303.343 9.90224L303.332 9.60244ZM305.252 8.88354C304.726 9.31091 304.06 9.57603 303.332 9.60244L303.343 9.90224C304.138 9.8734 304.866 9.58365 305.441 9.11646L305.252 8.88354ZM305.347 8.85H68.7664V9.15H305.347V8.85ZM68.6165 9.0056L68.6578 10.111L68.9576 10.0998L68.9163 8.9944L68.6165 9.0056ZM68.6578 10.111C68.7063 11.4098 69.7561 12.4497 71.0624 12.4971L71.0733 12.1973C69.9221 12.1556 69.0002 11.2397 68.9576 10.0998L68.6578 10.111ZM71.0624 12.4971L73.1294 12.5721L73.1402 12.2723L71.0733 12.1973L71.0624 12.4971ZM73.1294 12.2723L71.0624 12.3473L71.0733 12.6471L73.1402 12.5721L73.1294 12.2723ZM71.0624 12.3473C69.7561 12.3946 68.7063 13.4346 68.6578 14.7334L68.9576 14.7446C69.0002 13.6047 69.9221 12.6888 71.0733 12.6471L71.0624 12.3473ZM68.6578 14.7334L68.5834 16.7264L68.8832 16.7376L68.9576 14.7446L68.6578 14.7334ZM68.8832 16.7264L68.8087 14.7334L68.5089 14.7446L68.5834 16.7376L68.8832 16.7264ZM68.8087 14.7334C68.7602 13.4346 67.7104 12.3946 66.4042 12.3473L66.3933 12.6471C67.5444 12.6888 68.4664 13.6047 68.5089 14.7446L68.8087 14.7334ZM66.4042 12.3473L64.3372 12.2723L64.3263 12.5721L66.3933 12.6471L66.4042 12.3473ZM64.3372 12.5721L66.4042 12.4971L66.3933 12.1973L64.3263 12.2723L64.3372 12.5721ZM66.4042 12.4971C67.7104 12.4497 68.7602 11.4098 68.8087 10.111L68.5089 10.0998C68.4664 11.2397 67.5444 12.1556 66.3933 12.1973L66.4042 12.4971ZM68.8087 10.111L68.85 9.0056L68.5502 8.9944L68.5089 10.0998L68.8087 10.111ZM68.7001 8.85H48.0653V9.15H68.7001V8.85ZM48.0653 8.85C46.6308 8.85 45.468 10.0129 45.468 11.4474H45.768C45.768 10.1786 46.7965 9.15 48.0653 9.15V8.85ZM45.468 11.4474C45.468 12.7162 44.4394 13.7447 43.1706 13.7447V14.0447C44.6051 14.0447 45.768 12.8819 45.768 11.4474H45.468ZM43.1706 13.7447H32.1491V14.0447H43.1706V13.7447ZM32.1491 13.7447C30.8803 13.7447 29.8517 12.7162 29.8517 11.4474H29.5517C29.5517 12.8819 30.7146 14.0447 32.1491 14.0447V13.7447ZM29.8517 11.4474C29.8517 10.0129 28.6888 8.85 27.2544 8.85V9.15C28.5232 9.15 29.5517 10.1786 29.5517 11.4474H29.8517ZM27.2544 8.85H20.3621V9.15H27.2544V8.85ZM20.3621 8.85C15.1122 8.85 10.8598 13.1125 10.8724 18.3624L11.1724 18.3617C11.1602 13.2778 15.2781 9.15 20.3621 9.15V8.85ZM10.8724 18.3624L10.9762 61.7348L11.2762 61.7341L11.1724 18.3617L10.8724 18.3624ZM10.9762 61.7348C10.9887 66.9383 15.2105 71.15 20.414 71.15V70.85C15.3759 70.85 11.2883 66.7722 11.2762 61.7341L10.9762 61.7348ZM20.414 71.15L27.2544 71.15V70.85L20.414 70.85V71.15ZM27.2544 71.15C28.6888 71.15 29.8517 69.9871 29.8517 68.5526H29.5517C29.5517 69.8214 28.5232 70.85 27.2544 70.85V71.15ZM29.8517 68.5526C29.8517 67.2838 30.8803 66.2553 32.1491 66.2553V65.9553C30.7146 65.9553 29.5517 67.1181 29.5517 68.5526H29.8517ZM32.1491 66.2553H43.1706V65.9553H32.1491V66.2553ZM43.1706 66.2553C44.4394 66.2553 45.468 67.2838 45.468 68.5526H45.768C45.768 67.1181 44.6051 65.9553 43.1706 65.9553V66.2553ZM45.468 68.5526C45.468 69.9871 46.6309 71.15 48.0653 71.15V70.85C46.7965 70.85 45.768 69.8214 45.768 68.5526H45.468ZM48.0653 71.15H162.391V70.85H48.0653V71.15ZM162.541 70.9944L162.478 69.3057L162.178 69.3169L162.241 71.0056L162.541 70.9944ZM162.478 69.3057C162.327 65.2572 159.068 62.0111 155.008 61.8631L154.997 62.1629C158.901 62.3052 162.033 65.4262 162.178 69.3169L162.478 69.3057ZM155.008 61.8631L148.308 61.6191L148.297 61.9189L154.997 62.1629L155.008 61.8631ZM148.308 61.9189L155.008 61.6748L154.997 61.375L148.297 61.6191L148.308 61.9189ZM155.008 61.6748C159.068 61.5269 162.327 58.2807 162.478 54.2322L162.178 54.2211C162.033 58.1118 158.901 61.2327 154.997 61.375L155.008 61.6748ZM162.478 54.2322L162.719 47.7438L162.419 47.7326L162.178 54.2211L162.478 54.2322ZM162.419 47.7438L162.66 54.2322L162.96 54.2211L162.719 47.7326L162.419 47.7438ZM162.66 54.2322C162.811 58.2807 166.07 61.5269 170.131 61.6748L170.142 61.375C166.237 61.2327 163.105 58.1118 162.96 54.2211L162.66 54.2322ZM170.131 61.6748L176.83 61.9189L176.841 61.6191L170.142 61.375L170.131 61.6748ZM176.83 61.6191L170.131 61.8631L170.142 62.163L176.841 61.9189L176.83 61.6191ZM170.131 61.8631C166.07 62.0111 162.811 65.2572 162.66 69.3057L162.96 69.3169C163.105 65.4262 166.237 62.3052 170.142 62.163L170.131 61.8631ZM162.66 69.3057L162.598 70.9944L162.897 71.0056L162.96 69.3169L162.66 69.3057ZM162.748 71.15L311.964 71.15V70.85L162.748 70.85V71.15ZM311.964 71.15C320.345 71.15 327.134 64.345 327.114 55.9637L326.814 55.9644C326.834 64.1797 320.179 70.85 311.964 70.85V71.15ZM327.114 55.9637L327.043 26.3743L326.743 26.375L326.814 55.9644L327.114 55.9637ZM326.888 26.2248L324.737 26.3031L324.748 26.6029L326.899 26.5246L326.888 26.2248ZM324.737 26.3031C320.214 26.4679 316.583 30.0842 316.416 34.5942L316.715 34.6054C316.877 30.2532 320.381 26.762 324.748 26.6029L324.737 26.3031ZM316.416 34.5942L316.146 41.8371L316.446 41.8482L316.715 34.6054L316.416 34.5942ZM316.446 41.8371L316.177 34.5942L315.877 34.6054L316.146 41.8482L316.446 41.8371ZM316.177 34.5942C316.009 30.0842 312.379 26.4679 307.855 26.3031L307.844 26.6029C312.211 26.762 315.715 30.2532 315.877 34.6054L316.177 34.5942ZM307.855 26.3031L300.376 26.0306L300.365 26.3305L307.844 26.6029L307.855 26.3031ZM300.376 26.3305L307.855 26.058L307.844 25.7582L300.365 26.0306L300.376 26.3305ZM307.855 26.058C312.379 25.8932 316.009 22.2769 316.177 17.7669L315.877 17.7557C315.715 22.1079 312.211 25.5991 307.844 25.7582L307.855 26.058ZM316.177 17.7669L316.446 10.524L316.146 10.5129L315.877 17.7557L316.177 17.7669ZM316.146 10.524L316.416 17.7669L316.715 17.7557L316.446 10.5129L316.146 10.524ZM316.416 17.7669C316.583 22.2769 320.214 25.8932 324.737 26.058L324.748 25.7582C320.381 25.5991 316.877 22.1079 316.715 17.7557L316.416 17.7669ZM324.737 26.058L326.887 26.1363L326.898 25.8365L324.748 25.7582L324.737 26.058ZM327.042 25.986L327.037 23.9637L326.737 23.9645L326.742 25.9868L327.042 25.986ZM327.037 23.9637C327.017 15.6108 320.24 8.85 311.887 8.85V9.15C320.075 9.15 326.718 15.7769 326.737 23.9645L327.037 23.9637ZM311.887 8.85H308.03V9.15H311.887V8.85ZM310.045 9.60244C309.317 9.57603 308.651 9.31091 308.125 8.88354L307.935 9.11646C308.511 9.58365 309.239 9.8734 310.034 9.90224L310.045 9.60244ZM313.011 9.71005L310.045 9.60244L310.034 9.90224L313 10.0099L313.011 9.71005ZM310.045 10.1175L313.011 10.0099L313 9.71005L310.034 9.81766L310.045 10.1175ZM306.945 13.1908C307.007 11.5202 308.359 10.1786 310.045 10.1175L310.034 9.81766C308.193 9.88444 306.714 11.35 306.645 13.1796L306.945 13.1908ZM171.326 52.6843L171.23 50.1216L170.931 50.1328L171.026 52.6955L171.326 52.6843ZM171.122 50.1216L171.026 52.6843L171.326 52.6955L171.422 50.1328L171.122 50.1216ZM174.173 47.0948C172.515 47.1549 171.184 48.4743 171.122 50.1216L171.422 50.1328C171.477 48.6445 172.681 47.4491 174.183 47.3946L174.173 47.0948ZM176.83 46.9984L174.173 47.0948L174.183 47.3946L176.841 47.2982L176.83 46.9984ZM174.173 47.2018L176.83 47.2982L176.841 46.9984L174.183 46.902L174.173 47.2018ZM171.122 44.175C171.184 45.8223 172.515 47.1417 174.173 47.2018L174.183 46.902C172.681 46.8475 171.477 45.6522 171.422 44.1638L171.122 44.175ZM171.026 41.6124L171.122 44.175L171.422 44.1638L171.326 41.6012L171.026 41.6124ZM171.23 44.175L171.326 41.6124L171.026 41.6012L170.931 44.1638L171.23 44.175ZM168.18 47.2018C169.837 47.1417 171.169 45.8223 171.23 44.175L170.931 44.1638C170.875 45.6522 169.671 46.8475 168.169 46.902L168.18 47.2018ZM165.522 47.2982L168.18 47.2018L168.169 46.902L165.511 46.9984L165.522 47.2982ZM168.18 47.0948L165.522 46.9984L165.511 47.2982L168.169 47.3946L168.18 47.0948ZM171.23 50.1216C171.169 48.4743 169.837 47.1549 168.18 47.0948L168.169 47.3946C169.671 47.4491 170.875 48.6445 170.931 50.1328L171.23 50.1216ZM61.7018 29.6646L61.8894 34.7108L62.1892 34.6996L62.0016 29.6534L61.7018 29.6646ZM56.1488 24.1328C59.1681 24.2428 61.5899 26.6562 61.7018 29.6646L62.0016 29.6534C61.8838 26.4872 59.3352 23.9487 56.1597 23.833L56.1488 24.1328ZM50.9383 23.943L56.1488 24.1328L56.1597 23.833L50.9493 23.6432L50.9383 23.943ZM56.1488 23.4534L50.9383 23.6432L50.9493 23.943L56.1597 23.7532L56.1488 23.4534ZM61.7018 17.9217C61.5899 20.93 59.1681 23.3434 56.1488 23.4534L56.1597 23.7532C59.3352 23.6375 61.8838 21.099 62.0016 17.9328L61.7018 17.9217ZM61.8894 12.8754L61.7018 17.9217L62.0016 17.9328L62.1892 12.8866L61.8894 12.8754ZM62.3768 17.9217L62.1892 12.8754L61.8894 12.8866L62.077 17.9328L62.3768 17.9217ZM67.9298 23.4534C64.9105 23.3434 62.4887 20.93 62.3768 17.9217L62.077 17.9328C62.1948 21.099 64.7434 23.6375 67.9189 23.7532L67.9298 23.4534ZM73.1403 23.6432L67.9298 23.4534L67.9189 23.7532L73.1293 23.943L73.1403 23.6432ZM67.9298 24.1328L73.1403 23.943L73.1293 23.6432L67.9189 23.833L67.9298 24.1328ZM62.3768 29.6646C62.4887 26.6562 64.9105 24.2428 67.9298 24.1328L67.9189 23.833C64.7434 23.9487 62.1948 26.4872 62.077 29.6534L62.3768 29.6646ZM62.1892 34.7108L62.3768 29.6646L62.077 29.6534L61.8894 34.6996L62.1892 34.7108Z" fill="black"/>
<defs>
<filter id="filter0_d_291_3079" x="0.772385" y="0.75" width="336.442" height="82.5" filterUnits="userSpaceOnUse" color-interpolation-filters="sRGB">
<feFlood flood-opacity="0" result="BackgroundImageFix"/>
<feColorMatrix in="SourceAlpha" type="matrix" values="0 0 0 0 0 0 0 0 0 0 0 0 0 0 0 0 0 0 127 0" result="hardAlpha"/>
<feOffset dy="2"/>
<feGaussianBlur stdDeviation="5"/>
<feComposite in2="hardAlpha" operator="out"/>
<feColorMatrix type="matrix" values="0 0 0 0 0.898039 0 0 0 0 0.635294 0 0 0 0 0.141176 0 0 0 0.25 0"/>
<feBlend mode="normal" in2="BackgroundImageFix" result="effect1_dropShadow_291_3079"/>
<feBlend mode="normal" in="SourceGraphic" in2="effect1_dropShadow_291_3079" result="shape"/>
</filter>
<filter id="filter1_f_291_3079" x="15.8876" y="-85.5281" width="189.944" height="189.944" filterUnits="userSpaceOnUse" color-interpolation-filters="sRGB">
<feFlood flood-opacity="0" result="BackgroundImageFix"/>
<feBlend mode="normal" in="SourceGraphic" in2="BackgroundImageFix" result="shape"/>
<feGaussianBlur stdDeviation="37.5" result="effect1_foregroundBlur_291_3079"/>
</filter>
<filter id="filter2_f_291_3079" x="148.146" y="-30.4944" width="189.944" height="189.944" filterUnits="userSpaceOnUse" color-interpolation-filters="sRGB">
<feFlood flood-opacity="0" result="BackgroundImageFix"/>
<feBlend mode="normal" in="SourceGraphic" in2="BackgroundImageFix" result="shape"/>
<feGaussianBlur stdDeviation="37.5" result="effect1_foregroundBlur_291_3079"/>
</filter>
</defs>
</svg>
