<svg width="338" height="73" viewBox="0 0 338 73" fill="none" xmlns="http://www.w3.org/2000/svg">
<g filter="url(#filter0_d_291_3106)">
<path d="M11.1215 50.7369L11.0273 18.3644C11.0122 13.197 15.197 9 20.3645 9H27.6886C28.8004 9 29.7017 9.90132 29.7017 11.0132C29.7017 12.125 30.6031 13.0263 31.7149 13.0263H43.6048C44.7167 13.0263 45.618 12.125 45.618 11.0132C45.618 9.90132 46.5193 9 47.6311 9H311.895C320.162 9 326.871 15.6891 326.895 23.9563L326.956 44.9563C326.98 53.2576 320.258 60 311.956 60L47.6311 60C46.5193 60 45.618 59.0987 45.618 57.9868C45.618 56.875 44.7167 55.9737 43.6048 55.9737L31.7149 55.9737C30.6031 55.9737 29.7017 56.875 29.7017 57.9868C29.7017 59.0987 28.8004 60 27.6886 60H20.4116C15.2913 60 11.1364 55.8571 11.1215 50.7369Z" fill="#FDFFF5"/>
<path d="M11.1215 50.7369L11.0273 18.3644C11.0122 13.197 15.197 9 20.3645 9H27.6886C28.8004 9 29.7017 9.90132 29.7017 11.0132C29.7017 12.125 30.6031 13.0263 31.7149 13.0263H43.6048C44.7167 13.0263 45.618 12.125 45.618 11.0132C45.618 9.90132 46.5193 9 47.6311 9H311.895C320.162 9 326.871 15.6891 326.895 23.9563L326.956 44.9563C326.98 53.2576 320.258 60 311.956 60L47.6311 60C46.5193 60 45.618 59.0987 45.618 57.9868C45.618 56.875 44.7167 55.9737 43.6048 55.9737L31.7149 55.9737C30.6031 55.9737 29.7017 56.875 29.7017 57.9868C29.7017 59.0987 28.8004 60 27.6886 60H20.4116C15.2913 60 11.1364 55.8571 11.1215 50.7369Z" stroke="#B46415" stroke-width="0.5"/>
</g>
<mask id="mask0_291_3106" style="mask-type:alpha" maskUnits="userSpaceOnUse" x="11" y="9" width="316" height="51">
<path d="M11.1215 50.7369L11.0273 18.3644C11.0122 13.197 15.197 9 20.3645 9H27.6886C28.8004 9 29.7017 9.90132 29.7017 11.0132C29.7017 12.125 30.6031 13.0263 31.7149 13.0263H43.6048C44.7167 13.0263 45.618 12.125 45.618 11.0132C45.618 9.90132 46.5193 9 47.6311 9H311.895C320.162 9 326.871 15.6891 326.895 23.9563L326.956 44.9563C326.98 53.2576 320.258 60 311.956 60L47.6311 60C46.5193 60 45.618 59.0987 45.618 57.9868C45.618 56.875 44.7167 55.9737 43.6048 55.9737L31.7149 55.9737C30.6031 55.9737 29.7017 56.875 29.7017 57.9868C29.7017 59.0987 28.8004 60 27.6886 60H20.4116C15.2913 60 11.1364 55.8571 11.1215 50.7369Z" fill="#FDFFF5"/>
</mask>
<g mask="url(#mask0_291_3106)">
<g filter="url(#filter1_f_291_3106)">
<circle cx="110.86" cy="9.44383" r="19.9719" fill="#B46415"/>
</g>
<g filter="url(#filter2_f_291_3106)">
<circle cx="243.118" cy="64.4775" r="19.9719" fill="#B46415"/>
</g>
</g>
<path d="M311.935 13.5038L311.785 13.5094L312.085 13.5094L311.935 13.5038ZM312.02 11.231L312.17 11.2366V11.2366L312.02 11.231ZM311.85 11.231L312 11.2254V11.2254L311.85 11.231ZM310.463 9L310.535 8.86832L310.501 8.85H310.463V9ZM69.9177 9V8.85H69.3878L69.839 9.12774L69.9177 9ZM71.0679 9.34717L71.0624 9.49707L71.0679 9.34717ZM73.1348 9.42214L73.1403 9.57204V9.27224L73.1348 9.42214ZM71.0679 9.49711L71.0624 9.34721L71.0679 9.49711ZM68.8077 11.7389L68.9576 11.7445V11.7445L68.8077 11.7389ZM68.7333 13.732L68.5834 13.7376H68.8832L68.7333 13.732ZM68.6589 11.7389L68.8088 11.7333V11.7333L68.6589 11.7389ZM66.3987 9.49711L66.4042 9.34721L66.3987 9.49711ZM64.3318 9.42214L64.3263 9.27224V9.57204L64.3318 9.42214ZM66.3987 9.34717L66.4042 9.49707L66.3987 9.34717ZM67.5489 9L67.6275 9.12774L68.0788 8.85H67.5489V9ZM11.0272 18.3644L11.1772 18.364L11.0272 18.3644ZM11.1215 50.7369L10.9715 50.7373L11.1215 50.7369ZM20.4116 60V60.15V60ZM31.7149 55.9737V56.1237V55.9737ZM43.6048 55.9737V55.8237V55.9737ZM167.182 60V60.15H167.337L167.331 59.9944L167.182 60ZM167.162 59.4734L167.312 59.4678L167.162 59.4734ZM162.277 54.6069L162.272 54.7568L162.277 54.6069ZM157.81 54.4442L157.804 54.2943V54.5941L157.81 54.4442ZM162.277 54.2814L162.272 54.1315L162.277 54.2814ZM167.162 49.415L167.312 49.4206L167.162 49.415ZM167.323 45.0885L167.473 45.083H167.173L167.323 45.0885ZM167.484 49.415L167.634 49.4094L167.484 49.415ZM172.368 54.2814L172.363 54.4313L172.368 54.2814ZM176.836 54.4442L176.841 54.5941V54.2943L176.836 54.4442ZM172.368 54.6069L172.374 54.7568L172.368 54.6069ZM167.484 59.4734L167.334 59.4678L167.484 59.4734ZM167.464 60L167.314 59.9944L167.308 60.15H167.464V60ZM311.956 60V59.85V60ZM326.956 44.9563L327.106 44.9559L326.956 44.9563ZM326.895 23.9563L326.745 23.9568V23.9568L326.895 23.9563ZM326.728 21.7561L326.877 21.7339L326.857 21.6013L326.723 21.6062L326.728 21.7561ZM326.28 21.7725L326.285 21.9224L326.28 21.7725ZM319.782 28.2453L319.633 28.2397L319.782 28.2453ZM319.568 33.9999L319.419 34.0055H319.718L319.568 33.9999ZM319.355 28.2453L319.504 28.2397L319.355 28.2453ZM312.857 21.7725L312.852 21.9224L312.857 21.7725ZM306.915 21.556L306.91 21.4061V21.7059L306.915 21.556ZM312.857 21.3395L312.852 21.1896L312.857 21.3395ZM319.355 14.8667L319.504 14.8723V14.8723L319.355 14.8667ZM319.496 11.0655L319.646 11.0711L319.649 10.9817L319.572 10.9363L319.496 11.0655ZM313.295 9.06447L313.309 8.91511L313.259 8.91053L313.217 8.9364L313.295 9.06447ZM319.644 11.1542L319.722 11.0258L319.484 10.882L319.494 11.1597L319.644 11.1542ZM319.782 14.8667L319.633 14.8723V14.8723L319.782 14.8667ZM326.662 21.3535L326.657 21.5034L326.843 21.5101L326.81 21.3272L326.662 21.3535ZM326.28 21.3395L326.274 21.4894L326.28 21.3395ZM173.062 48.3903L172.912 48.3959H173.212L173.062 48.3903ZM172.998 46.6815L173.148 46.6759V46.6759L172.998 46.6815ZM173.126 46.6815L172.976 46.6759V46.6759L173.126 46.6815ZM175.064 44.7595L175.058 44.6096L175.064 44.7595ZM176.836 44.6952L176.841 44.8451V44.5453L176.836 44.6952ZM175.064 44.6309L175.069 44.481L175.064 44.6309ZM173.126 42.7089L172.976 42.7145V42.7145L173.126 42.7089ZM173.062 41.0001L173.212 40.9945H172.912L173.062 41.0001ZM172.998 42.7089L173.148 42.7145V42.7145L172.998 42.7089ZM171.06 44.6309L171.055 44.481L171.06 44.6309ZM169.288 44.6952L169.283 44.5453V44.8451L169.288 44.6952ZM171.06 44.7595L171.066 44.6096L171.06 44.7595ZM61.8517 26.6589L62.0016 26.6534L61.8517 26.6589ZM62.0393 31.7052L61.8894 31.7107H62.1892L62.0393 31.7052ZM56.1543 20.9829L56.1488 21.1328L56.1543 20.9829ZM50.9438 20.7931L50.9383 20.6432V20.943L50.9438 20.7931ZM56.1543 20.6032L56.1488 20.4533L56.1543 20.6032ZM61.8517 14.9272L61.7018 14.9216V14.9216L61.8517 14.9272ZM62.0393 9.88095L62.1892 9.87538L61.8894 9.87538L62.0393 9.88095ZM62.2269 14.9272L62.077 14.9328L62.2269 14.9272ZM67.9243 20.6032L67.9189 20.7531L67.9243 20.6032ZM73.1348 20.7931L73.1403 20.943V20.6432L73.1348 20.7931ZM67.9243 20.9829L67.9189 20.833L67.9243 20.9829ZM62.2269 26.6589L62.3768 26.6645L62.2269 26.6589ZM312.085 13.5094L312.17 11.2366L311.87 11.2254L311.785 13.4982L312.085 13.5094ZM311.7 11.2366L311.785 13.5094L312.085 13.4982L312 11.2254L311.7 11.2366ZM310.391 9.13168C311.147 9.54417 311.666 10.3285 311.7 11.2366L312 11.2254C311.962 10.2071 311.38 9.32929 310.535 8.86832L310.391 9.13168ZM310.463 8.85H69.9177V9.15H310.463V8.85ZM69.839 9.12774C70.1967 9.34787 70.6146 9.48082 71.0624 9.49707L71.0733 9.19727C70.6785 9.18295 70.3108 9.06586 69.9963 8.87226L69.839 9.12774ZM71.0624 9.49707L73.1294 9.57204L73.1403 9.27224L71.0733 9.19727L71.0624 9.49707ZM73.1294 9.27224L71.0624 9.34721L71.0733 9.64701L73.1403 9.57204L73.1294 9.27224ZM71.0624 9.34721C69.7562 9.39459 68.7063 10.4345 68.6578 11.7333L68.9576 11.7445C69.0002 10.6046 69.9221 9.68877 71.0733 9.64701L71.0624 9.34721ZM68.6578 11.7333L68.5834 13.7264L68.8832 13.7376L68.9576 11.7445L68.6578 11.7333ZM68.8832 13.7264L68.8088 11.7333L68.509 11.7445L68.5834 13.7376L68.8832 13.7264ZM68.8088 11.7333C68.7603 10.4345 67.7104 9.39459 66.4042 9.34721L66.3933 9.64701C67.5445 9.68877 68.4664 10.6046 68.509 11.7445L68.8088 11.7333ZM66.4042 9.34721L64.3372 9.27224L64.3263 9.57204L66.3933 9.64701L66.4042 9.34721ZM64.3372 9.57204L66.4042 9.49707L66.3933 9.19727L64.3263 9.27224L64.3372 9.57204ZM66.4042 9.49707C66.852 9.48082 67.2699 9.34787 67.6275 9.12774L67.4703 8.87226C67.1557 9.06586 66.7881 9.18294 66.3933 9.19727L66.4042 9.49707ZM67.5489 8.85H47.6311V9.15H67.5489V8.85ZM47.6311 8.85C46.4364 8.85 45.468 9.81848 45.468 11.0132H45.768C45.768 9.98416 46.6021 9.15 47.6311 9.15V8.85ZM45.468 11.0132C45.468 12.0422 44.6338 12.8763 43.6048 12.8763V13.1763C44.7995 13.1763 45.768 12.2078 45.768 11.0132H45.468ZM43.6048 12.8763H31.7149V13.1763H43.6048V12.8763ZM31.7149 12.8763C30.6859 12.8763 29.8517 12.0422 29.8517 11.0132H29.5517C29.5517 12.2078 30.5202 13.1763 31.7149 13.1763V12.8763ZM29.8517 11.0132C29.8517 9.81848 28.8833 8.85 27.6886 8.85V9.15C28.7176 9.15 29.5517 9.98416 29.5517 11.0132H29.8517ZM27.6886 8.85H20.3645V9.15H27.6886V8.85ZM20.3645 8.85C15.114 8.85 10.862 13.1144 10.8772 18.3649L11.1772 18.364C11.1624 13.2796 15.28 9.15 20.3645 9.15V8.85ZM10.8772 18.3649L10.9715 50.7373L11.2715 50.7365L11.1772 18.364L10.8772 18.3649ZM10.9715 50.7373C10.9866 55.9402 15.2086 60.15 20.4116 60.15V59.85C15.374 59.85 11.2861 55.774 11.2715 50.7365L10.9715 50.7373ZM20.4116 60.15H27.6886V59.85H20.4116V60.15ZM27.6886 60.15C28.8832 60.15 29.8517 59.1815 29.8517 57.9868H29.5517C29.5517 59.0158 28.7176 59.85 27.6886 59.85V60.15ZM29.8517 57.9868C29.8517 56.9579 30.6859 56.1237 31.7149 56.1237V55.8237C30.5202 55.8237 29.5517 56.7922 29.5517 57.9868H29.8517ZM31.7149 56.1237L43.6048 56.1237V55.8237L31.7149 55.8237V56.1237ZM43.6048 56.1237C44.6338 56.1237 45.468 56.9578 45.468 57.9868H45.768C45.768 56.7922 44.7995 55.8237 43.6048 55.8237V56.1237ZM45.468 57.9868C45.468 59.1815 46.4365 60.15 47.6311 60.15V59.85C46.6021 59.85 45.768 59.0158 45.768 57.9868H45.468ZM47.6311 60.15H167.182V59.85H47.6311V60.15ZM167.331 59.9944L167.312 59.4678L167.012 59.4789L167.032 60.0056L167.331 59.9944ZM167.312 59.4678C167.21 56.7419 165.016 54.5566 162.283 54.457L162.272 54.7568C164.849 54.8507 166.917 56.9109 167.012 59.4789L167.312 59.4678ZM162.283 54.457L157.815 54.2943L157.804 54.5941L162.272 54.7568L162.283 54.457ZM157.815 54.5941L162.283 54.4313L162.272 54.1315L157.804 54.2943L157.815 54.5941ZM162.283 54.4313C165.016 54.3317 167.21 52.1464 167.312 49.4206L167.012 49.4094C166.917 51.9774 164.849 54.0376 162.272 54.1315L162.283 54.4313ZM167.312 49.4206L167.473 45.0941L167.173 45.083L167.012 49.4094L167.312 49.4206ZM167.173 45.0941L167.334 49.4206L167.634 49.4094L167.473 45.083L167.173 45.0941ZM167.334 49.4206C167.435 52.1464 169.629 54.3317 172.363 54.4313L172.374 54.1315C169.796 54.0376 167.729 51.9774 167.634 49.4094L167.334 49.4206ZM172.363 54.4313L176.83 54.5941L176.841 54.2943L172.374 54.1315L172.363 54.4313ZM176.83 54.2943L172.363 54.457L172.374 54.7568L176.841 54.5941L176.83 54.2943ZM172.363 54.457C169.629 54.5566 167.435 56.742 167.334 59.4678L167.634 59.4789C167.729 56.9109 169.796 54.8507 172.374 54.7568L172.363 54.457ZM167.334 59.4678L167.314 59.9944L167.614 60.0056L167.634 59.4789L167.334 59.4678ZM167.464 60.15L311.956 60.15V59.85L167.464 59.85V60.15ZM311.956 60.15C320.341 60.15 327.131 53.3402 327.106 44.9559L326.806 44.9568C326.83 53.1751 320.175 59.85 311.956 59.85V60.15ZM327.106 44.9559L327.045 23.9559L326.745 23.9568L326.806 44.9568L327.106 44.9559ZM327.045 23.9559C327.043 23.201 326.985 22.459 326.877 21.7339L326.58 21.7784C326.687 22.4892 326.743 23.2165 326.745 23.9568L327.045 23.9559ZM326.723 21.6062L326.274 21.6226L326.285 21.9224L326.734 21.906L326.723 21.6062ZM326.274 21.6226C322.664 21.7541 319.766 24.6401 319.633 28.2397L319.932 28.2509C320.06 24.8091 322.831 22.0482 326.285 21.9224L326.274 21.6226ZM319.633 28.2397L319.419 33.9943L319.718 34.0055L319.932 28.2509L319.633 28.2397ZM319.718 33.9943L319.504 28.2397L319.205 28.2509L319.419 34.0055L319.718 33.9943ZM319.504 28.2397C319.371 24.6401 316.473 21.7541 312.863 21.6226L312.852 21.9224C316.306 22.0482 319.077 24.8091 319.205 28.2509L319.504 28.2397ZM312.863 21.6226L306.921 21.4061L306.91 21.7059L312.852 21.9224L312.863 21.6226ZM306.921 21.7059L312.863 21.4894L312.852 21.1896L306.91 21.4061L306.921 21.7059ZM312.863 21.4894C316.473 21.3579 319.371 18.4718 319.504 14.8723L319.205 14.8611C319.077 18.3029 316.306 21.0638 312.852 21.1896L312.863 21.4894ZM319.504 14.8723L319.646 11.0711L319.346 11.06L319.205 14.8611L319.504 14.8723ZM319.572 10.9363C317.704 9.83607 315.579 9.1252 313.309 8.91511L313.281 9.21383C315.506 9.41976 317.589 10.1164 319.42 11.1948L319.572 10.9363ZM312.17 11.2366C312.202 10.3713 312.674 9.61853 313.373 9.19254L313.217 8.9364C312.436 9.41247 311.906 10.2552 311.87 11.2254L312.17 11.2366ZM319.494 11.1597L319.633 14.8723L319.932 14.8611L319.794 11.1486L319.494 11.1597ZM326.81 21.3272C326.032 16.9583 323.383 13.239 319.722 11.0258L319.567 11.2825C323.156 13.4522 325.753 17.0982 326.515 21.3798L326.81 21.3272ZM326.274 21.4894L326.657 21.5034L326.668 21.2036L326.285 21.1896L326.274 21.4894ZM319.633 14.8723C319.766 18.4718 322.664 21.3579 326.274 21.4894L326.285 21.1896C322.831 21.0638 320.06 18.3029 319.932 14.8611L319.633 14.8723ZM173.212 48.3847L173.148 46.6759L172.848 46.6871L172.912 48.3959L173.212 48.3847ZM172.976 46.6759L172.912 48.3847L173.212 48.3959L173.276 46.6871L172.976 46.6759ZM175.058 44.6096C173.927 44.6506 173.018 45.551 172.976 46.6759L173.276 46.6871C173.312 45.7212 174.093 44.9448 175.069 44.9094L175.058 44.6096ZM176.83 44.5453L175.058 44.6096L175.069 44.9094L176.841 44.8451L176.83 44.5453ZM175.058 44.7808L176.83 44.8451L176.841 44.5453L175.069 44.481L175.058 44.7808ZM172.976 42.7145C173.018 43.8394 173.927 44.7398 175.058 44.7808L175.069 44.481C174.093 44.4456 173.312 43.6692 173.276 42.7033L172.976 42.7145ZM172.912 41.0057L172.976 42.7145L173.276 42.7033L173.212 40.9945L172.912 41.0057ZM173.148 42.7145L173.212 41.0057L172.912 40.9945L172.848 42.7033L173.148 42.7145ZM171.066 44.7808C172.197 44.7398 173.106 43.8394 173.148 42.7145L172.848 42.7033C172.812 43.6692 172.031 44.4456 171.055 44.481L171.066 44.7808ZM169.294 44.8451L171.066 44.7808L171.055 44.481L169.283 44.5453L169.294 44.8451ZM171.066 44.6096L169.294 44.5453L169.283 44.8451L171.055 44.9094L171.066 44.6096ZM173.148 46.6759C173.106 45.551 172.197 44.6506 171.066 44.6096L171.055 44.9094C172.031 44.9448 172.812 45.7212 172.848 46.6871L173.148 46.6759ZM61.7018 26.6645L61.8894 31.7107L62.1892 31.6996L62.0016 26.6534L61.7018 26.6645ZM56.1488 21.1328C59.1681 21.2428 61.5899 23.6561 61.7018 26.6645L62.0016 26.6534C61.8839 23.4872 59.3352 20.9487 56.1597 20.833L56.1488 21.1328ZM50.9383 20.943L56.1488 21.1328L56.1597 20.833L50.9493 20.6432L50.9383 20.943ZM56.1488 20.4533L50.9383 20.6432L50.9493 20.943L56.1597 20.7531L56.1488 20.4533ZM61.7018 14.9216C61.5899 17.93 59.1681 20.3433 56.1488 20.4533L56.1597 20.7531C59.3352 20.6374 61.8839 18.099 62.0016 14.9328L61.7018 14.9216ZM61.8894 9.87538L61.7018 14.9216L62.0016 14.9328L62.1892 9.88652L61.8894 9.87538ZM62.3768 14.9216L62.1892 9.87538L61.8894 9.88652L62.077 14.9328L62.3768 14.9216ZM67.9298 20.4533C64.9105 20.3433 62.4887 17.93 62.3768 14.9216L62.077 14.9328C62.1948 18.099 64.7434 20.6374 67.9189 20.7531L67.9298 20.4533ZM73.1403 20.6432L67.9298 20.4533L67.9189 20.7531L73.1294 20.943L73.1403 20.6432ZM67.9298 21.1328L73.1403 20.943L73.1294 20.6432L67.9189 20.833L67.9298 21.1328ZM62.3768 26.6645C62.4887 23.6561 64.9105 21.2428 67.9298 21.1328L67.9189 20.833C64.7434 20.9487 62.1948 23.4872 62.077 26.6534L62.3768 26.6645ZM62.1892 31.7107L62.3768 26.6645L62.077 26.6534L61.8894 31.6996L62.1892 31.7107Z" fill="black"/>
<defs>
<filter id="filter0_d_291_3106" x="0.777214" y="0.75" width="336.429" height="71.5" filterUnits="userSpaceOnUse" color-interpolation-filters="sRGB">
<feFlood flood-opacity="0" result="BackgroundImageFix"/>
<feColorMatrix in="SourceAlpha" type="matrix" values="0 0 0 0 0 0 0 0 0 0 0 0 0 0 0 0 0 0 127 0" result="hardAlpha"/>
<feOffset dy="2"/>
<feGaussianBlur stdDeviation="5"/>
<feComposite in2="hardAlpha" operator="out"/>
<feColorMatrix type="matrix" values="0 0 0 0 0.898039 0 0 0 0 0.635294 0 0 0 0 0.141176 0 0 0 0.25 0"/>
<feBlend mode="normal" in2="BackgroundImageFix" result="effect1_dropShadow_291_3106"/>
<feBlend mode="normal" in="SourceGraphic" in2="effect1_dropShadow_291_3106" result="shape"/>
</filter>
<filter id="filter1_f_291_3106" x="15.8876" y="-85.5281" width="189.944" height="189.944" filterUnits="userSpaceOnUse" color-interpolation-filters="sRGB">
<feFlood flood-opacity="0" result="BackgroundImageFix"/>
<feBlend mode="normal" in="SourceGraphic" in2="BackgroundImageFix" result="shape"/>
<feGaussianBlur stdDeviation="37.5" result="effect1_foregroundBlur_291_3106"/>
</filter>
<filter id="filter2_f_291_3106" x="148.146" y="-30.4944" width="189.944" height="189.944" filterUnits="userSpaceOnUse" color-interpolation-filters="sRGB">
<feFlood flood-opacity="0" result="BackgroundImageFix"/>
<feBlend mode="normal" in="SourceGraphic" in2="BackgroundImageFix" result="shape"/>
<feGaussianBlur stdDeviation="37.5" result="effect1_foregroundBlur_291_3106"/>
</filter>
</defs>
</svg>
