<svg width="211" height="256" viewBox="0 0 211 256" fill="none" xmlns="http://www.w3.org/2000/svg">
<g filter="url(#filter0_d_24_71)">
<path d="M38.0001 6.00002L173.743 6.00003C190.312 6.00003 203.743 19.4315 203.743 36L203.743 46.8649C197.523 46.8649 192.465 51.9073 192.465 58.1274C192.465 64.3475 197.523 69.3898 203.743 69.3898L203.743 216C203.743 232.569 190.312 246 173.743 246L38 246C21.4315 246 8.00001 232.569 8.00001 216L8.00001 69.3898L8.38026 69.3898C14.6004 69.3898 19.6427 64.3475 19.6427 58.1274C19.6427 51.9073 14.6004 46.8649 8.38026 46.8649L8.00001 46.8649L8.00001 36C8.00001 19.4315 21.4315 6.00002 38.0001 6.00002Z" fill="#FDFFF5"/>
<path d="M38.0001 6.00002L173.743 6.00003C190.312 6.00003 203.743 19.4315 203.743 36L203.743 46.8649C197.523 46.8649 192.465 51.9073 192.465 58.1274C192.465 64.3475 197.523 69.3898 203.743 69.3898L203.743 216C203.743 232.569 190.312 246 173.743 246L38 246C21.4315 246 8.00001 232.569 8.00001 216L8.00001 69.3898L8.38026 69.3898C14.6004 69.3898 19.6427 64.3475 19.6427 58.1274C19.6427 51.9073 14.6004 46.8649 8.38026 46.8649L8.00001 46.8649L8.00001 36C8.00001 19.4315 21.4315 6.00002 38.0001 6.00002Z" stroke="#716F6F" stroke-width="0.5"/>
</g>
<path fill-rule="evenodd" clip-rule="evenodd" d="M203.145 179.957L203.743 163.858L203.743 69.3898C197.523 69.3898 192.465 64.3475 192.465 58.1274C192.465 51.9073 197.523 46.8649 203.743 46.8649L203.743 36C203.743 19.4315 190.312 6.00003 173.743 6.00003L54.3458 6.00002L38.0001 6.00002C21.4315 6.00002 8.00001 19.4315 8.00001 36L8.00001 46.8649L8.38026 46.8649C13.3706 46.8649 17.6029 50.1105 19.0813 54.6061C26.5845 52.3058 32.0862 45.4804 32.3899 37.3144L32.9885 21.2142L33.5872 37.3143C33.9534 47.1643 41.8826 55.0638 51.7648 55.4239L68.3889 56.0295L51.7648 56.6351C41.8826 56.9952 33.9534 64.8947 33.5872 74.7447L32.9885 90.8448L32.3899 74.7447C32.0937 66.7797 26.8524 60.0902 19.632 57.6311C19.6391 57.7956 19.6427 57.9611 19.6427 58.1274C19.6427 64.3475 14.6004 69.3898 8.38026 69.3898L8.00001 69.3898L8.00001 216C8.00001 232.569 21.4315 246 38 246L173.743 246C188.526 246 200.811 235.309 203.288 221.237L203.145 217.387C202.779 207.537 194.849 199.638 184.967 199.278L168.343 198.672L184.967 198.067C194.849 197.707 202.779 189.807 203.145 179.957ZM54.3458 6.00002L54.5833 12.3589C54.7285 16.2492 57.874 19.3692 61.7942 19.5114L68.3889 19.7506L61.7942 19.9898C57.874 20.132 54.7285 23.252 54.5833 27.1423L54.3458 33.5012L54.1083 27.1423C53.963 23.252 50.8176 20.132 46.8973 19.9898L40.3026 19.7506L46.8973 19.5114C50.8175 19.3692 53.963 16.2492 54.1083 12.3589L54.3458 6.00002ZM182.624 169.785L182.386 176.144L182.149 169.785C182.003 165.895 178.858 162.775 174.938 162.633L168.343 162.393L174.938 162.154C178.858 162.012 182.003 158.892 182.149 155.002L182.386 148.643L182.624 155.002C182.769 158.892 185.914 162.012 189.835 162.154L196.429 162.393L189.835 162.633C185.914 162.775 182.769 165.895 182.624 169.785Z" fill="#FDFFF5"/>
<path d="M203.743 163.858L203.993 163.867L203.993 163.858L203.743 163.858ZM203.145 179.957L202.895 179.948L203.145 179.957ZM203.743 69.3898L203.993 69.3898L203.993 69.1398L203.743 69.1398L203.743 69.3898ZM203.743 46.8649L203.743 47.1149L203.993 47.1149L203.993 46.8649L203.743 46.8649ZM173.743 6.00003L173.743 5.75003L173.743 6.00003ZM54.3458 6.00002L54.3458 5.75002L54.3458 6.00002ZM38.0001 6.00002L38.0001 6.25002L38.0001 6.00002ZM8.00001 36L8.25001 36L8.00001 36ZM8.00001 46.8649L7.75001 46.8649L7.75001 47.1149L8.00001 47.1149L8.00001 46.8649ZM19.0813 54.6061L18.8438 54.6842L18.9204 54.9169L19.1546 54.8451L19.0813 54.6061ZM32.3899 37.3144L32.14 37.3051L32.3899 37.3144ZM32.9885 21.2142L33.2384 21.2049L32.7387 21.2049L32.9885 21.2142ZM33.5872 37.3143L33.3373 37.3236L33.5872 37.3143ZM51.7648 55.4239L51.7557 55.6737L51.7648 55.4239ZM68.3889 56.0295L68.398 56.2793L68.398 55.7797L68.3889 56.0295ZM51.7648 56.6351L51.7557 56.3853L51.7648 56.6351ZM33.5872 74.7447L33.837 74.754L33.5872 74.7447ZM32.9885 90.8448L32.7387 90.8541L33.2383 90.8541L32.9885 90.8448ZM32.3899 74.7447L32.6397 74.7354L32.3899 74.7447ZM19.632 57.6311L19.7126 57.3944L19.3664 57.2765L19.3822 57.6419L19.632 57.6311ZM8.00001 69.3898L8.00001 69.1398L7.75001 69.1398L7.75001 69.3898L8.00001 69.3898ZM8.00001 216L7.75001 216L8.00001 216ZM203.288 221.237L203.534 221.28L203.539 221.254L203.538 221.227L203.288 221.237ZM203.145 217.387L202.895 217.397L203.145 217.387ZM184.967 199.278L184.958 199.528L184.967 199.278ZM168.343 198.672L168.334 198.422L168.334 198.922L168.343 198.672ZM184.967 198.067L184.958 197.817L184.967 198.067ZM54.5833 12.3589L54.8331 12.3496L54.8331 12.3496L54.5833 12.3589ZM61.7942 19.5114L61.8033 19.2615L61.7942 19.5114ZM68.3889 19.7506L68.398 20.0004L68.398 19.5008L68.3889 19.7506ZM61.7942 19.9898L61.8033 20.2396L61.7942 19.9898ZM54.5833 27.1423L54.8331 27.1516L54.8331 27.1516L54.5833 27.1423ZM54.3458 33.5012L54.0959 33.5105L54.5956 33.5105L54.3458 33.5012ZM54.1083 27.1423L54.3581 27.133L54.3581 27.133L54.1083 27.1423ZM46.8973 19.9898L46.9064 19.74L46.8973 19.9898ZM40.3026 19.7506L40.2936 19.5007L40.2936 20.0004L40.3026 19.7506ZM46.8973 19.5114L46.9064 19.7612L46.8973 19.5114ZM54.1083 12.3589L54.3581 12.3682V12.3682L54.1083 12.3589ZM182.386 176.144L182.136 176.153L182.636 176.153L182.386 176.144ZM182.624 169.785L182.873 169.794L182.624 169.785ZM182.149 169.785L182.399 169.776L182.149 169.785ZM174.938 162.633L174.929 162.882L174.938 162.633ZM168.343 162.393L168.334 162.144L168.334 162.643L168.343 162.393ZM174.938 162.154L174.947 162.404L174.938 162.154ZM182.149 155.002L181.899 154.992L182.149 155.002ZM182.386 148.643L182.636 148.633L182.136 148.633L182.386 148.643ZM182.624 155.002L182.374 155.011L182.624 155.002ZM189.835 162.154L189.826 162.404L189.835 162.154ZM196.429 162.393L196.438 162.643L196.438 162.144L196.429 162.393ZM189.835 162.633L189.844 162.882L189.844 162.882L189.835 162.633ZM203.494 163.849L202.895 179.948L203.395 179.966L203.993 163.867L203.494 163.849ZM203.493 69.3898L203.493 163.858L203.993 163.858L203.993 69.3898L203.493 69.3898ZM192.215 58.1274C192.215 64.486 197.386 69.6398 203.743 69.6398L203.743 69.1398C197.661 69.1398 192.715 64.2089 192.715 58.1274L192.215 58.1274ZM203.743 46.6149C197.386 46.6149 192.215 51.7687 192.215 58.1274L192.715 58.1274C192.715 52.0458 197.661 47.1149 203.743 47.1149L203.743 46.6149ZM203.493 36L203.493 46.8649L203.993 46.8649L203.993 36L203.493 36ZM173.743 6.25003C190.174 6.25003 203.493 19.5696 203.493 36L203.993 36C203.993 19.2934 190.45 5.75003 173.743 5.75003L173.743 6.25003ZM54.3458 6.25002L173.743 6.25003L173.743 5.75003L54.3458 5.75002L54.3458 6.25002ZM38.0001 6.25002L54.3458 6.25002L54.3458 5.75002L38.0001 5.75002L38.0001 6.25002ZM8.25001 36C8.25001 19.5695 21.5696 6.25002 38.0001 6.25002L38.0001 5.75002C21.2934 5.75002 7.75001 19.2934 7.75001 36L8.25001 36ZM8.25001 46.8649L8.25001 36L7.75001 36L7.75001 46.8649L8.25001 46.8649ZM8.38026 46.6149L8.00001 46.6149L8.00001 47.1149L8.38026 47.1149L8.38026 46.6149ZM19.3188 54.528C17.8076 49.9329 13.4818 46.6149 8.38026 46.6149L8.38026 47.1149C13.2594 47.1149 17.3981 50.2882 18.8438 54.6842L19.3188 54.528ZM32.14 37.3051C31.8405 45.3618 26.4123 52.0972 19.0081 54.367L19.1546 54.8451C26.7567 52.5145 32.332 45.5989 32.6397 37.3236L32.14 37.3051ZM32.7387 21.2049L32.14 37.3051L32.6397 37.3236L33.2384 21.2235L32.7387 21.2049ZM33.837 37.3051L33.2384 21.2049L32.7387 21.2235L33.3373 37.3236L33.837 37.3051ZM51.7739 55.174C42.0219 54.8188 34.1983 47.0235 33.837 37.3051L33.3373 37.3236C33.7085 47.3052 41.7434 55.3089 51.7557 55.6737L51.7739 55.174ZM68.398 55.7797L51.7739 55.174L51.7557 55.6737L68.3798 56.2793L68.398 55.7797ZM51.7739 56.885L68.398 56.2793L68.3798 55.7797L51.7557 56.3853L51.7739 56.885ZM33.837 74.754C34.1983 65.0355 42.0219 57.2403 51.7739 56.885L51.7557 56.3853C41.7434 56.7501 33.7085 64.7538 33.3373 74.7354L33.837 74.754ZM33.2383 90.8541L33.837 74.754L33.3373 74.7354L32.7387 90.8355L33.2383 90.8541ZM32.14 74.754L32.7387 90.8541L33.2383 90.8355L32.6397 74.7354L32.14 74.754ZM19.5514 57.8677C26.6766 60.2944 31.8479 66.8956 32.14 74.754L32.6397 74.7354C32.3396 66.6639 27.0281 59.8859 19.7126 57.3944L19.5514 57.8677ZM19.8927 58.1274C19.8927 57.9575 19.8891 57.7884 19.8818 57.6202L19.3822 57.6419C19.3892 57.8028 19.3927 57.9647 19.3927 58.1274L19.8927 58.1274ZM8.38026 69.6398C14.7384 69.6398 19.8927 64.4855 19.8927 58.1274L19.3927 58.1274C19.3927 64.2094 14.4623 69.1398 8.38026 69.1398L8.38026 69.6398ZM8.00001 69.6398L8.38026 69.6398L8.38026 69.1398L8.00001 69.1398L8.00001 69.6398ZM8.25001 216L8.25001 69.3898L7.75001 69.3898L7.75001 216L8.25001 216ZM38 245.75C21.5695 245.75 8.25001 232.43 8.25001 216L7.75001 216C7.75001 232.707 21.2934 246.25 38 246.25L38 245.75ZM173.743 245.75L38 245.75L38 246.25L173.743 246.25L173.743 245.75ZM203.042 221.193C200.585 235.148 188.402 245.75 173.743 245.75L173.743 246.25C188.649 246.25 201.036 235.469 203.534 221.28L203.042 221.193ZM202.895 217.397L203.038 221.246L203.538 221.227L203.395 217.378L202.895 217.397ZM184.958 199.528C194.71 199.883 202.534 207.678 202.895 217.397L203.395 217.378C203.023 207.397 194.989 199.393 184.976 199.028L184.958 199.528ZM168.334 198.922L184.958 199.528L184.976 199.028L168.352 198.422L168.334 198.922ZM184.958 197.817L168.334 198.422L168.352 198.922L184.976 198.317L184.958 197.817ZM202.895 179.948C202.534 189.666 194.71 197.462 184.958 197.817L184.976 198.317C194.989 197.952 203.023 189.948 203.395 179.966L202.895 179.948ZM54.8331 12.3496L54.5956 5.99069L54.0959 6.00935L54.3334 12.3682L54.8331 12.3496ZM61.8033 19.2615C58.0123 19.124 54.9734 16.1074 54.8331 12.3496L54.3334 12.3682C54.4837 16.391 57.7357 19.6143 61.7852 19.7612L61.8033 19.2615ZM68.398 19.5008L61.8033 19.2615L61.7852 19.7612L68.3799 20.0004L68.398 19.5008ZM61.8033 20.2396L68.398 20.0004L68.3799 19.5008L61.7852 19.74L61.8033 20.2396ZM54.8331 27.1516C54.9734 23.3937 58.0123 20.3771 61.8033 20.2396L61.7852 19.74C57.7357 19.8868 54.4837 23.1102 54.3334 27.133L54.8331 27.1516ZM54.5956 33.5105L54.8331 27.1516L54.3334 27.133L54.0959 33.4918L54.5956 33.5105ZM53.8585 27.1516L54.0959 33.5105L54.5956 33.4918L54.3581 27.133L53.8585 27.1516ZM46.8883 20.2396C50.6792 20.3771 53.7181 23.3937 53.8585 27.1516L54.3581 27.133C54.2079 23.1102 50.9559 19.8868 46.9064 19.74L46.8883 20.2396ZM40.2936 20.0004L46.8883 20.2396L46.9064 19.74L40.3117 19.5007L40.2936 20.0004ZM46.8883 19.2615L40.2936 19.5007L40.3117 20.0004L46.9064 19.7612L46.8883 19.2615ZM53.8585 12.3496C53.7181 16.1074 50.6792 19.124 46.8883 19.2615L46.9064 19.7612C50.9558 19.6143 54.2079 16.391 54.3581 12.3682L53.8585 12.3496ZM54.0959 5.99069L53.8585 12.3496L54.3581 12.3682L54.5956 6.00935L54.0959 5.99069ZM182.636 176.153L182.873 169.794L182.374 169.776L182.136 176.135L182.636 176.153ZM181.899 169.794L182.136 176.153L182.636 176.135L182.399 169.776L181.899 169.794ZM174.929 162.882C178.72 163.02 181.759 166.037 181.899 169.794L182.399 169.776C182.248 165.753 178.996 162.53 174.947 162.383L174.929 162.882ZM168.334 162.643L174.929 162.882L174.947 162.383L168.352 162.144L168.334 162.643ZM174.929 161.904L168.334 162.144L168.352 162.643L174.947 162.404L174.929 161.904ZM181.899 154.992C181.759 158.75 178.72 161.767 174.929 161.904L174.947 162.404C178.996 162.257 182.248 159.034 182.399 155.011L181.899 154.992ZM182.136 148.633L181.899 154.992L182.399 155.011L182.636 148.652L182.136 148.633ZM182.873 154.992L182.636 148.633L182.136 148.652L182.374 155.011L182.873 154.992ZM189.844 161.904C186.053 161.767 183.014 158.75 182.873 154.992L182.374 155.011C182.524 159.034 185.776 162.257 189.826 162.404L189.844 161.904ZM196.438 162.144L189.844 161.904L189.826 162.404L196.42 162.643L196.438 162.144ZM189.844 162.882L196.438 162.643L196.42 162.144L189.826 162.383L189.844 162.882ZM182.873 169.794C183.014 166.037 186.053 163.02 189.844 162.882L189.826 162.383C185.776 162.53 182.524 165.753 182.374 169.776L182.873 169.794Z" fill="#716F6F"/>
<defs>
<filter id="filter0_d_24_71" x="0.75" y="0.750031" width="210.243" height="254.5" filterUnits="userSpaceOnUse" color-interpolation-filters="sRGB">
<feFlood flood-opacity="0" result="BackgroundImageFix"/>
<feColorMatrix in="SourceAlpha" type="matrix" values="0 0 0 0 0 0 0 0 0 0 0 0 0 0 0 0 0 0 127 0" result="hardAlpha"/>
<feOffset dy="2"/>
<feGaussianBlur stdDeviation="3.5"/>
<feComposite in2="hardAlpha" operator="out"/>
<feColorMatrix type="matrix" values="0 0 0 0 0.0627451 0 0 0 0 0.537255 0 0 0 0 0.996078 0 0 0 0.15 0"/>
<feBlend mode="normal" in2="BackgroundImageFix" result="effect1_dropShadow_24_71"/>
<feBlend mode="normal" in="SourceGraphic" in2="effect1_dropShadow_24_71" result="shape"/>
</filter>
</defs>
</svg>
