<svg width="144" height="269" viewBox="0 0 144 269" fill="none" xmlns="http://www.w3.org/2000/svg">
<mask id="mask0_190_7114" style="mask-type:luminance" maskUnits="userSpaceOnUse" x="0" y="138" width="72" height="144">
<path d="M0.396973 281.657L0.396973 138.929H71.9889L71.9889 281.657H0.396973Z" fill="white"/>
</mask>
<g mask="url(#mask0_190_7114)">
<path d="M0.44751 142.381L0.44751 139.366C9.59468 139.356 18.899 141.187 27.4499 144.76C36.0101 148.328 43.8122 153.583 50.3155 160.129C56.8235 166.666 62.0557 174.509 65.6009 183.113C69.1599 191.704 70.9764 201.061 70.9718 210.256C70.9764 219.446 69.1599 228.803 65.6009 237.398C62.0557 246.003 56.8235 253.845 50.3155 260.383C43.8122 266.924 36.0101 272.184 27.4499 275.747C18.899 279.325 9.59468 281.151 0.44751 281.146L0.44751 278.126C9.20642 278.131 18.1132 276.384 26.299 272.96C34.4894 269.545 41.9587 264.513 48.1894 258.245C54.42 251.982 59.4304 244.474 62.8276 236.241C66.2341 228.018 67.9766 219.06 67.9674 210.256C67.9766 201.452 66.2341 192.498 62.8276 184.27C59.4304 176.033 54.4246 168.529 48.1894 162.266C41.9587 156.003 34.4894 150.967 26.299 147.552C18.1179 144.128 9.20642 142.376 0.44751 142.381Z" fill="#D39E2B"/>
</g>
<mask id="mask1_190_7114" style="mask-type:luminance" maskUnits="userSpaceOnUse" x="0" y="203" width="9" height="15">
<path d="M0.396973 217.43L0.396973 203.157H8.0928V217.43H0.396973Z" fill="white"/>
</mask>
<g mask="url(#mask1_190_7114)">
<path d="M0.44751 206.228L0.44751 203.208C1.44589 203.218 2.29636 203.394 3.12372 203.733C3.94645 204.077 4.73683 204.598 5.40704 205.276C6.07263 205.95 6.59955 206.744 6.94158 207.571C7.279 208.407 7.45464 209.258 7.46388 210.261C7.45464 211.265 7.279 212.12 6.94158 212.951C6.59955 213.778 6.08187 214.573 5.40704 215.246C4.73683 215.92 3.94645 216.445 3.12372 216.789C2.29636 217.128 1.44589 217.305 0.44751 217.314L0.44751 214.299C1.06225 214.285 1.50597 214.187 1.97281 213.997C2.4304 213.811 2.88799 213.509 3.28087 213.114C3.67375 212.724 3.96956 212.259 4.15907 211.799C4.34395 211.334 4.44564 210.884 4.45488 210.266C4.44564 209.653 4.34395 209.207 4.15907 208.733C3.96956 208.277 3.67375 207.813 3.28087 207.418C2.88799 207.023 2.4304 206.726 1.97281 206.54C1.5106 206.331 1.06225 206.233 0.44751 206.228Z" fill="#D39E2B"/>
</g>
<mask id="mask2_190_7114" style="mask-type:luminance" maskUnits="userSpaceOnUse" x="0" y="144" width="67" height="132">
<path d="M0.396973 275.71L0.396973 144.876H66.0726L66.0726 275.71H0.396973Z" fill="white"/>
</mask>
<g mask="url(#mask2_190_7114)">
<path d="M0.44751 148.189L0.44751 145.169C8.85052 145.159 17.3922 146.841 25.2359 150.117C33.0889 153.392 40.2532 158.219 46.2296 164.227C52.2106 170.239 57.013 177.431 60.2669 185.334C63.5348 193.218 65.1987 201.804 65.1941 210.251C65.1987 218.698 63.5302 227.284 60.2669 235.163C57.013 243.062 52.2106 250.263 46.2296 256.271C40.2532 262.278 33.0935 267.105 25.2359 270.381C17.3876 273.661 8.85052 275.338 0.44751 275.329L0.44751 272.314C8.46688 272.318 16.6064 270.715 24.085 267.588C31.5775 264.471 38.409 259.867 44.1034 254.133C49.8071 248.405 54.3876 241.538 57.4937 234.006C60.6044 226.489 62.1944 218.307 62.1897 210.251C62.1944 202.19 60.5997 194.008 57.4937 186.491C54.3876 178.96 49.8071 172.093 44.1034 166.364C38.409 160.631 31.5775 156.026 24.085 152.909C16.6064 149.782 8.46688 148.179 0.44751 148.189Z" fill="#D39E2B"/>
</g>
<mask id="mask3_190_7114" style="mask-type:luminance" maskUnits="userSpaceOnUse" x="0" y="156" width="55" height="108">
<path d="M0.396973 263.816L0.396973 156.77H54.24L54.24 263.816H0.396973Z" fill="white"/>
</mask>
<g mask="url(#mask3_190_7114)">
<path d="M0.44751 159.795L0.44751 156.775C7.37144 156.775 14.3739 158.15 20.8126 160.845C27.265 163.531 33.149 167.498 38.0623 172.442C42.9756 177.381 46.9275 183.3 49.5991 189.781C52.2799 196.258 53.6481 203.297 53.6481 210.252C53.6481 217.212 52.2799 224.246 49.5991 230.718C46.9275 237.204 42.9756 243.118 38.0623 248.057C33.149 253 27.2558 256.968 20.8126 259.654C14.3647 262.348 7.36682 263.724 0.44751 263.724L0.44751 260.704C6.98781 260.704 13.5836 259.407 19.6616 256.866C25.7444 254.334 31.3001 250.584 35.9407 245.929C40.5813 241.264 44.3022 235.675 46.8212 229.561C49.3495 223.456 50.6437 216.817 50.6437 210.252C50.6437 203.677 49.3495 197.048 46.8212 190.938C44.3022 184.824 40.5767 179.234 35.9407 174.574C31.3001 169.91 25.7444 166.165 19.6616 163.633C13.5882 161.091 6.98781 159.795 0.44751 159.795Z" fill="#D39E2B"/>
</g>
<mask id="mask4_190_7114" style="mask-type:luminance" maskUnits="userSpaceOnUse" x="0" y="150" width="61" height="120">
<path d="M0.396973 269.763L0.396973 150.823H60.1563L60.1563 269.763H0.396973Z" fill="white"/>
</mask>
<g mask="url(#mask4_190_7114)">
<path d="M0.44751 153.992L0.44751 150.972C8.10636 150.967 15.8808 152.491 23.0266 155.483C30.177 158.461 36.708 162.861 42.1529 168.334C47.5977 173.807 51.9749 180.368 54.9376 187.56C57.9143 194.743 59.4303 202.548 59.4257 210.256C59.4303 217.954 57.9143 225.769 54.9376 232.952C51.9749 240.14 47.5977 246.7 42.1529 252.178C36.708 257.651 30.177 262.05 23.0266 265.029C15.8808 268.016 8.1156 269.545 0.44751 269.54L0.44751 266.52C7.72272 266.525 15.095 265.075 21.8756 262.236C28.6609 259.411 34.8545 255.235 40.0267 250.04C45.1988 244.841 49.3495 238.616 52.1644 231.795C54.9839 224.979 56.4213 217.573 56.4213 210.256C56.426 202.943 54.9839 195.528 52.1644 188.717C49.3495 181.896 45.1988 175.67 40.0267 170.471C34.8545 165.272 28.6609 161.096 21.8756 158.271C15.095 155.441 7.72734 153.992 0.44751 153.992Z" fill="#D39E2B"/>
</g>
<mask id="mask5_190_7114" style="mask-type:luminance" maskUnits="userSpaceOnUse" x="0" y="161" width="49" height="99">
<path d="M0.396973 259.059L0.396973 161.528H48.3237L48.3237 259.059H0.396973Z" fill="white"/>
</mask>
<g mask="url(#mask5_190_7114)">
<path d="M0.44751 165.598L0.44751 162.578C6.6319 162.578 12.8579 163.804 18.6032 166.202C24.3485 168.595 29.5992 172.135 33.9856 176.539C38.3674 180.944 41.8894 186.226 44.2698 192.002C46.6594 197.767 47.8797 204.035 47.875 210.251C47.875 216.463 46.6502 222.726 44.2698 228.501C41.8894 234.272 38.3674 239.554 33.9856 243.959C29.5992 248.363 24.3485 251.908 18.6032 254.296C12.8671 256.698 6.6319 257.925 0.44751 257.92L0.44751 254.9C6.24364 254.9 12.0768 253.753 17.4523 251.509C22.8324 249.269 27.755 245.957 31.864 241.826C35.9685 237.696 39.264 232.752 41.4919 227.344C43.7244 221.936 44.8707 216.078 44.8707 210.251C44.8707 204.421 43.7244 198.562 41.4919 193.158C39.264 187.746 35.9685 182.802 31.864 178.672C27.755 174.542 22.8324 171.229 17.4523 168.989C12.0768 166.75 6.24364 165.598 0.44751 165.598Z" fill="#D39E2B"/>
</g>
<mask id="mask6_190_7114" style="mask-type:luminance" maskUnits="userSpaceOnUse" x="0" y="167" width="43" height="87">
<path d="M0.396973 253.111L0.396973 167.475H42.4074L42.4074 253.111H0.396973Z" fill="white"/>
</mask>
<g mask="url(#mask6_190_7114)">
<path d="M0.44751 171.401L0.44751 168.381C5.88774 168.381 11.3511 169.463 16.3892 171.563C21.4319 173.663 26.0494 176.767 29.8996 180.646C33.7499 184.516 36.8467 189.158 38.9313 194.227C41.0251 199.286 42.102 204.783 42.102 210.251C42.102 215.72 41.0251 221.211 38.9313 226.271C36.8467 231.34 33.7545 235.981 29.8996 239.851C26.0494 243.722 21.4319 246.839 16.3892 248.935C11.3511 251.035 5.88774 252.117 0.44751 252.117L0.44751 249.097C5.50411 249.097 10.5699 248.098 15.2383 246.142C19.9112 244.2 24.1959 241.315 27.7735 237.719C31.3464 234.127 34.2167 229.82 36.1534 225.123C38.09 220.421 39.0884 215.334 39.0884 210.256C39.0884 205.173 38.0993 200.081 36.1534 195.388C34.2167 190.691 31.3464 186.384 27.7735 182.788C24.1959 179.192 19.9112 176.311 15.2383 174.365C10.5699 172.404 5.50411 171.405 0.44751 171.401Z" fill="#D39E2B"/>
</g>
<mask id="mask7_190_7114" style="mask-type:luminance" maskUnits="userSpaceOnUse" x="0" y="173" width="37" height="75">
<path d="M0.396973 247.164L0.396973 173.421H36.4911L36.4911 247.164H0.396973Z" fill="white"/>
</mask>
<g mask="url(#mask7_190_7114)">
<path d="M0.44751 177.203L0.44751 174.183C5.14358 174.183 9.84427 175.113 14.1798 176.924C18.52 178.732 22.495 181.408 25.8183 184.749C29.1462 188.094 31.8039 192.085 33.602 196.452C35.4046 200.81 36.3244 205.526 36.3336 210.256C36.3336 214.976 35.4092 219.701 33.602 224.059C31.8086 228.422 29.1462 232.417 25.8183 235.758C22.495 239.103 18.52 241.775 14.1798 243.582C9.84427 245.394 5.15282 246.319 0.44751 246.328L0.44751 243.308C4.76457 243.308 9.05389 242.453 13.0289 240.799C17.0039 239.15 20.6508 236.692 23.6921 233.635C26.7381 230.573 29.1786 226.907 30.8241 222.912C32.4695 218.921 33.3154 214.609 33.3154 210.265C33.3108 205.925 32.4695 201.614 30.8241 197.618C29.1786 193.627 26.7381 189.961 23.6921 186.9C20.6508 183.838 17.0039 181.385 13.0289 179.735C9.05389 178.058 4.76457 177.208 0.44751 177.203Z" fill="#D39E2B"/>
</g>
<mask id="mask8_190_7114" style="mask-type:luminance" maskUnits="userSpaceOnUse" x="0" y="179" width="31" height="63">
<path d="M0.396973 241.217L0.396973 179.369H30.5748L30.5748 241.217H0.396973Z" fill="white"/>
</mask>
<g mask="url(#mask8_190_7114)">
<path d="M0.44751 183.011L0.44751 179.991C4.40866 180 8.32822 180.776 11.9658 182.291C15.5988 183.801 18.9406 186.05 21.737 188.856C24.5287 191.662 26.7612 195.026 28.268 198.678C29.7748 202.33 30.5514 206.279 30.5514 210.256C30.5467 214.237 29.7748 218.177 28.268 221.834C26.7658 225.486 24.5287 228.845 21.737 231.651C18.9406 234.462 15.5988 236.706 11.9658 238.221C8.32822 239.735 4.40404 240.516 0.44751 240.516L0.44751 237.496C4.02503 237.491 7.54708 236.794 10.8149 235.428C14.0781 234.072 17.0918 232.046 19.6062 229.523C22.1206 226.991 24.1359 223.966 25.4855 220.682C26.8444 217.392 27.5377 213.852 27.5424 210.26C27.5377 206.664 26.8444 203.124 25.4855 199.839C24.1359 196.559 22.1206 193.53 19.6062 191.002C17.0918 188.475 14.0781 186.449 10.8149 185.092C7.54708 183.713 4.02503 183.011 0.44751 183.011Z" fill="#D39E2B"/>
</g>
<mask id="mask9_190_7114" style="mask-type:luminance" maskUnits="userSpaceOnUse" x="0" y="185" width="26" height="51">
<path d="M0.396973 235.271L0.396973 185.316H25.8417L25.8417 235.271H0.396973Z" fill="white"/>
</mask>
<g mask="url(#mask9_190_7114)">
<path d="M0.44751 188.814L0.44751 185.794C3.66913 185.804 6.82141 186.431 9.75645 187.653C12.6915 188.875 15.3908 190.691 17.6556 192.963C19.9159 195.235 21.7231 197.953 22.9387 200.899C24.1543 203.849 24.7783 207.018 24.7876 210.256C24.7783 213.49 24.1543 216.663 22.9387 219.613C21.7231 222.559 19.9159 225.272 17.6556 227.549C15.3954 229.821 12.6915 231.637 9.75645 232.859C6.82141 234.081 3.66913 234.708 0.44751 234.713L0.44751 231.693C3.28087 231.688 6.03565 231.135 8.60555 230.067C11.1708 228.998 13.542 227.405 15.5295 225.416C17.517 223.418 19.0977 221.035 20.1562 218.456C21.2193 215.868 21.7693 213.104 21.7786 210.256C21.7693 207.408 21.2193 204.639 20.1562 202.056C19.0931 199.477 17.5124 197.094 15.5295 195.096C13.542 193.098 11.1708 191.504 8.60555 190.445C6.04027 189.367 3.28087 188.824 0.44751 188.814Z" fill="#D39E2B"/>
</g>
<mask id="mask10_190_7114" style="mask-type:luminance" maskUnits="userSpaceOnUse" x="0" y="191" width="20" height="39">
<path d="M0.396973 229.323L0.396973 191.263H19.9254L19.9254 229.323H0.396973Z" fill="white"/>
</mask>
<g mask="url(#mask10_190_7114)">
<path d="M0.44751 194.617L0.44751 191.602C2.92496 191.606 5.3146 192.08 7.54708 193.014C9.77494 193.943 11.841 195.328 13.5697 197.07C15.303 198.808 16.6804 200.885 17.6048 203.124C18.5292 205.368 19.0007 207.765 19.0146 210.26C19.0053 212.751 18.5339 215.153 17.6048 217.397C16.6804 219.636 15.303 221.713 13.5697 223.455C11.841 225.193 9.77494 226.577 7.54708 227.507C5.3146 228.436 2.92959 228.91 0.44751 228.924L0.44751 225.904C2.54133 225.894 4.52422 225.5 6.39617 224.724C8.25889 223.948 9.9968 222.782 11.4528 221.327C12.9041 219.864 14.0643 218.122 14.8269 216.245C15.5988 214.372 15.9963 212.374 16.0009 210.265C15.9963 208.165 15.5988 206.167 14.8269 204.286C14.055 202.413 12.8995 200.671 11.4528 199.207C9.9968 197.744 8.25889 196.582 6.39617 195.811C4.52422 195.026 2.54595 194.626 0.44751 194.617Z" fill="#D39E2B"/>
</g>
<mask id="mask11_190_7114" style="mask-type:luminance" maskUnits="userSpaceOnUse" x="0" y="197" width="15" height="27">
<path d="M0.396973 223.376L0.396973 197.21H14.0091L14.0091 223.376H0.396973Z" fill="white"/>
</mask>
<g mask="url(#mask11_190_7114)">
<path d="M0.44751 200.42L0.44751 197.405C2.19005 197.409 3.80317 197.739 5.33309 198.371C6.85839 199.008 8.29124 199.965 9.48837 201.168C10.6855 202.372 11.6377 203.812 12.2709 205.345C12.8995 206.883 13.2277 208.509 13.2323 210.256C13.2277 212.008 12.8995 213.624 12.2709 215.167C11.6377 216.7 10.6855 218.136 9.48837 219.344C8.29124 220.547 6.85839 221.504 5.33309 222.136C3.80317 222.773 2.1808 223.102 0.44751 223.107L0.44751 220.087C1.80179 220.078 3.01741 219.832 4.18218 219.348C5.33771 218.865 6.43777 218.136 7.3622 217.211C8.282 216.282 9.00767 215.176 9.48837 214.015C9.96445 212.844 10.2187 211.617 10.2233 210.261C10.214 208.899 9.96445 207.677 9.48837 206.507C9.00767 205.345 8.282 204.239 7.3622 203.31C6.43777 202.385 5.33771 201.656 4.18218 201.173C3.01741 200.68 1.80179 200.429 0.44751 200.42Z" fill="#D39E2B"/>
</g>
<path d="M143.761 203.199V206.219C143.146 206.232 142.703 206.33 142.236 206.521C141.778 206.706 141.316 207.008 140.923 207.399C140.535 207.794 140.235 208.258 140.05 208.718C139.86 209.178 139.763 209.633 139.749 210.251C139.763 210.865 139.86 211.311 140.05 211.785C140.235 212.24 140.535 212.704 140.923 213.099C141.316 213.49 141.778 213.792 142.236 213.977C142.698 214.168 143.146 214.266 143.761 214.279V217.299C142.758 217.285 141.912 217.109 141.085 216.77C140.258 216.431 139.472 215.906 138.797 215.232C138.131 214.554 137.605 213.764 137.267 212.932C136.93 212.1 136.754 211.246 136.74 210.242C136.754 209.238 136.93 208.388 137.267 207.552C137.605 206.725 138.127 205.93 138.797 205.257C139.472 204.588 140.258 204.058 141.085 203.719C141.912 203.389 142.758 203.212 143.761 203.199Z" fill="#D39E2B"/>
<path d="M143.761 139.365V142.381C135.002 142.376 126.096 144.128 117.91 147.552C109.715 150.967 102.245 155.998 96.0195 162.266C89.7889 168.529 84.7739 176.032 81.3812 184.27C77.9747 192.493 76.2322 201.451 76.2368 210.255C76.2322 219.06 77.9747 228.013 81.3812 236.241C84.7739 244.474 89.7842 251.982 96.0195 258.245C102.245 264.503 109.715 269.544 117.91 272.959C126.091 276.383 135.002 278.13 143.761 278.126V281.146C134.614 281.15 125.305 279.324 116.759 275.747C108.194 272.183 100.397 266.924 93.8933 260.382C87.3807 253.845 82.1531 246.002 78.6033 237.398C75.0443 228.803 73.2278 219.445 73.2324 210.255C73.2278 201.061 75.0443 191.704 78.6033 183.113C82.1531 174.508 87.3807 166.666 93.8933 160.129C100.397 153.582 108.194 148.328 116.759 144.76C125.305 141.187 134.614 139.356 143.761 139.365Z" fill="#D39E2B"/>
<path d="M143.761 197.396V200.415C142.402 200.429 141.186 200.676 140.026 201.154C138.866 201.637 137.771 202.367 136.846 203.296C135.922 204.221 135.201 205.326 134.72 206.488C134.239 207.659 133.99 208.881 133.985 210.242C133.994 211.608 134.239 212.83 134.72 213.996C135.201 215.158 135.922 216.263 136.846 217.192C137.771 218.122 138.866 218.847 140.026 219.33C141.186 219.813 142.402 220.064 143.761 220.068V223.102C142.018 223.093 140.405 222.768 138.875 222.131C137.35 221.499 135.917 220.542 134.72 219.334C133.523 218.131 132.571 216.691 131.937 215.158C131.309 213.62 130.981 211.994 130.971 210.251C130.981 208.5 131.309 206.878 131.937 205.34C132.571 203.807 133.523 202.367 134.72 201.163C135.917 199.96 137.35 199.003 138.875 198.367C140.405 197.739 142.018 197.409 143.761 197.396Z" fill="#D39E2B"/>
<path d="M143.761 185.789V188.809C140.923 188.814 138.173 189.367 135.603 190.436C133.038 191.504 130.662 193.098 128.679 195.091C126.692 197.084 125.106 199.472 124.048 202.051C122.985 204.634 122.435 207.398 122.43 210.251C122.435 213.099 122.985 215.864 124.048 218.447C125.111 221.025 126.696 223.414 128.679 225.411C130.662 227.405 133.038 228.998 135.603 230.062C138.173 231.131 140.923 231.684 143.761 231.688V234.708C140.54 234.704 137.383 234.072 134.452 232.85C131.517 231.628 128.818 229.816 126.548 227.539C124.288 225.267 122.486 222.549 121.27 219.604C120.054 216.658 119.426 213.485 119.421 210.251C119.426 207.013 120.054 203.84 121.27 200.894C122.486 197.944 124.288 195.23 126.548 192.958C128.813 190.682 131.517 188.87 134.452 187.648C137.383 186.426 140.54 185.794 143.761 185.789Z" fill="#D39E2B"/>
<path d="M143.761 191.593V194.612C141.667 194.617 139.68 195.017 137.812 195.793C135.945 196.568 134.212 197.73 132.756 199.189C131.3 200.652 130.144 202.395 129.377 204.272C128.605 206.144 128.207 208.142 128.203 210.251C128.207 212.351 128.605 214.349 129.377 216.231C130.149 218.103 131.309 219.845 132.756 221.309C134.212 222.772 135.945 223.934 137.812 224.705C139.675 225.481 141.662 225.881 143.761 225.885V228.905C141.283 228.901 138.894 228.422 136.661 227.488C134.433 226.559 132.363 225.174 130.634 223.437C128.905 221.699 127.528 219.618 126.604 217.378C125.679 215.134 125.208 212.742 125.194 210.242C125.198 207.752 125.675 205.35 126.604 203.106C127.528 200.871 128.905 198.789 130.634 197.052C132.363 195.314 134.433 193.925 136.661 192.996C138.894 192.08 141.283 191.602 143.761 191.593Z" fill="#D39E2B"/>
<path d="M143.761 179.987V183.007C140.184 183.011 136.661 183.713 133.394 185.074C130.126 186.431 127.117 188.457 124.598 190.984C122.088 193.516 120.068 196.541 118.718 199.826C117.364 203.11 116.671 206.655 116.662 210.242C116.671 213.838 117.364 217.379 118.718 220.663C120.068 223.948 122.088 226.973 124.598 229.505C127.117 232.028 130.126 234.058 133.394 235.415C136.666 236.776 140.188 237.473 143.761 237.482V240.497C139.795 240.493 135.876 239.717 132.243 238.202C128.605 236.692 125.263 234.444 122.472 231.637C119.68 228.827 117.447 225.467 115.941 221.816C114.429 218.159 113.653 214.215 113.653 210.238C113.662 206.256 114.429 202.316 115.941 198.659C117.438 195.008 119.68 191.648 122.472 188.838C125.263 186.031 128.605 183.787 132.243 182.273C135.876 180.767 139.795 179.991 143.761 179.987Z" fill="#D39E2B"/>
<path d="M143.761 174.183V177.203C139.439 177.203 135.15 178.054 131.18 179.712C127.205 181.362 123.558 183.815 120.512 186.876C117.471 189.938 115.025 193.604 113.385 197.595C111.739 201.591 110.889 205.902 110.889 210.242C110.898 214.586 111.739 218.897 113.385 222.888C115.025 226.884 117.471 230.55 120.512 233.607C123.558 236.669 127.205 239.126 131.18 240.776C135.15 242.43 139.439 243.285 143.761 243.285V246.3C139.056 246.3 134.364 245.375 130.029 243.559C125.684 241.756 121.714 239.075 118.386 235.735C115.062 232.394 112.405 228.399 110.602 224.036C108.804 219.678 107.88 214.957 107.875 210.232C107.875 205.503 108.799 200.787 110.602 196.429C112.395 192.061 115.062 188.07 118.386 184.725C121.714 181.385 125.684 178.713 130.029 176.901C134.364 175.113 139.056 174.188 143.761 174.183Z" fill="#D39E2B"/>
<path d="M143.761 168.381V171.401C138.704 171.401 133.639 172.4 128.97 174.356C124.293 176.298 120.013 179.183 116.435 182.779C112.857 186.371 109.992 190.678 108.055 195.375C106.114 200.077 105.115 205.164 105.115 210.242C105.115 215.325 106.109 220.417 108.055 225.11C109.992 229.807 112.857 234.114 116.435 237.71C120.013 241.306 124.293 244.187 128.97 246.133C133.643 248.085 138.704 249.088 143.761 249.088V252.108C138.321 252.108 132.857 251.026 127.819 248.921C122.777 246.826 118.159 243.717 114.309 239.842C110.459 235.972 107.362 231.331 105.273 226.262C103.183 221.198 102.106 215.706 102.106 210.238C102.106 204.769 103.183 199.277 105.273 194.213C107.362 189.144 110.449 184.503 114.309 180.633C118.159 176.762 122.777 173.65 127.819 171.554C132.857 169.463 138.321 168.381 143.761 168.381Z" fill="#D39E2B"/>
<path d="M143.761 162.578V165.598C137.965 165.598 132.132 166.75 126.757 168.989C121.372 171.229 116.454 174.542 112.345 178.672C108.236 182.802 104.94 187.746 102.717 193.158C100.484 198.562 99.3381 204.421 99.3381 210.251C99.3381 216.078 100.484 221.936 102.717 227.344C104.94 232.752 108.236 237.696 112.345 241.826C116.454 245.957 121.372 249.269 126.757 251.509C132.132 253.753 137.965 254.9 143.761 254.9V257.92C137.577 257.92 131.346 256.694 125.606 254.296C119.86 251.908 114.605 248.363 110.223 243.959C105.841 239.554 102.319 234.272 99.939 228.501C97.5494 222.731 96.3291 216.463 96.3338 210.251C96.3338 204.035 97.554 197.772 99.939 192.002C102.319 186.226 105.841 180.944 110.223 176.539C114.605 172.135 119.86 168.595 125.606 166.202C131.342 163.804 137.577 162.578 143.761 162.578Z" fill="#D39E2B"/>
<path d="M143.761 156.774V159.794C137.221 159.794 130.625 161.091 124.547 163.632C118.464 166.164 112.904 169.914 108.268 174.574C103.627 179.234 99.9016 184.823 97.3872 190.937C94.8542 197.047 93.5647 203.681 93.5647 210.251C93.5647 216.82 94.8542 223.455 97.3872 229.56C99.9016 235.674 103.632 241.264 108.268 245.928C112.904 250.588 118.464 254.333 124.547 256.865C130.625 259.407 137.225 260.703 143.761 260.703V263.723C136.837 263.723 129.834 262.348 123.396 259.653C116.943 256.967 111.059 253 106.146 248.061C101.228 243.117 97.2809 237.198 94.6093 230.717C91.9284 224.24 90.5603 217.201 90.5603 210.251C90.5603 203.286 91.9284 196.252 94.6093 189.78C97.2809 183.294 101.228 177.38 106.146 172.441C111.059 167.498 116.948 163.53 123.396 160.844C129.834 158.15 136.837 156.774 143.761 156.774Z" fill="#D39E2B"/>
<path d="M143.761 150.971V153.991C136.486 153.982 129.109 155.436 122.333 158.27C115.548 161.095 109.354 165.272 104.182 170.471C99.0096 175.67 94.8543 181.896 92.0441 188.716C89.22 195.527 87.7825 202.938 87.7825 210.256C87.7779 217.569 89.22 224.979 92.0441 231.795C94.8543 238.615 99.0096 244.841 104.182 250.04C109.354 255.234 115.548 259.411 122.333 262.236C129.109 265.075 136.477 266.52 143.761 266.52V269.54C136.097 269.544 128.328 268.016 121.182 265.028C114.027 262.05 107.5 257.65 102.056 252.177C96.6061 246.7 92.2336 240.139 89.2708 232.952C86.2942 225.769 84.7735 217.959 84.7828 210.256C84.7735 202.552 86.2942 194.742 89.2708 187.559C92.2336 180.367 96.6061 173.807 102.056 168.334C107.5 162.861 114.027 158.461 121.182 155.483C128.328 152.491 136.093 150.967 143.761 150.971Z" fill="#D39E2B"/>
<path d="M143.761 145.169V148.189C135.742 148.179 127.602 149.782 120.124 152.909C112.631 156.027 105.8 160.631 100.101 166.364C94.4017 172.093 89.8165 178.96 86.7151 186.491C83.5998 194.008 82.0098 202.19 82.019 210.251C82.0098 218.307 83.6044 226.489 86.7151 234.007C89.8165 241.538 94.4017 248.405 100.101 254.134C105.8 259.867 112.631 264.471 120.124 267.589C127.602 270.72 135.742 272.318 143.761 272.314V275.329C135.358 275.338 126.812 273.656 118.973 270.381C111.12 267.105 103.956 262.278 97.9746 256.271C91.9982 250.263 87.1958 243.067 83.9418 235.164C80.674 227.279 79.01 218.698 79.0147 210.251C79.01 201.805 80.6786 193.214 83.9418 185.334C87.1958 177.436 91.9982 170.239 97.9746 164.227C103.956 158.22 111.111 153.392 118.973 150.117C126.812 146.841 135.358 145.159 143.761 145.169Z" fill="#D39E2B"/>
<mask id="mask12_190_7114" style="mask-type:luminance" maskUnits="userSpaceOnUse" x="0" y="-14" width="72" height="144">
<path d="M0.396973 129.414L0.396973 -13.314H71.9889L71.9889 129.414H0.396973Z" fill="white"/>
</mask>
<g mask="url(#mask12_190_7114)">
<path d="M0.44751 125.962L0.44751 128.977C9.59468 128.986 18.899 127.156 27.4499 123.583C36.0101 120.015 43.8122 114.76 50.3155 108.214C56.8235 101.677 62.0557 93.8341 65.6009 85.2295C69.1599 76.6389 70.9764 67.2817 70.9718 58.0871C70.9764 48.8971 69.1599 39.5399 65.6009 30.9446C62.0557 22.34 56.8235 14.4974 50.3155 7.9604C43.8122 1.41869 36.0101 -3.84068 27.4499 -7.40423C18.899 -10.9817 9.59468 -12.8076 0.44751 -12.803L0.44751 -9.78303C9.20642 -9.78768 18.1132 -8.04075 26.299 -4.61658C34.4894 -1.2017 41.9587 3.83002 48.1894 10.0976C54.42 16.3605 59.4304 23.8686 62.8276 32.1015C66.2341 40.3251 67.9766 49.2827 67.9674 58.0871C67.9766 66.8914 66.2341 75.8444 62.8276 84.0727C59.4304 92.3102 54.4246 99.8136 48.1894 106.077C41.9587 112.339 34.4894 117.38 26.299 120.791C18.1179 124.215 9.20642 125.966 0.44751 125.962Z" fill="#D39E2B"/>
</g>
<mask id="mask13_190_7114" style="mask-type:luminance" maskUnits="userSpaceOnUse" x="0" y="50" width="9" height="16">
<path d="M0.396973 65.1862L0.396973 50.9134H8.0928V65.1862H0.396973Z" fill="white"/>
</mask>
<g mask="url(#mask13_190_7114)">
<path d="M0.448242 62.1145L0.448242 65.1344C1.44662 65.1251 2.29709 64.9486 3.12445 64.6094C3.94718 64.2656 4.73757 63.7452 5.40777 63.0669C6.07336 62.3932 6.60028 61.5987 6.94232 60.7717C7.27973 59.9354 7.45537 59.0852 7.46461 58.0816C7.45537 57.0781 7.27973 56.2232 6.94232 55.3916C6.60028 54.5646 6.0826 53.7701 5.40777 53.0964C4.73757 52.4227 3.94718 51.8977 3.12445 51.5539C2.29709 51.2147 1.44662 51.0382 0.448242 51.0289L0.448242 54.0442C1.06298 54.0581 1.50671 54.1557 1.97354 54.3462C2.43113 54.532 2.88872 54.834 3.2816 55.2289C3.67448 55.6192 3.97029 56.0838 4.1598 56.5438C4.34469 57.0084 4.44637 57.4591 4.45562 58.077C4.44637 58.6903 4.34469 59.141 4.1598 59.6102C3.97029 60.0655 3.67448 60.5301 3.2816 60.9251C2.88872 61.32 2.43113 61.6173 1.97354 61.8032C1.51133 62.0122 1.06298 62.1098 0.448242 62.1145Z" fill="#D39E2B"/>
</g>
<mask id="mask14_190_7114" style="mask-type:luminance" maskUnits="userSpaceOnUse" x="0" y="-8" width="67" height="132">
<path d="M0.396973 123.467L0.396973 -7.36725H66.0726L66.0726 123.467H0.396973Z" fill="white"/>
</mask>
<g mask="url(#mask14_190_7114)">
<path d="M0.44751 120.159L0.44751 123.174C8.85052 123.183 17.3922 121.501 25.2359 118.226C33.0889 114.95 40.2532 110.123 46.2296 104.116C52.2106 98.1083 57.013 90.9115 60.2669 83.0085C63.5348 75.1241 65.1987 66.5381 65.1941 58.0915C65.1987 49.6449 63.5302 41.0589 60.2669 33.1792C57.013 25.2808 52.2106 18.0794 46.2296 12.072C40.2532 6.06458 33.0935 1.23729 25.2359 -2.03821C17.3876 -5.31835 8.85052 -6.99558 0.44751 -6.98629L0.44751 -3.97098C8.46688 -3.97563 16.6064 -2.37273 24.085 0.754097C31.5775 3.87162 38.409 8.4759 44.1034 14.2092C49.8071 19.9378 54.3876 26.8047 57.4937 34.336C60.6044 41.8534 62.1944 50.0352 62.1897 58.0915C62.1944 66.1525 60.5997 74.3342 57.4937 81.8516C54.3876 89.3829 49.8071 96.2499 44.1034 101.978C38.409 107.712 31.5775 112.316 24.085 115.434C16.6064 118.56 8.46688 120.163 0.44751 120.159Z" fill="#D39E2B"/>
</g>
<mask id="mask15_190_7114" style="mask-type:luminance" maskUnits="userSpaceOnUse" x="0" y="4" width="55" height="108">
<path d="M0.396973 111.573L0.396973 4.52716H54.24L54.24 111.573H0.396973Z" fill="white"/>
</mask>
<g mask="url(#mask15_190_7114)">
<path d="M0.448242 108.548L0.448242 111.568C7.37217 111.568 14.3747 110.193 20.8133 107.498C27.2658 104.813 33.1497 100.845 38.063 95.9017C42.9763 90.9629 46.9282 85.0438 49.5998 78.5625C52.2807 72.0858 53.6488 65.047 53.6488 58.0918C53.6488 51.132 52.2807 44.0978 49.5998 37.6258C46.9282 31.1398 42.9763 25.2254 38.063 20.2866C33.1497 15.3431 27.2565 11.3754 20.8133 8.68992C14.3654 5.99518 7.36755 4.61994 0.448242 4.61994L0.448242 7.6399C6.98854 7.6399 13.5843 8.93616 19.6624 11.4776C25.7451 14.0097 31.3009 17.7591 35.9415 22.4145C40.5821 27.0791 44.3029 32.6684 46.8219 38.7826C49.3502 44.8876 50.6444 51.5269 50.6444 58.0918C50.6444 64.666 49.3502 71.3006 46.8219 77.4056C44.3029 83.5199 40.5775 89.1091 35.9415 93.7738C31.3009 98.4338 25.7451 102.179 19.6624 104.711C13.5889 107.252 6.98854 108.548 0.448242 108.548Z" fill="#D39E2B"/>
</g>
<mask id="mask16_190_7114" style="mask-type:luminance" maskUnits="userSpaceOnUse" x="0" y="-2" width="61" height="120">
<path d="M0.396973 117.52L0.396973 -1.42005H60.1563L60.1563 117.52H0.396973Z" fill="white"/>
</mask>
<g mask="url(#mask16_190_7114)">
<path d="M0.44751 114.352L0.44751 117.372C8.10636 117.381 15.8808 115.852 23.0266 112.86C30.177 109.882 36.708 105.482 42.1529 100.009C47.5977 94.5362 51.9749 87.9759 54.9376 80.7838C57.9143 73.6009 59.4303 65.7955 59.4257 58.0876C59.4303 50.3891 57.9143 42.5743 54.9376 35.3915C51.9749 28.204 47.5977 21.6437 42.1529 16.166C36.708 10.6929 30.177 6.29301 23.0266 3.31487C15.8808 0.327431 8.1156 -1.20113 0.44751 -1.19648L0.44751 1.82348C7.72272 1.81883 15.095 3.26841 21.8756 6.10717C28.6609 8.932 34.8545 13.1088 40.0267 18.3032C45.1988 23.5021 49.3495 29.7279 52.1644 36.5484C54.9839 43.3642 56.4213 50.7701 56.4213 58.0876C56.426 65.4006 54.9839 72.8158 52.1644 79.6269C49.3495 86.4474 45.1988 92.6731 40.0267 97.8721C34.8545 103.071 28.6609 107.248 21.8756 110.073C15.095 112.902 7.72734 114.352 0.44751 114.352Z" fill="#D39E2B"/>
</g>
<mask id="mask17_190_7114" style="mask-type:luminance" maskUnits="userSpaceOnUse" x="0" y="9" width="49" height="98">
<path d="M0.396973 106.815L0.396973 9.28428H48.3237L48.3237 106.815H0.396973Z" fill="white"/>
</mask>
<g mask="url(#mask17_190_7114)">
<path d="M0.44751 102.745L0.44751 105.765C6.6319 105.765 12.8579 104.538 18.6032 102.141C24.3485 99.753 29.5992 96.2081 33.9856 91.8036C38.3674 87.3991 41.8894 82.1165 44.2698 76.346C46.6594 70.5756 47.8797 64.308 47.875 58.0915C47.875 51.8797 46.6502 45.6168 44.2698 39.8417C41.8894 34.0712 38.3674 28.7886 33.9856 24.3841C29.5992 19.9796 24.3485 16.4347 18.6032 14.0466C12.8671 11.6445 6.6319 10.418 0.44751 10.4226L0.44751 13.4426C6.24364 13.4426 12.0768 14.5902 17.4523 16.8342C22.8324 19.0736 27.755 22.3863 31.864 26.5167C35.9685 30.6471 39.264 35.5905 41.4919 41.0032C43.7244 46.4066 44.8707 52.2653 44.8707 58.0915C44.8707 63.9224 43.7244 69.7811 41.4919 75.1845C39.264 80.5972 35.9685 85.5406 31.864 89.671C27.755 93.8014 22.8324 97.114 17.4523 99.3535C12.0768 101.593 6.24364 102.745 0.44751 102.745Z" fill="#D39E2B"/>
</g>
<mask id="mask18_190_7114" style="mask-type:luminance" maskUnits="userSpaceOnUse" x="0" y="15" width="43" height="86">
<path d="M0.396973 100.868L0.396973 15.2315H42.4074L42.4074 100.868H0.396973Z" fill="white"/>
</mask>
<g mask="url(#mask18_190_7114)">
<path d="M0.44751 96.9423L0.44751 99.9623C5.88774 99.9623 11.3511 98.8798 16.3892 96.7797C21.4319 94.6797 26.0494 91.5761 29.8996 87.6966C33.7499 83.8264 36.8467 79.185 38.9313 74.1161C41.0251 69.0565 42.102 63.5648 42.102 58.0917C42.102 52.6233 41.0251 47.1316 38.9313 42.072C36.8467 37.0031 33.7545 32.3617 29.8996 28.4915C26.0494 24.6213 21.4319 21.5084 16.3892 19.4084C11.3511 17.3083 5.88774 16.2258 0.44751 16.2258L0.44751 19.2457C5.50411 19.2457 10.5699 20.2447 15.2383 22.2007C19.9112 24.1427 24.1959 27.0279 27.7735 30.624C31.3464 34.2155 34.2167 38.5224 36.1534 43.2196C38.09 47.9214 39.0884 53.0089 39.0884 58.0871C39.0884 63.1699 38.0993 68.262 36.1534 72.9546C34.2167 77.6518 31.3464 81.9587 27.7735 85.5548C24.1959 89.1508 19.9112 92.0314 15.2383 93.9781C10.5699 95.9388 5.50411 96.9377 0.44751 96.9423Z" fill="#D39E2B"/>
</g>
<mask id="mask19_190_7114" style="mask-type:luminance" maskUnits="userSpaceOnUse" x="0" y="21" width="37" height="74">
<path d="M0.396973 94.9214L0.396973 21.1787H36.4911L36.4911 94.9214H0.396973Z" fill="white"/>
</mask>
<g mask="url(#mask19_190_7114)">
<path d="M0.44751 91.1396L0.44751 94.1595C5.14358 94.1595 9.84427 93.2303 14.1798 91.4183C18.52 89.611 22.495 86.9348 25.8183 83.5943C29.1462 80.2491 31.8039 76.2581 33.602 71.8908C35.4046 67.5328 36.3244 62.817 36.3336 58.0873C36.3336 53.3668 35.4092 48.6418 33.602 44.2837C31.8086 39.921 29.1462 35.9254 25.8183 32.5849C22.495 29.2443 18.52 26.5682 14.1798 24.7608C9.84427 22.9535 5.15282 22.0243 0.44751 22.015L0.44751 25.035C4.76457 25.035 9.05389 25.8899 13.0289 27.5439C17.0039 29.1932 20.6508 31.651 23.6921 34.7128C26.7381 37.7699 29.1786 41.4357 30.8241 45.4313C32.4695 49.4223 33.3154 53.7339 33.3154 58.078C33.3108 62.4174 32.4695 66.729 30.8241 70.7246C29.1786 74.7156 26.7381 78.3814 23.6921 81.4432C20.6508 84.5049 17.0039 86.9581 13.0289 88.6074C9.05389 90.2847 4.76457 91.1349 0.44751 91.1396Z" fill="#D39E2B"/>
</g>
<mask id="mask20_190_7114" style="mask-type:luminance" maskUnits="userSpaceOnUse" x="0" y="27" width="31" height="62">
<path d="M0.396973 88.9742L0.396973 27.1254H30.5748L30.5748 88.9742H0.396973Z" fill="white"/>
</mask>
<g mask="url(#mask20_190_7114)">
<path d="M0.44751 85.3318L0.44751 88.3517C4.40866 88.3424 8.32822 87.5665 11.9658 86.0519C15.5988 84.5419 18.9406 82.2932 21.737 79.487C24.5287 76.6807 26.7612 73.317 28.268 69.6651C29.7748 66.0133 30.5514 62.0641 30.5514 58.0871C30.5467 54.1054 29.7748 50.1655 28.268 46.509C26.7658 42.8572 24.5287 39.4981 21.737 36.6918C18.9406 33.8809 15.5988 31.6369 11.9658 30.1222C8.32822 28.6076 4.40404 27.8271 0.44751 27.8271L0.44751 30.847C4.02503 30.8517 7.54708 31.5486 10.8149 32.9145C14.0781 34.2712 17.0918 36.2969 19.6062 38.8197C22.1206 41.3519 24.1359 44.3765 25.4855 47.6612C26.8444 50.9507 27.5377 54.4956 27.5424 58.0824C27.5377 61.6785 26.8444 65.2188 25.4855 68.5036C24.1359 71.7838 22.1206 74.813 19.6062 77.3405C17.0918 79.868 14.0781 81.8936 10.8149 83.2503C7.54708 84.6302 4.02503 85.3318 0.44751 85.3318Z" fill="#D39E2B"/>
</g>
<mask id="mask21_190_7114" style="mask-type:luminance" maskUnits="userSpaceOnUse" x="0" y="33" width="26" height="51">
<path d="M0.396973 83.0274L0.396973 33.0726H25.8417L25.8417 83.0274H0.396973Z" fill="white"/>
</mask>
<g mask="url(#mask21_190_7114)">
<path d="M0.44751 79.5289L0.44751 82.5489C3.66913 82.5396 6.82141 81.9123 9.75645 80.6904C12.6915 79.4685 15.3908 77.6519 17.6556 75.3799C19.9159 73.108 21.7231 70.39 22.9387 67.4444C24.1543 64.4988 24.7783 61.3255 24.7876 58.0872C24.7783 54.8535 24.1543 51.6802 22.9387 48.73C21.7231 45.7843 19.9159 43.071 17.6556 40.7944C15.3954 38.5225 12.6915 36.7059 9.75645 35.484C6.82141 34.262 3.66913 33.6348 0.44751 33.6302L0.44751 36.6501C3.28087 36.6548 6.03565 37.2077 8.60555 38.2763C11.1708 39.3449 13.542 40.9385 15.5295 42.927C17.517 44.9248 19.0977 47.3083 20.1562 49.8868C21.2193 52.4747 21.7693 55.2391 21.7786 58.0872C21.7693 60.9352 21.2193 63.7043 20.1562 66.2875C19.0931 68.8661 17.5124 71.2496 15.5295 73.2474C13.542 75.2452 11.1708 76.8388 8.60555 77.9028C6.04027 78.976 3.28087 79.5196 0.44751 79.5289Z" fill="#D39E2B"/>
</g>
<mask id="mask22_190_7114" style="mask-type:luminance" maskUnits="userSpaceOnUse" x="0" y="39" width="20" height="39">
<path d="M0.396973 77.0802L0.396973 39.0194H19.9254L19.9254 77.0802H0.396973Z" fill="white"/>
</mask>
<g mask="url(#mask22_190_7114)">
<path d="M0.44751 73.7257L0.44751 76.7411C2.92496 76.7364 5.3146 76.2625 7.54708 75.3286C9.77494 74.3994 11.841 73.0149 13.5697 71.2726C15.303 69.535 16.6804 67.4582 17.6048 65.2188C18.5292 62.9747 19.0007 60.5773 19.0146 58.0824C19.0053 55.5921 18.5339 53.19 17.6048 50.946C16.6804 48.7065 15.303 46.6297 13.5697 44.8875C11.841 43.1498 9.77494 41.7653 7.54708 40.8361C5.3146 39.9068 2.92959 39.4329 0.44751 39.419L0.44751 42.439C2.54133 42.4483 4.52422 42.8478 6.39617 43.6191C8.25889 44.395 9.9968 45.5611 11.4528 47.0154C12.9041 48.4789 14.0643 50.2212 14.8269 52.0982C15.5988 53.9706 15.9963 55.9684 16.0009 58.0777C15.9963 60.1777 15.5988 62.1756 14.8269 64.0572C14.055 65.9296 12.8995 67.6719 11.4528 69.1354C9.9968 70.5989 8.25889 71.7604 6.39617 72.5317C4.52422 73.3169 2.54595 73.7165 0.44751 73.7257Z" fill="#D39E2B"/>
</g>
<mask id="mask23_190_7114" style="mask-type:luminance" maskUnits="userSpaceOnUse" x="0" y="44" width="15" height="28">
<path d="M0.396973 71.1334L0.396973 44.9666H14.0091L14.0091 71.1334H0.396973Z" fill="white"/>
</mask>
<g mask="url(#mask23_190_7114)">
<path d="M0.44751 67.9237L0.44751 70.939C2.19005 70.9343 3.80317 70.6045 5.33309 69.9726C6.85839 69.3361 8.29124 68.379 9.48837 67.1756C10.6855 65.9723 11.6377 64.532 12.2709 62.9988C12.8995 61.461 13.2277 59.8348 13.2323 58.0879C13.2277 56.3363 12.8995 54.7195 12.2709 53.177C11.6377 51.6438 10.6855 50.2081 9.48837 49.0001C8.29124 47.7968 6.85839 46.8397 5.33309 46.2078C3.80317 45.5713 2.1808 45.2414 0.44751 45.2368L0.44751 48.2568C1.80179 48.2661 3.01741 48.5169 4.18218 48.9955C5.33771 49.4787 6.43777 50.2081 7.3622 51.1327C8.282 52.0619 9.00767 53.1677 9.48837 54.3292C9.96445 55.5 10.2187 56.7266 10.2233 58.0832C10.214 59.4446 9.96445 60.6665 9.48837 61.8373C9.00767 62.9988 8.282 64.1046 7.3622 65.0338C6.43777 65.9584 5.33771 66.6878 4.18218 67.171C3.01741 67.6635 1.80179 67.9144 0.44751 67.9237Z" fill="#D39E2B"/>
</g>
<path d="M143.761 65.1445V62.1245C143.146 62.1106 142.703 62.013 142.236 61.8225C141.778 61.6367 141.316 61.3347 140.923 60.9444C140.535 60.5495 140.235 60.0849 140.05 59.6249C139.86 59.165 139.763 58.7096 139.749 58.0917C139.763 57.4784 139.86 57.0324 140.05 56.5631C140.235 56.1032 140.535 55.6386 140.923 55.2436C141.316 54.8534 141.778 54.5514 142.236 54.3655C142.698 54.175 143.146 54.0775 143.761 54.0635V51.0436C142.758 51.0575 141.912 51.2341 141.085 51.5732C140.258 51.917 139.472 52.4374 138.797 53.1111C138.131 53.7894 137.605 54.5793 137.267 55.4109C136.93 56.2426 136.754 57.0974 136.74 58.101C136.754 59.1046 136.93 59.9548 137.267 60.7911C137.605 61.6181 138.127 62.4126 138.797 63.0863C139.472 63.7553 140.258 64.2849 141.085 64.6241C141.912 64.954 142.758 65.1305 143.761 65.1445Z" fill="#D39E2B"/>
<path d="M143.761 128.977V125.962C135.002 125.967 126.096 124.215 117.91 120.791C109.715 117.381 102.245 112.344 96.0195 106.077C89.7889 99.8139 84.7739 92.3105 81.3812 84.0729C77.9747 75.8494 76.2322 66.8917 76.2368 58.0873C76.2322 49.283 77.9747 40.33 81.3812 32.1018C84.7739 23.8689 89.7842 16.3608 96.0195 10.0979C102.245 3.83958 109.715 -1.20143 117.91 -4.61632C126.091 -8.04048 135.002 -9.78741 143.761 -9.78276V-12.8027C134.614 -12.8074 125.305 -10.9815 116.759 -7.40396C108.194 -3.84041 100.397 1.41896 93.8933 7.96066C87.3807 14.4977 82.1531 22.3403 78.6033 30.9449C75.0443 39.5401 73.2278 48.8974 73.2324 58.0873C73.2278 67.282 75.0443 76.6392 78.6033 85.2298C82.1531 93.8344 87.3807 101.677 93.8933 108.214C100.397 114.76 108.194 120.015 116.759 123.583C125.305 127.156 134.614 128.987 143.761 128.977Z" fill="#D39E2B"/>
<path d="M143.761 70.9474V67.9275C142.402 67.9135 141.186 67.6673 140.026 67.1887C138.866 66.7055 137.771 65.9761 136.846 65.0469C135.922 64.1223 135.201 63.0165 134.72 61.855C134.239 60.6842 133.99 59.4623 133.985 58.101C133.994 56.735 134.239 55.5131 134.72 54.3469C135.201 53.1854 135.922 52.0796 136.846 51.1504C137.771 50.2212 138.866 49.4964 140.026 49.0132C141.186 48.53 142.402 48.2791 143.761 48.2745V45.2406C142.018 45.2499 140.405 45.5751 138.875 46.2116C137.35 46.8435 135.917 47.8052 134.72 49.0086C133.523 50.2119 132.571 51.6522 131.937 53.1854C131.309 54.7233 130.981 56.3494 130.971 58.0917C130.981 59.8433 131.309 61.4647 131.937 63.0026C132.571 64.5358 133.523 65.9761 134.72 67.1794C135.917 68.3828 137.35 69.3445 138.875 69.9764C140.405 70.6036 142.018 70.9335 143.761 70.9474Z" fill="#D39E2B"/>
<path d="M143.761 82.5533V79.5333C140.923 79.5287 138.173 78.9758 135.603 77.9072C133.038 76.8386 130.662 75.245 128.679 73.2564C126.692 71.2586 125.106 68.8705 124.048 66.2919C122.985 63.7087 122.435 60.9443 122.43 58.0916C122.435 55.2435 122.985 52.4791 124.048 49.8959C125.111 47.3173 126.696 44.9292 128.679 42.9314C130.662 40.9382 133.038 39.3446 135.603 38.2807C138.173 37.2121 140.923 36.6592 143.761 36.6545V33.6346C140.54 33.6392 137.383 34.2711 134.452 35.493C131.517 36.7149 128.818 38.5269 126.548 40.8035C124.288 43.0754 122.486 45.7934 121.27 48.739C120.054 51.6846 119.426 54.8579 119.421 58.0916C119.426 61.3299 120.054 64.5032 121.27 67.4488C122.486 70.3991 124.288 73.1124 126.548 75.3843C128.813 77.6609 131.517 79.4729 134.452 80.6948C137.383 81.9168 140.54 82.5486 143.761 82.5533Z" fill="#D39E2B"/>
<path d="M143.761 76.7503V73.7304C141.667 73.7257 139.68 73.3262 137.812 72.5503C135.945 71.7744 134.212 70.6128 132.756 69.154C131.3 67.6904 130.144 65.9482 129.377 64.0711C128.605 62.1988 128.207 60.2009 128.203 58.0916C128.207 55.9916 128.605 53.9938 129.377 52.1121C130.149 50.2397 131.309 48.4974 132.756 47.0339C134.212 45.5704 135.945 44.4089 137.812 43.6376C139.675 42.8617 141.662 42.4622 143.761 42.4575V39.4376C141.283 39.4469 138.894 39.9208 136.661 40.8546C134.433 41.7838 132.363 43.1684 130.634 44.906C128.905 46.6436 127.528 48.7251 126.604 50.9645C125.679 53.2086 125.208 55.6013 125.194 58.1009C125.198 60.5912 125.675 62.9932 126.604 65.2373C127.528 67.4721 128.905 69.5535 130.634 71.2912C132.363 73.0288 134.433 74.418 136.661 75.3472C138.894 76.2625 141.283 76.741 143.761 76.7503Z" fill="#D39E2B"/>
<path d="M143.761 88.3562V85.3362C140.184 85.3315 136.661 84.63 133.394 83.2687C130.126 81.912 127.117 79.8863 124.598 77.3589C122.088 74.8267 120.068 71.8021 118.718 68.522C117.364 65.2326 116.671 61.6876 116.662 58.1008C116.671 54.5047 117.364 50.9644 118.718 47.6796C120.068 44.3948 122.088 41.3702 124.598 38.8381C127.117 36.3153 130.126 34.2849 133.394 32.9283C136.666 31.567 140.188 30.8701 143.761 30.8608V27.8455C139.795 27.8501 135.876 28.626 132.243 30.1406C128.605 31.6506 125.263 33.8993 122.472 36.7056C119.68 39.5164 117.447 42.8756 115.941 46.5274C114.429 50.1839 113.653 54.1284 113.653 58.1055C113.662 62.0872 114.429 66.027 115.941 69.6835C117.438 73.3353 119.68 76.6945 122.472 79.5054C125.263 82.3116 128.605 84.5557 132.243 86.0703C135.876 87.5756 139.795 88.3515 143.761 88.3562Z" fill="#D39E2B"/>
<path d="M143.761 94.1591V91.1391C139.439 91.1391 135.15 90.2889 131.18 88.6302C127.205 86.9808 123.558 84.5277 120.512 81.4659C117.471 78.4042 115.025 74.7384 113.385 70.7474C111.739 66.7518 110.889 62.4402 110.889 58.1007C110.898 53.7566 111.739 49.4497 113.385 45.4541C115.025 41.4584 117.471 37.7927 120.512 34.7355C123.558 31.6738 127.205 29.216 131.18 27.5666C135.15 25.9126 139.439 25.0577 143.761 25.0577V22.0424C139.056 22.0424 134.364 22.967 130.029 24.7836C125.684 26.5863 121.714 29.2671 118.386 32.6076C115.062 35.9482 112.405 39.9438 110.602 44.3065C108.804 48.6645 107.88 53.385 107.875 58.11C107.875 62.8398 108.799 67.5555 110.602 71.9136C112.395 76.2809 115.062 80.2719 118.386 83.6171C121.714 86.9576 125.684 89.6291 130.029 91.4411C134.364 93.2298 139.056 94.1544 143.761 94.1591Z" fill="#D39E2B"/>
<path d="M143.761 99.9624V96.9424C138.704 96.9424 133.639 95.9435 128.97 93.9875C124.293 92.0455 120.013 89.1602 116.435 85.5642C112.857 81.9727 109.992 77.6658 108.055 72.9686C106.114 68.2668 105.115 63.1793 105.115 58.1011C105.115 53.0183 106.109 47.9262 108.055 43.2336C109.992 38.5364 112.857 34.2295 116.435 30.6334C120.013 27.0374 124.293 24.1568 128.97 22.2101C133.643 20.2587 138.704 19.2552 143.761 19.2552V16.2352C138.321 16.2352 132.857 17.3177 127.819 19.4224C122.777 21.5178 118.159 24.626 114.309 28.5009C110.459 32.3711 107.362 37.0125 105.273 42.0814C103.183 47.1456 102.106 52.6373 102.106 58.1058C102.106 63.5742 103.183 69.0659 105.273 74.1301C107.362 79.199 110.449 83.8405 114.309 87.7107C118.159 91.5809 122.777 94.6937 127.819 96.7891C132.857 98.8799 138.321 99.9624 143.761 99.9624Z" fill="#D39E2B"/>
<path d="M143.761 105.765V102.745C137.965 102.745 132.132 101.593 126.757 99.3537C121.372 97.1143 116.454 93.8017 112.345 89.6713C108.236 85.5409 104.94 80.5975 102.717 75.1848C100.484 69.7814 99.3381 63.9227 99.3381 58.0918C99.3381 52.2656 100.484 46.4069 102.717 41.0035C104.94 35.5908 108.236 30.6473 112.345 26.517C116.454 22.3866 121.372 19.0739 126.757 16.8345C132.132 14.5905 137.965 13.4429 143.761 13.4429V10.4229C137.577 10.4229 131.346 11.6495 125.606 14.0469C119.86 16.435 114.605 19.9799 110.223 24.3844C105.841 28.7889 102.319 34.0715 99.939 39.842C97.5494 45.6124 96.3291 51.88 96.3338 58.0918C96.3338 64.3083 97.554 70.5712 99.939 76.3463C102.319 82.1167 105.841 87.3994 110.223 91.8038C114.605 96.2083 119.86 99.7533 125.606 102.141C131.342 104.539 137.577 105.765 143.761 105.765Z" fill="#D39E2B"/>
<path d="M143.761 111.568V108.548C137.221 108.548 130.625 107.252 124.547 104.711C118.464 102.179 112.904 98.4291 108.268 93.7737C103.627 89.109 99.9016 83.5198 97.3872 77.4055C94.8542 71.3006 93.5647 64.6613 93.5647 58.0917C93.5647 51.5222 94.8542 44.8876 97.3872 38.7826C99.9016 32.6683 103.632 27.0791 108.268 22.4144C112.904 17.7544 118.464 14.0096 124.547 11.4775C130.625 8.9361 137.225 7.63984 143.761 7.63984V4.61988C136.837 4.61988 129.834 5.99512 123.396 8.68986C116.943 11.3753 111.059 15.3431 106.146 20.2865C101.228 25.2253 97.2809 31.1444 94.6093 37.6257C91.9284 44.1024 90.5603 51.1412 90.5603 58.0917C90.5603 65.0562 91.9284 72.0904 94.6093 78.5624C97.2809 85.0484 101.228 90.9628 106.146 95.9016C111.059 100.845 116.948 104.813 123.396 107.498C129.834 110.193 136.837 111.568 143.761 111.568Z" fill="#D39E2B"/>
<path d="M143.761 117.371V114.351C136.486 114.36 129.109 112.906 122.333 110.072C115.548 107.247 109.354 103.07 104.182 97.8715C99.0096 92.6725 94.8543 86.4468 92.0441 79.6263C89.22 72.8151 87.7825 65.4046 87.7825 58.087C87.7779 50.7741 89.22 43.3636 92.0441 36.5478C94.8543 29.7273 99.0096 23.5015 104.182 18.3026C109.354 13.1082 115.548 8.93139 122.333 6.10656C129.109 3.2678 136.477 1.82287 143.761 1.82287V-1.19709C136.097 -1.20174 128.328 0.32682 121.182 3.31426C114.027 6.2924 107.5 10.6923 102.056 16.1654C96.6061 21.6431 92.2336 28.2034 89.2708 35.3909C86.2942 42.5737 84.7735 50.3838 84.7828 58.087C84.7735 65.7903 86.2942 73.6003 89.2708 80.7832C92.2336 87.9753 96.6061 94.5356 102.056 100.009C107.5 105.482 114.027 109.882 121.182 112.86C128.328 115.852 136.093 117.38 143.761 117.371Z" fill="#D39E2B"/>
<path d="M143.761 123.174V120.159C135.742 120.163 127.602 118.56 120.124 115.434C112.631 112.316 105.8 107.712 100.101 101.979C94.4017 96.25 89.8165 89.383 86.7151 81.8517C83.5998 74.3344 82.0098 66.1526 82.019 58.0916C82.0098 50.0353 83.6044 41.8535 86.7151 34.3362C89.8165 26.8048 94.4017 19.9379 100.101 14.2093C105.8 8.47601 112.631 3.87173 120.124 0.754211C127.602 -2.37726 135.742 -3.97552 143.761 -3.97086V-6.98618C135.358 -6.99547 126.812 -5.31358 118.973 -2.03809C111.12 1.2374 103.956 6.06469 97.9746 12.0721C91.9982 18.0795 87.1958 25.2763 83.9418 33.1793C80.674 41.0637 79.01 49.645 79.0147 58.0916C79.01 66.5382 80.6786 75.1288 83.9418 83.0086C87.1958 90.907 91.9982 98.1084 97.9746 104.116C103.956 110.123 111.111 114.95 118.973 118.226C126.812 121.501 135.358 123.183 143.761 123.174Z" fill="#D39E2B"/>
</svg>
