<svg width="37" height="54" viewBox="0 0 37 54" fill="none" xmlns="http://www.w3.org/2000/svg">
<path opacity="0.2" d="M18.7747 26.0471L17.151 26.921L18.7691 27.8051L35.6198 37.0127L32.0089 43.2302L14.8208 33.442L13.3128 32.5833L13.326 34.3186L13.4675 53H6.53246L6.674 34.3186L6.68715 32.5833L5.17917 33.442L-12.0089 43.2302L-15.618 37.0158L1.37697 27.8068L3.01176 26.921L1.37145 26.0454L-15.6218 16.9748L-12.0022 10.6289L5.17917 20.4132L6.68725 21.272L6.674 19.5366L6.53252 1H13.4675L13.326 19.5366L13.3128 21.272L14.8208 20.4132L32.0022 10.6289L35.6236 16.9779L18.7747 26.0471Z" stroke="#5F01D1" stroke-opacity="0.78" stroke-width="2"/>
</svg>
