<svg width="207" height="67" viewBox="0 0 207 67" fill="none" xmlns="http://www.w3.org/2000/svg">
<path d="M31.4258 44.208C36.6738 51.888 48.4498 64.048 61.1858 64.048C65.2818 64.048 69.5058 62.768 73.6018 59.696C74.2418 59.184 74.3698 59.504 73.9858 59.824C68.9298 64.496 63.5538 66.352 58.3698 66.352C45.0578 66.352 32.5138 54.192 26.8818 45.808C26.4978 45.296 25.9858 44.528 25.4738 43.696C19.5218 51.568 14.2738 59.184 14.2738 60.72C14.2738 61.104 14.3378 61.36 14.9138 61.36C16.7058 61.36 18.0498 61.04 19.8418 60.016C18.3698 61.488 15.8098 63.344 13.5698 63.344C11.6498 63.344 11.3938 61.744 11.3938 60.656C11.3938 56.24 17.6658 45.872 22.8498 38.448L22.5938 37.744C22.0818 36.272 21.7618 35.184 21.8898 34.544C22.7218 30.384 27.5858 28.528 26.5618 29.744C26.1778 30.256 25.9858 31.152 26.1778 32.176C26.2418 32.56 26.3698 33.008 26.5618 33.456C33.9858 23.6 46.4658 8.752 52.2258 8.752C54.5298 8.752 56.5778 9.776 57.7298 11.056C53.7618 9.2 36.4818 29.744 29.6338 38.384C44.2258 37.68 72.0018 24.432 71.3618 12.912C70.9137 5.744 61.1858 2.416 53.8258 2.416C29.7618 2.416 5.37775 21.936 5.37775 29.424C5.37775 31.984 7.42575 33.712 8.96175 33.84C8.96175 33.84 8.76975 34.16 7.29775 34.16C2.94575 34.16 0.83375 31.408 0.83375 28.016C0.83375 16.496 26.7538 0.559998 51.2658 0.559998C59.9058 0.559998 74.4978 3.696 75.2018 15.344C75.9058 27.376 52.0978 41.264 33.4738 41.264C32.1298 41.264 30.8498 41.2 29.5698 41.072C30.0818 42.16 30.7858 43.248 31.4258 44.208ZM66.6843 45.36C65.5323 46.704 64.3163 48.752 64.1243 50.416C64.0603 51.184 64.6363 51.632 66.0443 51.632C70.7163 51.632 82.4283 42.736 88.8923 37.36C89.0843 37.232 89.5323 37.552 89.3403 37.744C84.5403 42.224 71.8043 54.448 63.2923 54.448C61.3083 54.448 58.7482 52.144 58.7482 50.416C58.7482 48.88 59.1322 47.6 59.6442 46.192C61.1803 42.544 64.4443 38.512 68.4763 35.12C73.7883 30.704 79.4843 28.72 82.2363 28.72C83.1963 28.72 86.1403 30.192 86.1403 31.984C86.1403 35.952 73.8523 45.168 66.6843 45.36ZM84.0923 30.64C76.9883 32.944 69.6283 40.688 67.5163 44.08C73.0843 43.44 83.7083 33.072 84.0923 30.64ZM104.169 31.28C101.225 31.024 91.3053 37.104 90.4733 40.112C90.2173 41.2 91.7533 42.224 92.3933 42.8C102.633 37.04 110.825 35.632 111.657 35.632C111.785 35.632 112.041 35.76 112.041 35.952C112.617 36.144 99.9453 39.472 92.9693 43.632C93.8013 44.272 95.4013 46.128 95.2093 47.472C94.3133 51.632 85.8653 55.024 81.7052 55.024C80.2972 55.024 79.5932 53.872 79.2732 52.464C79.4652 49.712 88.8733 44.336 91.1133 43.44C90.4093 42.544 86.6333 40.24 87.2093 37.424C88.2333 32.56 97.4493 27.76 103.081 27.76C104.873 27.76 105.705 30.704 105.513 32.56C105.449 33.456 101.417 37.296 99.6893 37.296C99.6253 37.296 99.4973 37.04 99.5613 37.04C99.7533 37.04 104.041 32.56 104.169 31.28ZM91.3693 44.528C87.5293 46.704 82.7933 49.904 80.9372 51.76C83.4333 51.056 91.3693 46.96 91.3693 44.528ZM115.51 48.176C116.598 45.232 119.03 40.688 121.398 37.744C114.934 44.336 106.358 53.552 102.518 54.32C102.39 54.32 102.006 54.32 102.006 54.32C100.982 54.32 98.9982 52.592 98.9982 51.056C98.9982 48.304 102.518 41.84 106.166 36.784C108.406 33.648 111.094 30.576 112.694 29.296C113.014 28.976 113.398 28.912 113.59 28.912C115.126 28.912 117.622 31.408 117.622 33.072C117.622 33.328 117.366 33.008 116.79 32.944C115.83 32.816 113.142 36.144 110.966 38.96C107.702 43.248 104.502 48.816 104.502 50.672C107.574 49.392 114.102 43.632 117.174 40.688C120.502 37.424 125.238 31.856 128.886 29.04C129.206 28.784 129.526 28.72 129.782 28.72C131.318 28.72 133.75 31.216 133.75 32.816C133.75 33.072 133.558 32.752 132.982 32.688C132.534 32.688 131.702 33.264 130.87 34.16C129.91 35.184 128.118 37.488 126.006 40.304C122.806 44.592 120.438 49.136 120.438 50.928C124.47 49.712 133.558 41.008 137.462 37.296C137.846 36.976 138.166 37.488 137.974 37.68C132.406 43.76 121.974 54.448 118.134 54.448C117.814 54.448 117.43 54.32 117.11 54.064C116.086 53.552 114.806 52.08 114.806 50.928C114.806 50.288 115.19 49.136 115.51 48.176ZM141.015 30.192C144.983 23.984 149.079 18.416 152.407 14.064C154.327 11.568 156.119 9.52 157.719 8.24C158.679 7.472 159.511 6.96 160.087 6.96C163.671 6.768 166.231 10.48 165.015 9.776C162.775 8.752 158.615 14.768 155.799 18.224C153.047 21.744 150.423 25.52 147.223 30.192C141.655 38.64 136.855 46.768 135.319 50.864C137.879 51.184 147.159 42.288 151.511 38.192C152.855 35.888 154.455 33.264 156.439 30.192C158.167 27.376 160.023 24.752 161.815 22.256C155.607 23.984 156.823 24.752 158.231 25.712C157.207 25.712 155.031 24.496 154.839 22.448C154.583 19.568 160.343 18.736 164.759 18.096C169.751 11.568 171.543 9.52 173.143 8.24C174.103 7.472 174.935 6.96 175.511 6.96C179.095 6.768 181.655 10.48 180.439 9.776C178.391 8.816 174.615 13.936 171.799 17.648C182.231 17.008 196.503 17.52 206.103 19.504C206.615 19.632 206.871 19.76 206.103 19.696C192.791 18.544 180.567 18.608 169.495 20.464C167.255 23.408 165.079 26.544 162.647 30.192C157.079 38.64 152.279 46.768 150.743 50.864C153.495 51.184 164.119 40.752 167.895 37.296C168.279 36.976 168.535 37.488 168.343 37.68C165.207 41.264 154.071 52.912 150.231 54.32C149.399 54.64 148.759 54.384 148.183 54.064C147.671 53.808 146.263 52.464 145.879 51.504C145.815 51.376 145.687 51.248 145.687 50.544C145.687 49.328 146.903 46.256 149.847 41.008C145.239 45.872 137.815 53.232 134.807 54.32C133.975 54.64 133.335 54.384 132.759 54.064C132.247 53.808 130.839 52.464 130.455 51.504C130.391 51.376 130.263 51.248 130.263 50.544C130.263 48.624 133.207 42.416 141.015 30.192Z" fill="#513B25"/>
</svg>
