<svg width="318" height="52" viewBox="0 0 318 52" fill="none" xmlns="http://www.w3.org/2000/svg">
<g filter="url(#filter0_d_56_159)">
<path d="M48.5 42L26 42C16.0589 42 8 33.9411 8 24C8 14.0589 16.0589 6 26 6L48.5 6L48.7339 6.70168C49.1914 8.07421 50.4759 9 51.9226 9C53.1958 9 54.3597 8.28069 54.929 7.14195L55.5 6L292 6C301.941 6 310 14.0589 310 24C310 33.9411 301.941 42 292 42L55.5 42L54.929 40.858C54.3597 39.7193 53.1958 39 51.9226 39C50.4759 39 49.1914 39.9258 48.7339 41.2983L48.5 42Z" fill="#FDFFF5"/>
<path d="M48.5 42L26 42C16.0589 42 8 33.9411 8 24C8 14.0589 16.0589 6 26 6L48.5 6L48.7339 6.70168C49.1914 8.07421 50.4759 9 51.9226 9C53.1958 9 54.3597 8.28069 54.929 7.14195L55.5 6L292 6C301.941 6 310 14.0589 310 24C310 33.9411 301.941 42 292 42L55.5 42L54.929 40.858C54.3597 39.7193 53.1958 39 51.9226 39C50.4759 39 49.1914 39.9258 48.7339 41.2983L48.5 42Z" stroke="#716F6F" stroke-width="0.2"/>
</g>
<defs>
<filter id="filter0_d_56_159" x="0.900024" y="0.899994" width="316.2" height="50.2" filterUnits="userSpaceOnUse" color-interpolation-filters="sRGB">
<feFlood flood-opacity="0" result="BackgroundImageFix"/>
<feColorMatrix in="SourceAlpha" type="matrix" values="0 0 0 0 0 0 0 0 0 0 0 0 0 0 0 0 0 0 127 0" result="hardAlpha"/>
<feOffset dy="2"/>
<feGaussianBlur stdDeviation="3.5"/>
<feComposite in2="hardAlpha" operator="out"/>
<feColorMatrix type="matrix" values="0 0 0 0 0.996078 0 0 0 0 0.203922 0 0 0 0 0.431373 0 0 0 0.15 0"/>
<feBlend mode="normal" in2="BackgroundImageFix" result="effect1_dropShadow_56_159"/>
<feBlend mode="normal" in="SourceGraphic" in2="effect1_dropShadow_56_159" result="shape"/>
</filter>
</defs>
</svg>
