<svg width="284" height="66" viewBox="0 0 284 66" fill="none" xmlns="http://www.w3.org/2000/svg">
<g filter="url(#filter0_f_3_370)">
<path d="M9.65547 37.815H25.7655L18.4305 16.215L9.65547 37.815ZM34.4505 46.59C34.8105 47.625 35.3505 48.48 36.1155 49.245C36.8355 50.01 37.6905 50.595 38.6805 51H27.2055C27.9705 50.64 28.5105 50.1 28.8255 49.335C29.0055 48.93 29.0955 48.525 29.0955 48.12C29.0955 47.76 29.0505 47.4 28.9155 47.04L26.0355 38.49H9.38547L5.78547 47.265C5.65047 47.625 5.56047 47.985 5.56047 48.345C5.56047 49.47 6.10047 50.325 7.18047 51H1.10547C3.04047 50.145 4.39047 48.75 5.24547 46.815L18.2505 14.91C19.9155 13.875 21.0855 13.065 21.6705 12.435C22.2105 11.85 22.4805 11.535 22.4805 11.4L34.4505 46.59ZM58.1665 26.475C58.0315 26.34 57.8515 26.16 57.6265 25.935C57.3565 25.71 56.9965 25.53 56.5915 25.395C56.1865 25.26 55.6915 25.17 55.1065 25.17C54.5215 25.17 53.7565 25.44 52.8115 25.98C51.8665 26.565 51.0115 27.555 50.2465 29.04C49.4815 30.525 49.0765 32.685 49.0765 35.43V46.41C49.0765 47.4 49.3465 48.3 49.9315 49.155C50.5165 50.01 51.2365 50.595 52.1815 51H40.4365C41.3815 50.595 42.1465 50.01 42.7315 49.155C43.2715 48.3 43.5415 47.4 43.5415 46.41V28.95C43.5415 28.095 43.2265 27.375 42.6415 26.745C42.0565 26.16 41.2915 25.845 40.4365 25.845L49.0765 22.56V30.705C49.0765 30.435 49.2565 29.805 49.5715 28.86C49.8865 27.915 50.4715 26.88 51.2815 25.8C52.0915 24.72 53.2165 23.775 54.6565 22.965C56.0515 22.155 57.8515 21.75 60.0115 21.75C59.8765 22.2 59.7415 22.605 59.6065 22.965C59.4715 23.37 59.3365 23.685 59.2465 24C59.1115 24.315 59.0215 24.63 58.9765 24.855C58.8865 25.08 58.7965 25.305 58.7515 25.485C58.7065 25.665 58.6615 25.8 58.6165 25.935C58.5715 26.07 58.5265 26.205 58.4815 26.295C58.4365 26.385 58.4365 26.475 58.4365 26.52C58.4365 26.565 58.3915 26.61 58.3465 26.61C58.3015 26.61 58.2115 26.565 58.1665 26.475ZM77.0634 22.335H72.8784V42.27C72.8784 50.19 77.7834 50.325 77.7834 50.325V51C75.8034 51 74.1834 50.775 72.8784 50.37C67.4334 48.615 67.1634 43.71 67.1634 39.3V22.335H63.0684V21.615C64.6434 21.3 66.0384 20.76 67.1634 20.13C71.3034 17.88 72.7884 14.46 72.8784 14.28V21.615H77.0634V22.335ZM82.6507 46.5V29.49C82.6507 27.825 81.3007 26.43 79.6357 26.43L88.0507 23.235V46.5C88.0507 47.49 88.3657 48.435 88.9057 49.2C89.4457 50.01 90.2107 50.64 91.1107 51H79.6357C81.4807 50.28 82.6507 48.48 82.6507 46.5ZM88.6357 15.09C88.6357 17.115 86.9707 18.78 84.9457 18.78C82.9207 18.78 81.2557 17.115 81.2557 15.09C81.2557 13.065 82.9207 11.4 84.9457 11.4C86.9707 11.4 88.6357 13.065 88.6357 15.09ZM101.364 13.155C103.074 12.075 105.189 11.4 107.934 11.4C108.924 11.4 110.004 11.49 111.129 11.67C110.319 15.81 110.004 17.79 110.004 17.79C110.004 17.79 109.734 12.075 105.639 12.075C102.489 12.075 101.544 16.755 101.364 20.445V23.685H105.639V24.36H101.319C101.319 31.65 101.364 46.59 101.364 46.59C101.364 47.535 101.634 48.48 102.174 49.245C102.714 50.01 103.434 50.64 104.334 51H93.0391C94.8841 50.28 96.0541 48.525 96.0541 46.59V24.36H93.3091V23.685H96.0541C96.1891 19.95 97.5841 15.495 101.364 13.155ZM135.996 21.75H142.431C140.406 22.605 138.696 24.09 137.616 25.98L121.191 54.78C120.336 56.04 117.951 60.54 112.371 60.54C109.716 56.265 109.176 55.455 109.176 55.455C109.176 55.455 111.651 57.615 114.711 57.615C117.051 57.615 119.706 56.4 121.911 52.08L125.331 46.095L113.406 25.845C112.371 24.045 110.706 22.605 108.771 21.75H120.921C119.976 22.245 119.436 23.19 119.436 24.135C119.436 24.585 119.571 25.08 119.841 25.485L128.571 40.38L137.076 25.485C137.301 25.035 137.436 24.585 137.436 24.135C137.436 23.145 136.896 22.245 135.996 21.75ZM166.832 45.6H184.607C186.992 45.6 189.197 44.34 190.367 42.27L189.017 51H162.692C163.097 48.885 164.177 47.175 165.662 45.6C171.647 39.345 184.202 35.655 184.202 21.795C184.202 13.245 178.847 12.03 176.552 12.03C171.332 12.03 167.777 15.18 167.777 21.345C167.777 22.155 167.822 23.01 167.957 23.91C165.482 22.335 163.007 21.165 163.007 21.165C163.007 18.06 166.787 11.4 176.552 11.4C185.147 11.4 190.367 17.16 190.367 23.145C190.367 36.6 173.897 38.805 166.832 45.6ZM206.704 11.4C214.489 11.4 220.744 20.265 220.744 31.2C220.744 42.135 214.489 51 206.704 51C198.919 51 192.619 42.135 192.619 31.2C192.619 20.265 198.919 11.4 206.704 11.4ZM206.704 50.325C211.384 50.325 215.119 41.775 215.119 31.2C215.119 20.625 211.384 12.075 206.704 12.075C202.024 12.075 198.244 20.625 198.244 31.2C198.244 41.775 202.024 50.325 206.704 50.325ZM226.598 45.6H244.373C246.758 45.6 248.963 44.34 250.133 42.27L248.783 51H222.458C222.863 48.885 223.943 47.175 225.428 45.6C231.413 39.345 243.968 35.655 243.968 21.795C243.968 13.245 238.613 12.03 236.318 12.03C231.098 12.03 227.543 15.18 227.543 21.345C227.543 22.155 227.588 23.01 227.723 23.91C225.248 22.335 222.773 21.165 222.773 21.165C222.773 18.06 226.553 11.4 236.318 11.4C244.913 11.4 250.133 17.16 250.133 23.145C250.133 36.6 233.663 38.805 226.598 45.6ZM277.63 38.76H274.39V46.5C274.39 47.445 274.705 48.39 275.245 49.2C275.74 49.965 276.505 50.595 277.45 51H265.975C267.775 50.235 268.99 48.435 268.99 46.5V38.76H252.385L252.88 38.085L268.99 17.295L273.535 11.4H274.39V38.085H277.63V38.76ZM253.735 38.085H268.99V18.375L253.735 38.085Z" fill="url(#paint0_linear_3_370)"/>
</g>
<path d="M9.65547 37.815H25.7655L18.4305 16.215L9.65547 37.815ZM34.4505 46.59C34.8105 47.625 35.3505 48.48 36.1155 49.245C36.8355 50.01 37.6905 50.595 38.6805 51H27.2055C27.9705 50.64 28.5105 50.1 28.8255 49.335C29.0055 48.93 29.0955 48.525 29.0955 48.12C29.0955 47.76 29.0505 47.4 28.9155 47.04L26.0355 38.49H9.38547L5.78547 47.265C5.65047 47.625 5.56047 47.985 5.56047 48.345C5.56047 49.47 6.10047 50.325 7.18047 51H1.10547C3.04047 50.145 4.39047 48.75 5.24547 46.815L18.2505 14.91C19.9155 13.875 21.0855 13.065 21.6705 12.435C22.2105 11.85 22.4805 11.535 22.4805 11.4L34.4505 46.59ZM58.1665 26.475C58.0315 26.34 57.8515 26.16 57.6265 25.935C57.3565 25.71 56.9965 25.53 56.5915 25.395C56.1865 25.26 55.6915 25.17 55.1065 25.17C54.5215 25.17 53.7565 25.44 52.8115 25.98C51.8665 26.565 51.0115 27.555 50.2465 29.04C49.4815 30.525 49.0765 32.685 49.0765 35.43V46.41C49.0765 47.4 49.3465 48.3 49.9315 49.155C50.5165 50.01 51.2365 50.595 52.1815 51H40.4365C41.3815 50.595 42.1465 50.01 42.7315 49.155C43.2715 48.3 43.5415 47.4 43.5415 46.41V28.95C43.5415 28.095 43.2265 27.375 42.6415 26.745C42.0565 26.16 41.2915 25.845 40.4365 25.845L49.0765 22.56V30.705C49.0765 30.435 49.2565 29.805 49.5715 28.86C49.8865 27.915 50.4715 26.88 51.2815 25.8C52.0915 24.72 53.2165 23.775 54.6565 22.965C56.0515 22.155 57.8515 21.75 60.0115 21.75C59.8765 22.2 59.7415 22.605 59.6065 22.965C59.4715 23.37 59.3365 23.685 59.2465 24C59.1115 24.315 59.0215 24.63 58.9765 24.855C58.8865 25.08 58.7965 25.305 58.7515 25.485C58.7065 25.665 58.6615 25.8 58.6165 25.935C58.5715 26.07 58.5265 26.205 58.4815 26.295C58.4365 26.385 58.4365 26.475 58.4365 26.52C58.4365 26.565 58.3915 26.61 58.3465 26.61C58.3015 26.61 58.2115 26.565 58.1665 26.475ZM77.0634 22.335H72.8784V42.27C72.8784 50.19 77.7834 50.325 77.7834 50.325V51C75.8034 51 74.1834 50.775 72.8784 50.37C67.4334 48.615 67.1634 43.71 67.1634 39.3V22.335H63.0684V21.615C64.6434 21.3 66.0384 20.76 67.1634 20.13C71.3034 17.88 72.7884 14.46 72.8784 14.28V21.615H77.0634V22.335ZM82.6507 46.5V29.49C82.6507 27.825 81.3007 26.43 79.6357 26.43L88.0507 23.235V46.5C88.0507 47.49 88.3657 48.435 88.9057 49.2C89.4457 50.01 90.2107 50.64 91.1107 51H79.6357C81.4807 50.28 82.6507 48.48 82.6507 46.5ZM88.6357 15.09C88.6357 17.115 86.9707 18.78 84.9457 18.78C82.9207 18.78 81.2557 17.115 81.2557 15.09C81.2557 13.065 82.9207 11.4 84.9457 11.4C86.9707 11.4 88.6357 13.065 88.6357 15.09ZM101.364 13.155C103.074 12.075 105.189 11.4 107.934 11.4C108.924 11.4 110.004 11.49 111.129 11.67C110.319 15.81 110.004 17.79 110.004 17.79C110.004 17.79 109.734 12.075 105.639 12.075C102.489 12.075 101.544 16.755 101.364 20.445V23.685H105.639V24.36H101.319C101.319 31.65 101.364 46.59 101.364 46.59C101.364 47.535 101.634 48.48 102.174 49.245C102.714 50.01 103.434 50.64 104.334 51H93.0391C94.8841 50.28 96.0541 48.525 96.0541 46.59V24.36H93.3091V23.685H96.0541C96.1891 19.95 97.5841 15.495 101.364 13.155ZM135.996 21.75H142.431C140.406 22.605 138.696 24.09 137.616 25.98L121.191 54.78C120.336 56.04 117.951 60.54 112.371 60.54C109.716 56.265 109.176 55.455 109.176 55.455C109.176 55.455 111.651 57.615 114.711 57.615C117.051 57.615 119.706 56.4 121.911 52.08L125.331 46.095L113.406 25.845C112.371 24.045 110.706 22.605 108.771 21.75H120.921C119.976 22.245 119.436 23.19 119.436 24.135C119.436 24.585 119.571 25.08 119.841 25.485L128.571 40.38L137.076 25.485C137.301 25.035 137.436 24.585 137.436 24.135C137.436 23.145 136.896 22.245 135.996 21.75ZM166.832 45.6H184.607C186.992 45.6 189.197 44.34 190.367 42.27L189.017 51H162.692C163.097 48.885 164.177 47.175 165.662 45.6C171.647 39.345 184.202 35.655 184.202 21.795C184.202 13.245 178.847 12.03 176.552 12.03C171.332 12.03 167.777 15.18 167.777 21.345C167.777 22.155 167.822 23.01 167.957 23.91C165.482 22.335 163.007 21.165 163.007 21.165C163.007 18.06 166.787 11.4 176.552 11.4C185.147 11.4 190.367 17.16 190.367 23.145C190.367 36.6 173.897 38.805 166.832 45.6ZM206.704 11.4C214.489 11.4 220.744 20.265 220.744 31.2C220.744 42.135 214.489 51 206.704 51C198.919 51 192.619 42.135 192.619 31.2C192.619 20.265 198.919 11.4 206.704 11.4ZM206.704 50.325C211.384 50.325 215.119 41.775 215.119 31.2C215.119 20.625 211.384 12.075 206.704 12.075C202.024 12.075 198.244 20.625 198.244 31.2C198.244 41.775 202.024 50.325 206.704 50.325ZM226.598 45.6H244.373C246.758 45.6 248.963 44.34 250.133 42.27L248.783 51H222.458C222.863 48.885 223.943 47.175 225.428 45.6C231.413 39.345 243.968 35.655 243.968 21.795C243.968 13.245 238.613 12.03 236.318 12.03C231.098 12.03 227.543 15.18 227.543 21.345C227.543 22.155 227.588 23.01 227.723 23.91C225.248 22.335 222.773 21.165 222.773 21.165C222.773 18.06 226.553 11.4 236.318 11.4C244.913 11.4 250.133 17.16 250.133 23.145C250.133 36.6 233.663 38.805 226.598 45.6ZM277.63 38.76H274.39V46.5C274.39 47.445 274.705 48.39 275.245 49.2C275.74 49.965 276.505 50.595 277.45 51H265.975C267.775 50.235 268.99 48.435 268.99 46.5V38.76H252.385L252.88 38.085L268.99 17.295L273.535 11.4H274.39V38.085H277.63V38.76ZM253.735 38.085H268.99V18.375L253.735 38.085Z" fill="black"/>
<g filter="url(#filter1_f_3_370)">
<path d="M253 11C253.003 14.8649 256.135 17.9973 260 18C256.135 18.0027 253.003 21.1351 253 25C252.997 21.1351 249.865 18.0027 246 18C249.865 17.9973 252.997 14.8649 253 11Z" fill="url(#paint1_linear_3_370)"/>
</g>
<g filter="url(#filter2_f_3_370)">
<path d="M110 53C110.002 56.3127 112.687 58.9977 116 59C112.687 59.0024 110.002 61.6873 110 65C109.998 61.6873 107.313 59.0024 104 59C107.313 58.9977 109.998 56.3127 110 53Z" fill="url(#paint2_linear_3_370)"/>
</g>
<g filter="url(#filter3_f_3_370)">
<path d="M45 13C45.002 15.7606 47.2394 17.9981 50 18C47.2394 18.002 45.002 20.2394 45 23C44.998 20.2394 42.7606 18.002 40 18C42.7606 17.9981 44.998 15.7606 45 13Z" fill="url(#paint3_linear_3_370)"/>
</g>
<g filter="url(#filter4_f_3_370)">
<path d="M32.5 35C32.5014 36.9324 34.0676 38.4986 36 38.5C34.0676 38.5014 32.5014 40.0676 32.5 42C32.4986 40.0676 30.9324 38.5014 29 38.5C30.9324 38.4986 32.4986 36.9324 32.5 35Z" fill="url(#paint4_linear_3_370)"/>
</g>
<g filter="url(#filter5_f_3_370)">
<path d="M107.019 9.10982L113.428 9.76673L114.667 2.95006L113.941 9.84023L124.604 11.63L113.868 10.353L112.629 17.1697L113.355 10.2795L107.019 9.10982Z" fill="url(#paint5_linear_3_370)"/>
</g>
<g filter="url(#filter6_f_3_370)">
<path d="M269.247 4.83225L273.241 7.62584L276.569 3.57594L273.553 7.86319L279.942 12.9712L273.316 8.17509L269.988 12.225L273.004 7.93775L269.247 4.83225Z" fill="url(#paint6_linear_3_370)"/>
</g>
<path d="M260 18.15V17.85C256.218 17.8473 253.153 14.782 253.15 10.9999H252.85C252.847 14.782 249.782 17.8473 246 17.85V18.15C249.782 18.1527 252.847 21.218 252.85 25.0001H253.15C253.153 21.218 256.218 18.1527 260 18.15Z" fill="black" stroke="white" stroke-width="0.3"/>
<path d="M110 53C110.002 56.3127 112.687 58.9977 116 59C112.687 59.0024 110.002 61.6873 110 65C109.998 61.6873 107.313 59.0024 104 59C107.313 58.9977 109.998 56.3127 110 53Z" fill="black"/>
<path d="M45 13C45.002 15.7606 47.2394 17.9981 50 18C47.2394 18.002 45.002 20.2394 45 23C44.998 20.2394 42.7606 18.002 40 18C42.7606 17.9981 44.998 15.7606 45 13Z" fill="black"/>
<path d="M32.5 35C32.5014 36.9324 34.0676 38.4986 36 38.5C34.0676 38.5014 32.5014 40.0676 32.5 42C32.4986 40.0676 30.9324 38.5014 29 38.5C30.9324 38.4986 32.4986 36.9324 32.5 35Z" fill="black" stroke="white" stroke-width="0.4"/>
<path d="M107.019 9.10982L113.428 9.76673L114.667 2.95006L113.941 9.84023L124.604 11.63L113.868 10.353L112.629 17.1697L113.355 10.2795L107.019 9.10982Z" fill="black"/>
<path d="M269.247 4.83225L273.241 7.62584L276.569 3.57594L273.553 7.86319L279.942 12.9712L273.316 8.17509L269.988 12.225L273.004 7.93775L269.247 4.83225Z" fill="black"/>
<defs>
<filter id="filter0_f_3_370" x="0.105469" y="10.4" width="278.524" height="51.14" filterUnits="userSpaceOnUse" color-interpolation-filters="sRGB">
<feFlood flood-opacity="0" result="BackgroundImageFix"/>
<feBlend mode="normal" in="SourceGraphic" in2="BackgroundImageFix" result="shape"/>
<feGaussianBlur stdDeviation="0.5" result="effect1_foregroundBlur_3_370"/>
</filter>
<filter id="filter1_f_3_370" x="245" y="10" width="16" height="16" filterUnits="userSpaceOnUse" color-interpolation-filters="sRGB">
<feFlood flood-opacity="0" result="BackgroundImageFix"/>
<feBlend mode="normal" in="SourceGraphic" in2="BackgroundImageFix" result="shape"/>
<feGaussianBlur stdDeviation="0.5" result="effect1_foregroundBlur_3_370"/>
</filter>
<filter id="filter2_f_3_370" x="103" y="52" width="14" height="14" filterUnits="userSpaceOnUse" color-interpolation-filters="sRGB">
<feFlood flood-opacity="0" result="BackgroundImageFix"/>
<feBlend mode="normal" in="SourceGraphic" in2="BackgroundImageFix" result="shape"/>
<feGaussianBlur stdDeviation="0.5" result="effect1_foregroundBlur_3_370"/>
</filter>
<filter id="filter3_f_3_370" x="39" y="12" width="12" height="12" filterUnits="userSpaceOnUse" color-interpolation-filters="sRGB">
<feFlood flood-opacity="0" result="BackgroundImageFix"/>
<feBlend mode="normal" in="SourceGraphic" in2="BackgroundImageFix" result="shape"/>
<feGaussianBlur stdDeviation="0.5" result="effect1_foregroundBlur_3_370"/>
</filter>
<filter id="filter4_f_3_370" x="28" y="34" width="9" height="9" filterUnits="userSpaceOnUse" color-interpolation-filters="sRGB">
<feFlood flood-opacity="0" result="BackgroundImageFix"/>
<feBlend mode="normal" in="SourceGraphic" in2="BackgroundImageFix" result="shape"/>
<feGaussianBlur stdDeviation="0.5" result="effect1_foregroundBlur_3_370"/>
</filter>
<filter id="filter5_f_3_370" x="106.019" y="1.95006" width="19.5848" height="16.2196" filterUnits="userSpaceOnUse" color-interpolation-filters="sRGB">
<feFlood flood-opacity="0" result="BackgroundImageFix"/>
<feBlend mode="normal" in="SourceGraphic" in2="BackgroundImageFix" result="shape"/>
<feGaussianBlur stdDeviation="0.5" result="effect1_foregroundBlur_3_370"/>
</filter>
<filter id="filter6_f_3_370" x="268.247" y="2.57594" width="12.6959" height="11.3953" filterUnits="userSpaceOnUse" color-interpolation-filters="sRGB">
<feFlood flood-opacity="0" result="BackgroundImageFix"/>
<feBlend mode="normal" in="SourceGraphic" in2="BackgroundImageFix" result="shape"/>
<feGaussianBlur stdDeviation="0.5" result="effect1_foregroundBlur_3_370"/>
</filter>
<linearGradient id="paint0_linear_3_370" x1="1" y1="36.5" x2="280" y2="36.5" gradientUnits="userSpaceOnUse">
<stop stop-color="#5F01D1" stop-opacity="0.56"/>
<stop offset="0.276655" stop-color="#FE346E"/>
<stop offset="0.552505" stop-color="#1089FE"/>
<stop offset="0.788948" stop-color="#20BBAD"/>
<stop offset="1" stop-color="#265DC2"/>
</linearGradient>
<linearGradient id="paint1_linear_3_370" x1="253" y1="11" x2="253" y2="25" gradientUnits="userSpaceOnUse">
<stop stop-color="#5F01D1"/>
<stop offset="0.295" stop-color="#FE346E"/>
<stop offset="0.58" stop-color="#1089FE"/>
<stop offset="0.775" stop-color="#20BBAD"/>
<stop offset="1" stop-color="#265DC2"/>
</linearGradient>
<linearGradient id="paint2_linear_3_370" x1="110" y1="53" x2="110" y2="65" gradientUnits="userSpaceOnUse">
<stop stop-color="#5F01D1"/>
<stop offset="0.295" stop-color="#FE346E"/>
<stop offset="0.58" stop-color="#1089FE"/>
<stop offset="0.775" stop-color="#20BBAD"/>
<stop offset="1" stop-color="#265DC2"/>
</linearGradient>
<linearGradient id="paint3_linear_3_370" x1="45" y1="13" x2="45" y2="23" gradientUnits="userSpaceOnUse">
<stop stop-color="#5F01D1"/>
<stop offset="0.295" stop-color="#FE346E"/>
<stop offset="0.58" stop-color="#1089FE"/>
<stop offset="0.775" stop-color="#20BBAD"/>
<stop offset="1" stop-color="#265DC2"/>
</linearGradient>
<linearGradient id="paint4_linear_3_370" x1="32.5" y1="35" x2="32.5" y2="42" gradientUnits="userSpaceOnUse">
<stop stop-color="#5F01D1"/>
<stop offset="0.295" stop-color="#FE346E"/>
<stop offset="0.58" stop-color="#1089FE"/>
<stop offset="0.775" stop-color="#20BBAD"/>
<stop offset="1" stop-color="#265DC2"/>
</linearGradient>
<linearGradient id="paint5_linear_3_370" x1="107.019" y1="9.10982" x2="124.604" y2="11.63" gradientUnits="userSpaceOnUse">
<stop stop-color="#5F01D1"/>
<stop offset="0.295" stop-color="#FE346E"/>
<stop offset="0.58" stop-color="#1089FE"/>
<stop offset="0.775" stop-color="#20BBAD"/>
<stop offset="1" stop-color="#265DC2"/>
</linearGradient>
<linearGradient id="paint6_linear_3_370" x1="269.247" y1="4.83225" x2="279.942" y2="12.9712" gradientUnits="userSpaceOnUse">
<stop stop-color="#5F01D1"/>
<stop offset="0.295" stop-color="#FE346E"/>
<stop offset="0.58" stop-color="#1089FE"/>
<stop offset="0.775" stop-color="#20BBAD"/>
<stop offset="1" stop-color="#265DC2"/>
</linearGradient>
</defs>
</svg>
