<svg width="46" height="47" viewBox="0 0 46 47" fill="none" xmlns="http://www.w3.org/2000/svg">
<path d="M30.758 23.2179L30.3627 23.4354L30.7566 23.6553L45.6582 31.9748L41.9682 38.4666L26.8108 29.6472L26.4318 29.4267L26.4351 29.8651L26.5603 46.75H19.4397L19.5649 29.8651L19.5682 29.4267L19.1892 29.6472L4.03178 38.4666L0.342277 31.9756L15.3697 23.6557L15.7677 23.4353L15.3683 23.2175L0.341358 15.0221L4.03346 8.40842L19.1892 17.2268L19.5682 17.4473L19.5649 17.0089L19.4397 0.25H26.5603L26.4351 17.0089L26.4318 17.4473L26.8108 17.2268L41.9665 8.40842L45.6591 15.0228L30.758 23.2179Z" stroke="#716F6F" stroke-width="0.5"/>
</svg>
