<svg width="54" height="54" viewBox="0 0 54 54" fill="none" xmlns="http://www.w3.org/2000/svg">
<path opacity="0.2" d="M35.7747 26.0471L34.151 26.921L35.7691 27.8051L52.6198 37.0127L49.0089 43.2302L31.8208 33.442L30.3128 32.5833L30.326 34.3186L30.4675 53H23.5325L23.674 34.3186L23.6872 32.5833L22.1792 33.442L4.99109 43.2302L1.38203 37.0158L18.377 27.8068L20.0118 26.921L18.3715 26.0454L1.37819 16.9748L4.99782 10.6289L22.1792 20.4132L23.6872 21.272L23.674 19.5366L23.5325 1H30.4675L30.326 19.5366L30.3128 21.272L31.8208 20.4132L49.0022 10.6289L52.6236 16.9779L35.7747 26.0471Z" stroke="#1089FE" stroke-width="2"/>
</svg>
