<svg width="70" height="34" viewBox="0 0 70 34" fill="none" xmlns="http://www.w3.org/2000/svg">
<path opacity="0.2" d="M32.4056 17.5668L24.4859 2.33603L26.3976 18.9028L14.9277 7.14575L22.3012 22.1093L7.28112 14.6275L19.5703 26.6518L2.63855 24.247L17.3855 31.7287L1 34.4008L17.9317 37.0729L2.63855 44.5547L19.5703 42.417L7.28112 54.1741L22.3012 46.6923L14.9277 61.6559L26.9438 49.6316L24.4859 66.1984L32.4056 51.2348L35.1365 67L38.1406 51.2348L45.5141 65.664L43.3293 49.6316L55.3454 61.6559L47.9719 46.6923L62.992 54.7085L50.9759 42.417L67.3614 44.5547L52.6145 37.0729L69 34.4008L52.6145 31.7287L67.3614 24.247L50.9759 26.6518L62.992 14.6275L47.9719 22.1093L55.3454 7.14575L43.3293 18.9028L46.0602 2.33603L38.1406 17.5668L35.1365 1L32.4056 17.5668Z" stroke="#5F01D1" stroke-width="2"/>
</svg>
