<svg width="54" height="36" viewBox="0 0 54 36" fill="none" xmlns="http://www.w3.org/2000/svg">
<path opacity="0.2" d="M25.0161 13.5506L18.9598 2.01215L20.4217 14.5628L11.6506 5.65587L17.2892 16.9919L5.80321 11.3239L15.2008 20.4332L2.25301 18.6113L13.5301 24.2794L1 26.3036L13.9478 28.3279L2.25301 33.996L15.2008 32.3765L5.80321 41.2834L17.2892 35.6154L11.6506 46.9514L20.8394 37.8421L18.9598 50.3927L25.0161 39.0567L27.1044 51L29.4016 39.0567L35.0402 49.9879L33.3695 37.8421L42.5582 46.9514L36.9197 35.6154L48.4056 41.6883L39.2169 32.3765L51.747 33.996L40.4699 28.3279L53 26.3036L40.4699 24.2794L51.747 18.6113L39.2169 20.4332L48.4056 11.3239L36.9197 16.9919L42.5582 5.65587L33.3695 14.5628L35.4578 2.01215L29.4016 13.5506L27.1044 1L25.0161 13.5506Z" stroke="#FE346E" stroke-opacity="0.58" stroke-width="2"/>
</svg>
