<svg width="158" height="36" viewBox="0 0 158 36" fill="none" xmlns="http://www.w3.org/2000/svg">
<path d="M6.67187 33.412C6.67187 31.63 8.09087 28.528 10.2029 25.03C7.62887 25.03 5.97887 24.337 5.97887 23.116C5.97887 21.334 10.7639 18.694 11.5889 18.694C11.6219 18.694 11.6549 18.694 11.6879 18.727C10.6649 19.321 7.19987 21.466 7.19987 22.918C7.19987 23.083 7.39787 23.281 8.02487 23.281C9.01487 23.281 10.2029 23.149 11.5889 22.852C17.1989 14.239 25.9769 4.24 28.4849 4.24C29.6729 4.24 30.9929 5.395 31.1909 6.748C30.9269 6.385 30.5639 6.286 30.2669 6.286C28.3199 6.286 21.2249 14.272 15.5819 21.796C25.6469 18.661 39.3749 11.368 39.3749 6.088C39.3749 2.953 35.1179 1.204 29.2769 1.204C17.6279 1.204 2.81087 11.104 2.81087 15.394C2.81087 16.747 4.39487 17.572 5.25287 17.638C5.25287 17.638 5.25287 17.671 4.72487 17.671C2.38187 17.671 0.566871 17.011 0.566871 14.536C0.566871 10.048 12.4469 0.246999 29.5079 0.246999C33.0719 0.246999 40.9919 1.633 40.9919 7.045C40.9919 15.724 22.4789 22.984 13.4699 24.667C10.3679 28.99 8.09087 32.785 8.09087 34.138C8.09087 34.765 8.05787 35.26 8.65187 35.359C8.48687 35.425 8.25587 35.458 8.12387 35.458C7.23287 35.458 6.67187 34.633 6.67187 33.412ZM45.1347 15.625C44.8047 15.592 44.5407 15.526 44.3097 15.526C38.3367 15.526 31.4397 26.647 33.2877 27.439C35.1357 28.198 39.8547 22.918 42.0657 19.552C41.9007 19.255 41.5707 18.265 41.7027 17.935C41.8017 17.605 42.7917 16.615 43.2207 16.582C43.5507 16.549 43.9137 16.813 43.9797 16.912C44.6067 17.935 45.3987 18.694 46.7187 18.595C48.9297 18.397 50.1507 17.11 50.5137 17.143C50.3487 17.605 49.0287 18.694 47.4117 19.222C46.6857 19.453 45.9927 19.519 45.4647 19.519C44.9697 19.519 44.6397 19.453 44.4747 19.387C43.5837 23.776 36.7527 28.528 33.2547 28.33C31.7367 28.231 30.7467 26.977 30.7467 25.723C30.7467 20.344 37.9737 14.965 43.1877 14.965C44.4417 14.965 44.9697 15.328 45.2007 15.526C45.3657 15.625 45.2667 15.625 45.1347 15.625ZM45.6954 28.231C45.5634 28.231 45.4644 28.231 45.2994 28.198C44.7714 28.033 43.9464 27.208 43.9464 26.614C43.9464 24.7 48.7314 17.506 50.8434 15.823C51.0084 15.658 51.2064 15.625 51.3384 15.625C52.0974 15.625 53.4174 16.945 53.4174 17.77C53.4174 17.902 53.2524 17.737 52.9884 17.704C51.6354 17.572 47.1144 25.096 46.7184 26.449C48.7314 25.921 53.5494 21.334 55.5624 19.387C55.7934 19.222 55.9584 19.486 55.8594 19.585C52.9884 22.687 47.7414 28.066 45.6954 28.231ZM54.4074 10.576C55.1664 10.477 55.8924 11.137 56.3214 11.632C56.6184 11.962 56.8164 12.457 56.6844 12.457C56.6184 12.457 56.3544 12.325 55.9914 12.49C55.4304 12.721 53.9124 14.074 53.5164 14.635C53.0544 15.229 52.3614 14.536 52.3284 13.942C52.2954 12.985 53.5494 10.84 54.4074 10.576ZM68.5515 17.275C67.7265 17.935 62.6115 24.898 62.5455 26.449C64.6245 25.888 69.3435 21.367 71.4555 19.387C71.6535 19.222 71.8185 19.486 71.7195 19.585C68.8485 22.72 63.4695 28.165 61.4895 28.165C61.1595 28.165 60.7965 27.868 60.4665 27.472C60.1035 27.043 59.8725 26.548 59.8725 26.185C59.8725 24.304 63.7005 18.793 65.4165 17.242C62.7105 18.463 57.8595 22.456 55.4175 25.096C54.9885 25.525 54.5925 26.02 54.2295 26.482C53.3385 27.538 53.1075 28.429 53.6025 28.66C52.6125 28.891 51.8205 27.835 51.5565 26.878C51.4905 26.647 51.6555 25.756 52.4805 24.238C53.2725 22.687 54.5265 20.74 55.6155 19.222C56.8035 17.539 58.2555 15.79 59.1135 15.13C59.2455 14.998 59.4435 14.965 59.5425 14.965C60.3675 14.965 61.6215 16.252 61.6215 17.077C61.6215 17.209 61.4895 17.044 61.2255 17.011C60.7965 16.978 59.5755 18.364 58.5855 19.651C57.0345 21.697 55.3185 24.139 54.8235 25.063C55.1865 24.535 55.8135 23.875 56.5065 23.215C60.2025 19.585 66.0105 15.13 67.1325 15.13C67.9245 15.13 68.9805 16.912 68.5515 17.275ZM77.0918 9.487C79.6658 6.121 80.5898 5.065 81.4148 4.405C81.9098 4.009 82.3388 3.745 82.6358 3.745C84.4838 3.646 85.8038 5.56 85.1768 5.197C84.1208 4.702 82.1738 7.342 80.7218 9.223C86.0348 8.959 92.9978 9.223 97.7168 10.213C97.9808 10.279 98.1128 10.345 97.7168 10.312C91.1828 9.751 85.1438 9.784 79.6328 10.609C78.4118 12.127 77.3228 13.777 76.0028 15.724C73.1318 20.08 70.6568 24.271 69.8648 26.383C71.2838 26.548 76.7618 21.169 78.7088 19.387C78.9068 19.222 79.0388 19.486 78.9398 19.585C77.3228 21.433 71.5808 27.439 69.6008 28.165C69.1718 28.33 68.8418 28.198 68.5448 28.033C68.2808 27.901 67.5548 27.208 67.3568 26.713C67.3238 26.647 67.2578 26.581 67.2578 26.218C67.2578 25.228 68.7428 21.994 72.8018 15.724C73.6928 14.371 74.6498 12.919 75.8708 11.302C72.7358 11.929 70.7888 13.513 71.6468 14.008C71.1188 14.008 69.9968 13.381 69.8978 12.325C69.7658 10.84 73.3958 9.916 77.0918 9.487ZM134.489 4.306C133.928 4.042 127.757 2.227 119.771 1.963C119.144 1.93 118.484 1.93 117.857 1.93C100.829 1.93 88.6519 9.091 88.1239 13.513C87.8599 15.625 91.4239 16.78 91.6879 16.912C91.6879 16.912 91.6549 16.945 91.5559 16.945C89.3449 16.912 85.5829 15.889 85.6489 12.985C85.8469 5.857 101.06 0.609999 116.207 0.609999C116.933 0.609999 117.626 0.609999 118.352 0.642998C125.315 0.873999 132.113 2.623 134.654 4.009C135.116 4.24 134.852 4.438 134.489 4.306ZM93.2389 33.214C93.0079 30.079 100.07 17.737 105.746 10.477C107.297 8.53 108.551 7.21 109.475 6.319C110.432 5.395 111.191 4.834 111.785 4.834C112.973 4.834 114.359 5.758 114.656 7.144C114.425 6.847 114.128 6.748 113.864 6.748C113.105 6.748 111.653 7.936 109.805 10.114C104.195 16.78 94.9219 30.937 95.1859 33.115C95.9449 33.082 96.7039 32.785 97.6939 32.158C97.6279 32.785 95.3509 34.435 94.4599 34.468C93.8989 34.501 93.3049 34.138 93.2389 33.214ZM113.045 25.261C113.441 24.04 114.332 22.522 114.959 21.697C113.969 22.687 107.534 28.231 106.148 28.231C106.082 28.231 105.917 28.165 105.851 28.132C105.257 27.835 104.399 26.581 104.399 25.921C104.399 22.324 111.956 14.965 118.028 14.965C119.282 14.965 120.932 15.493 120.932 17.044C120.932 17.605 120.635 18.166 120.305 18.595C120.239 18.628 120.173 18.595 120.206 18.562C120.371 18.265 120.569 17.869 120.569 17.374C120.569 16.384 119.942 15.889 118.952 15.955C117.038 16.054 114.629 17.44 112.484 19.255C109.349 21.928 106.874 26.086 107.171 26.251C107.237 26.284 107.303 26.284 107.402 26.251C108.491 25.888 113.111 22.555 114.827 21.103C115.421 20.575 117.566 18.496 118.391 18.034C119.051 17.704 120.173 19.519 120.041 19.915C119.876 19.585 116.906 23.182 115.916 25.294C115.718 25.756 115.586 26.152 115.586 26.416C117.665 25.822 122.384 21.301 124.43 19.387C124.595 19.222 124.76 19.486 124.661 19.585C121.79 22.72 116.411 28.231 114.431 28.231C114.266 28.231 114.101 28.165 113.87 28.033C113.408 27.769 112.781 27.076 112.781 26.482C112.781 26.152 112.913 25.756 113.045 25.261ZM134.092 8.893C130.825 12.985 127.624 17.275 125.083 22.159C127.657 18.991 133.465 14.503 135.247 15.13C135.643 15.295 136.798 16.549 136.798 17.011C136.798 19.981 130.396 28 125.842 28C124.555 28 123.103 27.142 123.103 26.053C123.103 25.888 123.235 25.822 123.235 25.921C123.235 26.251 123.829 26.878 124.489 26.878C127.822 26.878 133.828 18.1 134.125 16.45C133.564 16.417 126.964 19.882 123.532 24.931C122.575 26.317 121.222 28.231 122.707 28.396C122.311 28.561 121.981 28.429 121.651 28.231C121.354 28.132 120.694 27.439 120.463 26.911C120.364 26.647 120.43 25.657 121.387 23.479C123.235 19.354 127.327 13.348 130.726 8.827C131.881 7.276 133.168 5.692 134.719 4.405C135.247 4.042 135.676 3.811 135.973 3.811C137.821 3.811 139.108 5.758 138.481 5.395C137.59 4.933 136.105 6.385 134.092 8.893ZM139.962 15.724C142.008 12.523 144.12 9.652 145.836 7.408C146.826 6.121 147.75 5.065 148.575 4.405C149.07 4.009 149.499 3.745 149.796 3.745C151.644 3.646 152.964 5.56 152.337 5.197C151.182 4.669 149.037 7.771 147.585 9.553C146.166 11.368 144.813 13.315 143.163 15.724C140.292 20.08 137.817 24.271 137.025 26.383C138.444 26.548 143.922 21.169 145.869 19.387C146.067 19.222 146.199 19.486 146.1 19.585C144.483 21.433 138.741 27.439 136.761 28.165C136.332 28.33 136.002 28.198 135.705 28.033C135.441 27.901 134.715 27.208 134.517 26.713C134.484 26.647 134.418 26.581 134.418 26.218C134.418 25.228 135.936 22.027 139.962 15.724ZM146.14 23.545C145.546 24.238 144.919 25.294 144.82 26.152C144.787 26.548 145.084 26.779 145.81 26.779C148.219 26.779 154.258 22.192 157.591 19.42C157.69 19.354 157.921 19.519 157.822 19.618C155.347 21.928 148.78 28.231 144.391 28.231C143.368 28.231 142.048 27.043 142.048 26.152C142.048 25.36 142.246 24.7 142.51 23.974C143.302 22.093 144.985 20.014 147.064 18.265C149.803 15.988 152.74 14.965 154.159 14.965C154.654 14.965 156.172 15.724 156.172 16.648C156.172 18.694 149.836 23.446 146.14 23.545ZM155.116 15.955C151.453 17.143 147.658 21.136 146.569 22.885C149.44 22.555 154.918 17.209 155.116 15.955Z" fill="black"/>
</svg>
